<svg width="36" height="32" viewBox="0 0 36 32" fill="none" xmlns="http://www.w3.org/2000/svg">
<path fill-rule="evenodd" clip-rule="evenodd" d="M18.476 7.20923C18.476 10.2617 16.0014 12.7363 12.9489 12.7363C9.89636 12.7363 7.4218 10.2617 7.4218 7.20923C7.4218 4.15671 9.89636 1.68215 12.9489 1.68215C16.0014 1.68215 18.476 4.15671 18.476 7.20923ZM20.1581 7.20923C20.1581 11.1908 16.9304 14.4185 12.9489 14.4185C8.96733 14.4185 5.73965 11.1908 5.73965 7.20923C5.73965 3.22768 8.96733 0 12.9489 0C16.9304 0 20.1581 3.22768 20.1581 7.20923ZM8.14282 18.5037H17.7551C20.8076 18.5037 23.2822 20.9782 23.2822 24.0307C23.2822 27.0832 20.8076 29.5578 17.7551 29.5578H8.14282C5.0903 29.5578 2.61575 27.0832 2.61575 24.0307C2.61575 20.9782 5.0903 18.5037 8.14282 18.5037ZM0.933594 24.0307C0.933594 20.0492 4.16128 16.8215 8.14282 16.8215H17.7551C21.7367 16.8215 24.9644 20.0492 24.9644 24.0307C24.9644 28.0123 21.7367 31.24 17.7551 31.24H8.14282C4.16128 31.24 0.933594 28.0123 0.933594 24.0307Z" fill="#070A11"/>
<path d="M15.3506 20.4259L17.0199 23.7646C18.5303 26.7853 22.6031 27.3472 24.8749 24.8482L32.1721 16.8213" stroke="#F8F9FB" stroke-width="5.76738" stroke-linecap="round"/>
<path d="M15.3506 20.4259L17.0199 23.7646C18.5303 26.7853 22.6031 27.3472 24.8749 24.8482L32.1721 16.8213" stroke="#6366F1" stroke-width="2.40308" stroke-linecap="round"/>
</svg>
