<svg width="990" height="230" viewBox="0 0 990 230" fill="none" xmlns="http://www.w3.org/2000/svg">
<g filter="url(#filter0_d_2789_6044)">
<path d="M0 11C0 4.92487 4.92487 0 11 0H979C985.075 0 990 4.92487 990 11V222H0V11Z" fill="url(#paint0_linear_2789_6044)"/>
<path d="M49.681 27.3953H55.1026L53.7035 30.1061H50.6429C40.1494 35.4402 44.5217 50.6558 58.2506 45.4965V39.7251H53.4411L55.3649 37.0143H61.2238V47.4203C40.6741 55.2904 35.6022 33.1667 49.681 27.3953Z" fill="#F4F7FE" stroke="#6366F1" stroke-width="0.174891"/>
<path d="M77.9274 27.3953H72.5058L73.9049 30.1061H76.9655C87.459 35.4402 83.0867 50.6558 69.3578 45.4965V39.7251H74.1673L72.2435 37.0143H66.3846V47.4203C86.9343 55.2904 92.0062 33.1667 77.9274 27.3953Z" fill="#F4F7FE" stroke="#6366F1" stroke-width="0.174891"/>
<path d="M65.3357 19.0002H62.1876L52.0439 35.44H62.2751V40.2495H65.5105V35.44H70.0577L68.4837 32.9041H65.3357V19.0002Z" fill="#F4F7FE" stroke="#A5B4FC" stroke-width="0.174891"/>
<path d="M62.3625 32.9042V23.0228L56.0664 32.9042H62.3625Z" fill="#6366F1" stroke="white" stroke-width="0.174891"/>
<path d="M66.8223 25.2091V21.0991L76.0915 35.7025H71.7192L70.1452 32.8168H71.6318L66.8223 25.2091Z" fill="#F4F7FE" stroke="#6366F1" stroke-width="0.174891"/>
<path d="M41.1146 55.3832H44.6416C44.7976 55.3887 44.9258 55.4472 45.0261 55.5587C45.1319 55.6701 45.1849 55.8038 45.1849 55.9599C45.157 56.2942 44.9759 56.4753 44.6416 56.5031H41.3987C41.187 56.5143 41.0115 56.5951 40.8722 56.7455C40.7329 56.8959 40.6298 57.0687 40.5629 57.2637C40.5016 57.4531 40.471 57.6482 40.471 57.8487C40.471 58.0493 40.5016 58.2471 40.5629 58.4422C40.6298 58.6316 40.7329 58.8016 40.8722 58.952C41.0115 59.1024 41.187 59.1832 41.3987 59.1944H43.9395C44.0398 59.1888 44.0928 59.1331 44.0983 59.0272V58.5425C44.0928 58.431 44.0398 58.3753 43.9395 58.3753H41.7999C41.6439 58.3753 41.5102 58.3224 41.3987 58.2165C41.2929 58.1051 41.2399 57.9713 41.2399 57.8153C41.2399 57.6593 41.2929 57.5256 41.3987 57.4141C41.5102 57.3083 41.6439 57.2553 41.7999 57.2553H44.6583C44.8143 57.2553 44.9481 57.3083 45.0595 57.4141C45.1598 57.52 45.2127 57.6482 45.2183 57.7986V57.8153V59.7711C45.2127 59.9215 45.1598 60.0469 45.0595 60.1472C44.9536 60.253 44.8255 60.3088 44.675 60.3143H41.1146C40.7245 60.2921 40.4013 60.1444 40.145 59.8714C39.8943 59.5928 39.7132 59.278 39.6018 58.9269C39.4959 58.5759 39.443 58.2165 39.443 57.8487C39.443 57.481 39.4987 57.1216 39.6101 56.7706C39.7216 56.4195 39.9027 56.1075 40.1534 55.8345C40.4041 55.5559 40.7245 55.4054 41.1146 55.3832ZM51.2136 55.3832C51.4978 55.3887 51.7513 55.4779 51.9742 55.6506C52.1971 55.8233 52.3754 56.0295 52.5091 56.2691C52.6484 56.5087 52.7515 56.7622 52.8183 57.0297C52.8852 57.2971 52.9186 57.5702 52.9186 57.8487C52.9186 58.2165 52.8601 58.5787 52.7431 58.9353C52.6317 59.2863 52.445 59.5983 52.1831 59.8714C51.9268 60.1444 51.6036 60.2921 51.2136 60.3143H48.2967C47.9067 60.2976 47.5807 60.1528 47.3188 59.8797C47.0569 59.6067 46.8703 59.2919 46.7588 58.9353C46.653 58.5787 46.6 58.2165 46.6 57.8487C46.6 57.481 46.6558 57.1216 46.7672 56.7706C46.8786 56.414 47.0625 56.0992 47.3188 55.8261C47.5807 55.5475 47.9067 55.3999 48.2967 55.3832H48.4555H51.0548H51.2136ZM50.9294 59.1944C51.1412 59.1832 51.3167 59.1052 51.456 58.9604C51.6009 58.8099 51.7039 58.6372 51.7652 58.4422C51.8265 58.2471 51.8572 58.0493 51.8572 57.8487C51.8572 57.6482 51.8237 57.4531 51.7569 57.2637C51.6956 57.0687 51.5953 56.8959 51.456 56.7455C51.3167 56.5951 51.1412 56.5143 50.9294 56.5031H48.5558C48.3441 56.5143 48.1685 56.5951 48.0292 56.7455C47.8899 56.8959 47.7869 57.0687 47.72 57.2637C47.6587 57.4531 47.6281 57.6482 47.6281 57.8487C47.6281 58.0493 47.6587 58.2471 47.72 58.4422C47.7813 58.6372 47.8816 58.8099 48.0209 58.9604C48.1658 59.1052 48.3441 59.1832 48.5558 59.1944H50.9294ZM58.4375 55.2494C58.588 55.255 58.7161 55.3107 58.822 55.4166C58.9279 55.5169 58.9836 55.6423 58.9892 55.7927V57.9574H59.4656C59.6216 57.963 59.7497 58.0215 59.85 58.1329C59.9559 58.2444 60.0088 58.3781 60.0088 58.5341C60.0033 58.6845 59.9475 58.8127 59.8417 58.9186C59.7414 59.0189 59.616 59.0718 59.4656 59.0774H58.9892V59.8881C58.9557 60.2224 58.7719 60.4035 58.4375 60.4313C58.2815 60.4313 58.145 60.3812 58.028 60.2809C57.9166 60.175 57.8608 60.0441 57.8608 59.8881V59.0774H56.089C55.6989 59.0551 55.3757 58.9241 55.1194 58.6845C54.8687 58.4394 54.6876 58.1413 54.5762 57.7902C54.4703 57.4392 54.4146 57.0659 54.409 56.6703V55.7927C54.4146 55.6423 54.4703 55.5169 54.5762 55.4166C54.682 55.3107 54.8102 55.255 54.9606 55.2494C55.1167 55.2494 55.2504 55.3024 55.3618 55.4082C55.4733 55.5085 55.5318 55.6367 55.5373 55.7927V56.57C55.5318 56.7984 55.5457 57.0102 55.5791 57.2052C55.6181 57.3946 55.7073 57.5646 55.8466 57.715C55.9859 57.8655 56.1614 57.9463 56.3731 57.9574H57.8608V55.7927C57.8664 55.6367 57.9249 55.5085 58.0364 55.4082C58.1478 55.3024 58.2815 55.2494 58.4375 55.2494ZM63.0454 55.3832H66.5725C66.7285 55.3887 66.8566 55.4472 66.9569 55.5587C67.0628 55.6701 67.1157 55.8038 67.1157 55.9599C67.0879 56.2942 66.9068 56.4753 66.5725 56.5031H63.3296C63.1179 56.5143 62.9423 56.5951 62.8031 56.7455C62.6638 56.8959 62.5607 57.0687 62.4938 57.2637C62.4325 57.4531 62.4019 57.6482 62.4019 57.8487C62.4019 58.0493 62.4325 58.2471 62.4938 58.4422C62.5607 58.6316 62.6638 58.8016 62.8031 58.952C62.9423 59.1024 63.1179 59.1832 63.3296 59.1944H65.8704C65.9707 59.1888 66.0236 59.1331 66.0292 59.0272V58.5425C66.0236 58.431 65.9707 58.3753 65.8704 58.3753H63.7308C63.5748 58.3753 63.441 58.3224 63.3296 58.2165C63.2237 58.1051 63.1708 57.9713 63.1708 57.8153C63.1708 57.6593 63.2237 57.5256 63.3296 57.4141C63.441 57.3083 63.5748 57.2553 63.7308 57.2553H66.5892C66.7452 57.2553 66.8789 57.3083 66.9904 57.4141C67.0907 57.52 67.1436 57.6482 67.1492 57.7986V57.8153V59.7711C67.1436 59.9215 67.0907 60.0469 66.9904 60.1472C66.8845 60.253 66.7564 60.3088 66.6059 60.3143H63.0454C62.6554 60.2921 62.3322 60.1444 62.0759 59.8714C61.8252 59.5928 61.6441 59.278 61.5326 58.9269C61.4268 58.5759 61.3738 58.2165 61.3738 57.8487C61.3738 57.481 61.4296 57.1216 61.541 56.7706C61.6524 56.4195 61.8335 56.1075 62.0843 55.8345C62.335 55.5559 62.6554 55.4054 63.0454 55.3832ZM73.1445 55.3832C73.4287 55.3887 73.6822 55.4779 73.9051 55.6506C74.1279 55.8233 74.3062 56.0295 74.44 56.2691C74.5793 56.5087 74.6823 56.7622 74.7492 57.0297C74.8161 57.2971 74.8495 57.5702 74.8495 57.8487C74.8495 58.2165 74.791 58.5787 74.674 58.9353C74.5625 59.2863 74.3759 59.5983 74.114 59.8714C73.8577 60.1444 73.5345 60.2921 73.1445 60.3143H70.2276C69.8375 60.2976 69.5116 60.1528 69.2497 59.8797C68.9878 59.6067 68.8011 59.2919 68.6897 58.9353C68.5838 58.5787 68.5309 58.2165 68.5309 57.8487C68.5309 57.481 68.5866 57.1216 68.6981 56.7706C68.8095 56.414 68.9934 56.0992 69.2497 55.8261C69.5116 55.5475 69.8375 55.3999 70.2276 55.3832H70.3864H72.9857H73.1445ZM72.8603 59.1944C73.072 59.1832 73.2476 59.1052 73.3869 58.9604C73.5317 58.8099 73.6348 58.6372 73.6961 58.4422C73.7574 58.2471 73.788 58.0493 73.788 57.8487C73.788 57.6482 73.7546 57.4531 73.6877 57.2637C73.6265 57.0687 73.5262 56.8959 73.3869 56.7455C73.2476 56.5951 73.072 56.5143 72.8603 56.5031H70.4867C70.2749 56.5143 70.0994 56.5951 69.9601 56.7455C69.8208 56.8959 69.7177 57.0687 69.6509 57.2637C69.5896 57.4531 69.5589 57.6482 69.5589 57.8487C69.5589 58.0493 69.5896 58.2471 69.6509 58.4422C69.7122 58.6372 69.8125 58.8099 69.9518 58.9604C70.0966 59.1052 70.2749 59.1832 70.4867 59.1944H72.8603ZM76.7912 55.2494C76.9472 55.2494 77.081 55.3024 77.1924 55.4082C77.3038 55.5085 77.3623 55.6367 77.3679 55.7927V57.807C77.3623 58.0354 77.3763 58.2471 77.4097 58.4422C77.4487 58.6316 77.5379 58.8016 77.6772 58.952C77.8165 59.1024 77.992 59.1832 78.2037 59.1944H80.8782C81.0343 59.1999 81.1624 59.2585 81.2627 59.3699C81.3686 59.4813 81.4215 59.6151 81.4215 59.7711C81.4159 59.9215 81.3602 60.0497 81.2544 60.1555C81.1541 60.2558 81.0287 60.3088 80.8782 60.3143H77.9195C77.5295 60.2921 77.2063 60.1611 76.95 59.9215C76.6993 59.6764 76.5182 59.3783 76.4068 59.0272C76.3009 58.6762 76.2452 58.3029 76.2396 57.9073V55.7927C76.2452 55.6423 76.3009 55.5169 76.4068 55.4166C76.5126 55.3107 76.6408 55.255 76.7912 55.2494ZM86.3136 55.3832C86.7036 55.4054 87.024 55.5559 87.2747 55.8345C87.5255 56.1075 87.7066 56.4195 87.818 56.7706C87.9294 57.1216 87.9852 57.481 87.9852 57.8487C87.9852 58.2165 87.9294 58.5759 87.818 58.9269C87.7121 59.278 87.531 59.5928 87.2747 59.8714C87.024 60.1444 86.7036 60.2921 86.3136 60.3143H83.2379C83.0874 60.3088 82.9593 60.2558 82.8534 60.1555C82.7531 60.0497 82.7002 59.9215 82.6946 59.7711V57.6983C82.7002 57.5423 82.7587 57.4141 82.8701 57.3138C82.9815 57.208 83.1153 57.155 83.2713 57.155C83.4217 57.1606 83.5499 57.2163 83.6558 57.3222C83.7616 57.4225 83.8173 57.5479 83.8229 57.6983V58.9687C83.8229 59.1192 83.9009 59.1944 84.0569 59.1944H86.0294C86.2411 59.1832 86.4167 59.1024 86.556 58.952C86.6953 58.8016 86.7955 58.6316 86.8568 58.4422C86.9237 58.2471 86.9571 58.0493 86.9571 57.8487C86.9571 57.6482 86.9237 57.4531 86.8568 57.2637C86.7955 57.0687 86.6953 56.8959 86.556 56.7455C86.4167 56.5951 86.2411 56.5143 86.0294 56.5031H83.2379C82.9035 56.4753 82.7225 56.2942 82.6946 55.9599C82.6946 55.8038 82.7447 55.6701 82.845 55.5587C82.9509 55.4472 83.0818 55.3887 83.2379 55.3832H86.3136Z" fill="#F4F7FE"/>
<path d="M64.6773 61.392L64.3742 63.1361H64.1478L64.4509 61.392H64.6773ZM65.2499 62.1766L65.2163 62.3659H64.4569L64.4904 62.1766H65.2499ZM65.5002 61.392L65.4667 61.5813H64.5934L64.627 61.392H65.5002ZM66.1734 62.9145L66.2812 62.2449C66.2868 62.1954 66.282 62.1519 66.2668 62.1143C66.2525 62.0768 66.2281 62.0477 66.1938 62.0269C66.1602 62.0061 66.1179 61.9949 66.0668 61.9934C66.0221 61.9926 65.9781 61.9997 65.935 62.0149C65.8927 62.0301 65.856 62.0528 65.8248 62.0832C65.7937 62.1135 65.7733 62.1519 65.7637 62.1982L65.5481 62.1994C65.5537 62.1347 65.5741 62.0784 65.6092 62.0305C65.6443 61.9818 65.6883 61.9414 65.741 61.9095C65.7937 61.8768 65.8504 61.8528 65.9111 61.8376C65.9718 61.8217 66.0309 61.8141 66.0884 61.8149C66.1754 61.8165 66.2509 61.8352 66.3147 61.8712C66.3794 61.9063 66.4281 61.9558 66.4609 62.0197C66.4936 62.0836 66.5056 62.1603 66.4968 62.2497L66.3974 62.8534C66.3902 62.8973 66.3858 62.9417 66.3842 62.9864C66.3834 63.0303 66.3886 63.0734 66.3998 63.1157L66.3974 63.1361L66.1782 63.1373C66.1694 63.1006 66.165 63.0634 66.165 63.0259C66.1658 62.9884 66.1686 62.9512 66.1734 62.9145ZM66.3064 62.3503L66.2812 62.506L66.0764 62.5048C66.0332 62.5048 65.9877 62.508 65.9398 62.5144C65.8919 62.5208 65.8464 62.5328 65.8033 62.5504C65.7601 62.5679 65.7238 62.5935 65.6943 62.627C65.6647 62.6598 65.6467 62.7025 65.6404 62.7552C65.6356 62.7983 65.6408 62.8358 65.6559 62.8678C65.6719 62.8989 65.6959 62.9233 65.7278 62.9409C65.7597 62.9584 65.7969 62.9676 65.8392 62.9684C65.8943 62.9692 65.9486 62.9584 66.0021 62.9361C66.0556 62.9137 66.1023 62.8818 66.1423 62.8402C66.1822 62.7987 66.2097 62.7508 66.2249 62.6965L66.304 62.8031C66.2888 62.8558 66.264 62.9045 66.2297 62.9492C66.1954 62.9932 66.1546 63.0311 66.1075 63.063C66.0612 63.095 66.0113 63.1197 65.9578 63.1373C65.9043 63.1549 65.8508 63.1633 65.7973 63.1625C65.7246 63.1609 65.6587 63.1445 65.5996 63.1133C65.5413 63.0822 65.495 63.0387 65.4607 62.9828C65.4271 62.9261 65.4128 62.8602 65.4176 62.7851C65.4223 62.7029 65.4439 62.6338 65.4822 62.5779C65.5206 62.522 65.5697 62.4773 65.6296 62.4437C65.6903 62.4102 65.7565 62.3862 65.8284 62.3719C65.9003 62.3567 65.9714 62.3491 66.0416 62.3491L66.3064 62.3503ZM67.2263 62.9792C67.279 62.98 67.3281 62.97 67.3737 62.9492C67.4192 62.9285 67.4579 62.8989 67.4898 62.8606C67.5218 62.8223 67.5445 62.7779 67.5581 62.7276L67.7642 62.7264C67.7514 62.8135 67.7174 62.8897 67.6623 62.9552C67.608 63.0207 67.5414 63.0718 67.4623 63.1086C67.384 63.1445 67.3022 63.1617 67.2167 63.1601C67.1257 63.1585 67.0482 63.1397 66.9843 63.1038C66.9213 63.067 66.8706 63.0183 66.8322 62.9576C66.7939 62.8969 66.7675 62.8287 66.7532 62.7528C66.7388 62.6761 66.7356 62.5975 66.7436 62.5168L66.7484 62.4653C66.758 62.3783 66.7791 62.2956 66.8119 62.2174C66.8446 62.1383 66.8881 62.0684 66.9424 62.0077C66.9975 61.9462 67.0626 61.8983 67.1377 61.864C67.2127 61.8296 67.297 61.8137 67.3904 61.8161C67.4815 61.8177 67.5605 61.8392 67.6276 61.8808C67.6947 61.9215 67.7466 61.977 67.7833 62.0473C67.8201 62.1175 67.8384 62.1974 67.8384 62.2868L67.6348 62.2856C67.634 62.2345 67.624 62.1874 67.6048 62.1443C67.5857 62.1012 67.5573 62.0664 67.5198 62.0401C67.4823 62.0137 67.4359 61.9993 67.3808 61.9969C67.3146 61.9953 67.2567 62.0077 67.2071 62.0341C67.1584 62.0604 67.1169 62.0968 67.0826 62.1431C67.049 62.1886 67.0223 62.2393 67.0023 62.2952C66.9831 62.3511 66.97 62.4078 66.9628 62.4653L66.9568 62.5156C66.952 62.5667 66.9512 62.619 66.9544 62.6725C66.9584 62.726 66.9696 62.776 66.9879 62.8223C67.0063 62.8678 67.0347 62.9049 67.073 62.9337C67.1113 62.9624 67.1624 62.9776 67.2263 62.9792ZM68.3918 61.84L68.1666 63.1361H67.9498L68.175 61.84H68.3918ZM68.2181 61.4998C68.2181 61.4623 68.2297 61.4312 68.2529 61.4064C68.2768 61.3808 68.3076 61.3677 68.3451 61.3669C68.3826 61.3661 68.4134 61.3777 68.4373 61.4016C68.4621 61.4256 68.4741 61.4559 68.4733 61.4926C68.4733 61.5294 68.4609 61.5601 68.4362 61.5849C68.4122 61.6088 68.3818 61.6212 68.3451 61.622C68.3084 61.6228 68.278 61.612 68.2541 61.5897C68.2301 61.5665 68.2181 61.5366 68.2181 61.4998ZM69.0662 61.2962L68.7464 63.1361H68.5296L68.8482 61.2962H69.0662ZM69.5514 61.84L69.3262 63.1361H69.1093L69.3345 61.84H69.5514ZM69.3777 61.4998C69.3777 61.4623 69.3892 61.4312 69.4124 61.4064C69.4364 61.3808 69.4671 61.3677 69.5046 61.3669C69.5422 61.3661 69.5729 61.3777 69.5969 61.4016C69.6216 61.4256 69.6336 61.4559 69.6328 61.4926C69.6328 61.5294 69.6204 61.5601 69.5957 61.5849C69.5717 61.6088 69.5414 61.6212 69.5046 61.622C69.4679 61.6228 69.4376 61.612 69.4136 61.5897C69.3896 61.5665 69.3777 61.5366 69.3777 61.4998ZM70.4246 61.84L70.3946 62.0101H69.7131L69.743 61.84H70.4246ZM70.0281 61.525H70.2437L70.0245 62.8175C70.0221 62.8454 70.0229 62.8706 70.0269 62.8929C70.0309 62.9153 70.0405 62.9333 70.0557 62.9468C70.0708 62.9596 70.094 62.9664 70.1251 62.9672C70.1427 62.9672 70.1599 62.966 70.1766 62.9636C70.1942 62.9604 70.2118 62.9576 70.2293 62.9552L70.2138 63.1373C70.1882 63.1445 70.1619 63.1497 70.1347 63.1529C70.1084 63.1569 70.082 63.1585 70.0557 63.1577C69.9894 63.1569 69.9375 63.1401 69.8999 63.1074C69.8624 63.0746 69.8368 63.0323 69.8233 62.9804C69.8097 62.9285 69.8057 62.873 69.8113 62.8139L70.0281 61.525ZM70.9097 61.84L70.6845 63.1361H70.4677L70.6929 61.84H70.9097ZM70.736 61.4998C70.736 61.4623 70.7476 61.4312 70.7708 61.4064C70.7947 61.3808 70.8255 61.3677 70.863 61.3669C70.9005 61.3661 70.9313 61.3777 70.9552 61.4016C70.98 61.4256 70.992 61.4559 70.9912 61.4926C70.9912 61.5294 70.9788 61.5601 70.954 61.5849C70.9301 61.6088 70.8997 61.6212 70.863 61.622C70.8263 61.6228 70.7959 61.612 70.772 61.5897C70.748 61.5665 70.736 61.5366 70.736 61.4998ZM71.5781 63.1601C71.4895 63.1585 71.4124 63.1409 71.3469 63.1074C71.2823 63.073 71.2292 63.0271 71.1876 62.9696C71.1469 62.9113 71.1178 62.845 71.1002 62.7708C71.0826 62.6965 71.0774 62.6186 71.0846 62.5372L71.0894 62.4857C71.0974 62.4026 71.1178 62.3212 71.1505 62.2413C71.1832 62.1607 71.2268 62.088 71.2811 62.0233C71.3362 61.9586 71.4008 61.9075 71.4751 61.87C71.5502 61.8316 71.6332 61.8137 71.7243 61.8161C71.8145 61.8177 71.8896 61.8368 71.9495 61.8736C72.0094 61.9103 72.0561 61.959 72.0896 62.0197C72.124 62.0796 72.1463 62.1471 72.1567 62.2221C72.1671 62.2964 72.1679 62.3727 72.1591 62.4509L72.1459 62.5504H71.2056L71.2343 62.3695L71.9519 62.3707L71.9555 62.3515C71.9634 62.294 71.9602 62.2385 71.9459 62.185C71.9315 62.1315 71.9051 62.0876 71.8668 62.0532C71.8293 62.0181 71.7786 61.9997 71.7147 61.9981C71.6484 61.9957 71.5909 62.0093 71.5422 62.0389C71.4935 62.0676 71.4528 62.1067 71.42 62.1563C71.3873 62.205 71.3613 62.2585 71.3422 62.3168C71.3238 62.3743 71.311 62.4306 71.3038 62.4857L71.299 62.536C71.2942 62.5871 71.2958 62.6386 71.3038 62.6905C71.3118 62.7424 71.327 62.7899 71.3493 62.8331C71.3725 62.8754 71.4044 62.9101 71.4452 62.9373C71.4859 62.9636 71.5362 62.9776 71.5961 62.9792C71.6688 62.9808 71.7338 62.9652 71.7913 62.9325C71.8496 62.8989 71.9027 62.8566 71.9507 62.8055L72.074 62.9109C72.0365 62.966 71.9918 63.0123 71.9399 63.0499C71.888 63.0874 71.8313 63.1153 71.7698 63.1337C71.7083 63.1521 71.6444 63.1609 71.5781 63.1601ZM73.0922 62.7851C73.0994 62.7356 73.0902 62.6969 73.0647 62.6689C73.0399 62.641 73.0072 62.6198 72.9664 62.6055C72.9265 62.5903 72.8874 62.5779 72.8491 62.5683C72.8011 62.5563 72.7528 62.5416 72.7041 62.524C72.6554 62.5064 72.6107 62.4841 72.57 62.4569C72.53 62.429 72.4981 62.3946 72.4741 62.3539C72.451 62.3124 72.4406 62.2621 72.443 62.203C72.4462 62.1391 72.4629 62.0828 72.4933 62.0341C72.5244 61.9854 72.5644 61.9446 72.6131 61.9119C72.6626 61.8792 72.7165 61.8548 72.7748 61.8388C72.8331 61.8229 72.891 61.8153 72.9485 61.8161C73.0299 61.8177 73.1038 61.8344 73.1701 61.8664C73.2372 61.8983 73.2903 61.9442 73.3294 62.0041C73.3685 62.064 73.3869 62.1367 73.3845 62.2221L73.1701 62.2209C73.1717 62.1754 73.1625 62.1363 73.1425 62.1036C73.1226 62.0708 73.095 62.0457 73.0599 62.0281C73.0247 62.0097 72.9848 62.0001 72.9401 61.9993C72.8978 61.9985 72.8562 62.0053 72.8155 62.0197C72.7748 62.0333 72.7401 62.0548 72.7113 62.0844C72.6826 62.1131 72.665 62.1507 72.6586 62.197C72.6538 62.2313 72.659 62.2597 72.6742 62.282C72.6893 62.3036 72.7101 62.3212 72.7365 62.3347C72.7636 62.3475 72.792 62.3583 72.8215 62.3671C72.8519 62.3751 72.8794 62.3823 72.9042 62.3886C72.9696 62.407 73.0343 62.4302 73.0982 62.4581C73.1621 62.4861 73.214 62.5248 73.2539 62.5743C73.2939 62.623 73.3118 62.6873 73.3078 62.7672C73.3046 62.835 73.2867 62.8941 73.2539 62.9445C73.222 62.994 73.1805 63.0351 73.1294 63.0678C73.079 63.0998 73.0235 63.1233 72.9629 63.1385C72.9022 63.1537 72.8415 63.1609 72.7808 63.1601C72.6969 63.1585 72.6187 63.1413 72.546 63.1086C72.4741 63.075 72.4166 63.0271 72.3735 62.9648C72.3304 62.9017 72.31 62.8251 72.3124 62.7348L72.5292 62.736C72.5292 62.7879 72.54 62.8319 72.5616 62.8678C72.5839 62.9029 72.6147 62.9297 72.6538 62.948C72.6929 62.9664 72.7377 62.976 72.788 62.9768C72.8303 62.9776 72.8734 62.972 72.9173 62.96C72.9621 62.948 73.0004 62.9281 73.0323 62.9001C73.0651 62.8714 73.085 62.8331 73.0922 62.7851ZM74.5356 61.392H74.7441L75.0519 62.8115L75.8509 61.392H76.0809L75.0902 63.1361H74.919L74.5356 61.392ZM74.4602 61.392H74.653L74.4997 62.4629L74.3823 63.1361H74.1571L74.4602 61.392ZM75.9515 61.392H76.1456L75.8425 63.1361H75.6185L75.7383 62.4437L75.9515 61.392ZM76.9853 62.9145L77.0931 62.2449C77.0987 62.1954 77.0939 62.1519 77.0787 62.1143C77.0643 62.0768 77.04 62.0477 77.0056 62.0269C76.9721 62.0061 76.9298 61.9949 76.8786 61.9934C76.8339 61.9926 76.79 61.9997 76.7469 62.0149C76.7046 62.0301 76.6678 62.0528 76.6367 62.0832C76.6055 62.1135 76.5852 62.1519 76.5756 62.1982L76.36 62.1994C76.3656 62.1347 76.3859 62.0784 76.4211 62.0305C76.4562 61.9818 76.5001 61.9414 76.5528 61.9095C76.6055 61.8768 76.6622 61.8528 76.7229 61.8376C76.7836 61.8217 76.8427 61.8141 76.9002 61.8149C76.9873 61.8165 77.0627 61.8352 77.1266 61.8712C77.1913 61.9063 77.24 61.9558 77.2727 62.0197C77.3055 62.0836 77.3175 62.1603 77.3087 62.2497L77.2093 62.8534C77.2021 62.8973 77.1977 62.9417 77.1961 62.9864C77.1953 63.0303 77.2005 63.0734 77.2117 63.1157L77.2093 63.1361L76.99 63.1373C76.9813 63.1006 76.9769 63.0634 76.9769 63.0259C76.9777 62.9884 76.9805 62.9512 76.9853 62.9145ZM77.1182 62.3503L77.0931 62.506L76.8882 62.5048C76.8451 62.5048 76.7996 62.508 76.7517 62.5144C76.7038 62.5208 76.6582 62.5328 76.6151 62.5504C76.572 62.5679 76.5357 62.5935 76.5061 62.627C76.4766 62.6598 76.4586 62.7025 76.4522 62.7552C76.4474 62.7983 76.4526 62.8358 76.4678 62.8678C76.4838 62.8989 76.5077 62.9233 76.5397 62.9409C76.5716 62.9584 76.6087 62.9676 76.6511 62.9684C76.7062 62.9692 76.7605 62.9584 76.814 62.9361C76.8675 62.9137 76.9142 62.8818 76.9541 62.8402C76.994 62.7987 77.0216 62.7508 77.0368 62.6965L77.1158 62.8031C77.1006 62.8558 77.0759 62.9045 77.0416 62.9492C77.0072 62.9932 76.9665 63.0311 76.9194 63.063C76.8731 63.095 76.8231 63.1197 76.7696 63.1373C76.7161 63.1549 76.6626 63.1633 76.6091 63.1625C76.5365 63.1609 76.4706 63.1445 76.4115 63.1133C76.3532 63.0822 76.3069 63.0387 76.2725 62.9828C76.239 62.9261 76.2246 62.8602 76.2294 62.7851C76.2342 62.7029 76.2558 62.6338 76.2941 62.5779C76.3324 62.522 76.3815 62.4773 76.4414 62.4437C76.5021 62.4102 76.5684 62.3862 76.6403 62.3719C76.7121 62.3567 76.7832 62.3491 76.8535 62.3491L77.1182 62.3503ZM77.8896 62.1299L77.7147 63.1361H77.4979L77.7231 61.84H77.928L77.8896 62.1299ZM77.789 62.439L77.7004 62.4366C77.7116 62.3591 77.7319 62.2832 77.7615 62.209C77.7918 62.1339 77.8313 62.0664 77.8801 62.0065C77.9296 61.9466 77.9883 61.8995 78.0561 61.8652C78.1248 61.83 78.2031 61.8137 78.2909 61.8161C78.3604 61.8177 78.4183 61.8312 78.4646 61.8568C78.5117 61.8816 78.5485 61.9155 78.5748 61.9586C78.6012 62.0017 78.6187 62.0516 78.6275 62.1083C78.6363 62.1642 78.6371 62.2237 78.6299 62.2868L78.4886 63.1361H78.2706L78.4143 62.2832C78.4199 62.2313 78.4179 62.1846 78.4083 62.1431C78.3995 62.1008 78.3796 62.0672 78.3484 62.0425C78.3181 62.0169 78.2741 62.0033 78.2167 62.0017C78.156 62.0001 78.1013 62.0117 78.0525 62.0365C78.0038 62.0612 77.9611 62.0952 77.9244 62.1383C77.8884 62.1806 77.8589 62.2281 77.8357 62.2808C77.8134 62.3327 77.7978 62.3855 77.789 62.439ZM79.5966 62.9145L79.7044 62.2449C79.71 62.1954 79.7052 62.1519 79.69 62.1143C79.6756 62.0768 79.6513 62.0477 79.6169 62.0269C79.5834 62.0061 79.5411 61.9949 79.49 61.9934C79.4453 61.9926 79.4013 61.9997 79.3582 62.0149C79.3159 62.0301 79.2792 62.0528 79.248 62.0832C79.2169 62.1135 79.1965 62.1519 79.1869 62.1982L78.9713 62.1994C78.9769 62.1347 78.9973 62.0784 79.0324 62.0305C79.0675 61.9818 79.1115 61.9414 79.1642 61.9095C79.2169 61.8768 79.2736 61.8528 79.3343 61.8376C79.3949 61.8217 79.454 61.8141 79.5115 61.8149C79.5986 61.8165 79.674 61.8352 79.7379 61.8712C79.8026 61.9063 79.8513 61.9558 79.8841 62.0197C79.9168 62.0836 79.9288 62.1603 79.92 62.2497L79.8206 62.8534C79.8134 62.8973 79.809 62.9417 79.8074 62.9864C79.8066 63.0303 79.8118 63.0734 79.823 63.1157L79.8206 63.1361L79.6014 63.1373C79.5926 63.1006 79.5882 63.0634 79.5882 63.0259C79.589 62.9884 79.5918 62.9512 79.5966 62.9145ZM79.7295 62.3503L79.7044 62.506L79.4996 62.5048C79.4564 62.5048 79.4109 62.508 79.363 62.5144C79.3151 62.5208 79.2696 62.5328 79.2264 62.5504C79.1833 62.5679 79.147 62.5935 79.1174 62.627C79.0879 62.6598 79.0699 62.7025 79.0635 62.7552C79.0587 62.7983 79.0639 62.8358 79.0791 62.8678C79.0951 62.8989 79.119 62.9233 79.151 62.9409C79.1829 62.9584 79.2201 62.9676 79.2624 62.9684C79.3175 62.9692 79.3718 62.9584 79.4253 62.9361C79.4788 62.9137 79.5255 62.8818 79.5654 62.8402C79.6054 62.7987 79.6329 62.7508 79.6481 62.6965L79.7271 62.8031C79.712 62.8558 79.6872 62.9045 79.6529 62.9492C79.6185 62.9932 79.5778 63.0311 79.5307 63.063C79.4844 63.095 79.4345 63.1197 79.381 63.1373C79.3275 63.1549 79.274 63.1633 79.2205 63.1625C79.1478 63.1609 79.0819 63.1445 79.0228 63.1133C78.9645 63.0822 78.9182 63.0387 78.8839 62.9828C78.8503 62.9261 78.8359 62.8602 78.8407 62.7851C78.8455 62.7029 78.8671 62.6338 78.9054 62.5779C78.9438 62.522 78.9929 62.4773 79.0528 62.4437C79.1134 62.4102 79.1797 62.3862 79.2516 62.3719C79.3235 62.3567 79.3945 62.3491 79.4648 62.3491L79.7295 62.3503ZM81.1478 61.84H81.3467L81.1298 63.1074C81.1147 63.2152 81.0799 63.3102 81.0256 63.3924C80.9721 63.4747 80.9018 63.5386 80.8148 63.5841C80.7286 63.6296 80.6299 63.6512 80.5189 63.6488C80.4606 63.6472 80.4035 63.6372 80.3476 63.6188C80.2917 63.6005 80.2402 63.5745 80.1931 63.541C80.146 63.5074 80.1065 63.4663 80.0745 63.4176L80.1991 63.2882C80.2366 63.3417 80.281 63.3841 80.3321 63.4152C80.384 63.4472 80.4431 63.4643 80.5093 63.4667C80.582 63.4683 80.6463 63.4547 80.7022 63.426C80.7589 63.398 80.8048 63.3577 80.84 63.305C80.8759 63.2523 80.8995 63.1904 80.9106 63.1193L81.0807 62.1143L81.1478 61.84ZM80.1692 62.512L80.1728 62.4857C80.1823 62.4058 80.2011 62.326 80.2291 62.2461C80.2578 62.1662 80.2961 62.0936 80.344 62.0281C80.392 61.9618 80.4507 61.9095 80.5201 61.8712C80.5896 61.832 80.6707 61.8133 80.7633 61.8149C80.8471 61.8173 80.917 61.8368 80.9729 61.8736C81.0288 61.9103 81.0727 61.959 81.1047 62.0197C81.1374 62.0796 81.1594 62.1455 81.1706 62.2174C81.1825 62.2892 81.1861 62.3615 81.1813 62.4342L81.1682 62.5444C81.1546 62.6218 81.1322 62.6977 81.1011 62.772C81.0699 62.8462 81.0296 62.9133 80.9801 62.9732C80.9306 63.0323 80.8715 63.079 80.8028 63.1133C80.7349 63.1477 80.6575 63.1637 80.5704 63.1613C80.485 63.1581 80.4143 63.1361 80.3584 63.0954C80.3033 63.0547 80.2606 63.0023 80.2302 62.9385C80.1999 62.8738 80.1803 62.8043 80.1716 62.73C80.1628 62.655 80.162 62.5823 80.1692 62.512ZM80.3908 62.4845L80.3872 62.5108C80.3816 62.5587 80.38 62.6091 80.3824 62.6618C80.3848 62.7145 80.394 62.7644 80.4099 62.8115C80.4259 62.8578 80.4515 62.8961 80.4866 62.9265C80.5225 62.956 80.5712 62.9716 80.6327 62.9732C80.6982 62.9756 80.7589 62.9612 80.8148 62.9301C80.8707 62.8989 80.9186 62.8574 80.9585 62.8055C80.9985 62.7536 81.0272 62.6973 81.0448 62.6366L81.0915 62.3455C81.0939 62.3016 81.0887 62.2593 81.0759 62.2185C81.0632 62.1778 81.044 62.1415 81.0184 62.1095C80.9937 62.0776 80.9633 62.052 80.9274 62.0329C80.8915 62.0137 80.8507 62.0037 80.8052 62.0029C80.7381 62.0005 80.6802 62.0137 80.6315 62.0425C80.5828 62.0704 80.5417 62.1083 80.5082 62.1563C80.4754 62.2042 80.4495 62.2569 80.4303 62.3144C80.4111 62.3719 80.3979 62.4286 80.3908 62.4845ZM81.9947 63.1601C81.9061 63.1585 81.829 63.1409 81.7635 63.1074C81.6988 63.073 81.6457 63.0271 81.6042 62.9696C81.5635 62.9113 81.5343 62.845 81.5167 62.7708C81.4992 62.6965 81.494 62.6186 81.5012 62.5372L81.506 62.4857C81.514 62.4026 81.5343 62.3212 81.5671 62.2413C81.5998 62.1607 81.6433 62.088 81.6976 62.0233C81.7527 61.9586 81.8174 61.9075 81.8917 61.87C81.9667 61.8316 82.0498 61.8137 82.1408 61.8161C82.2311 61.8177 82.3061 61.8368 82.366 61.8736C82.4259 61.9103 82.4726 61.959 82.5062 62.0197C82.5405 62.0796 82.5629 62.1471 82.5733 62.2221C82.5836 62.2964 82.5844 62.3727 82.5757 62.4509L82.5625 62.5504H81.6222L81.6509 62.3695L82.3684 62.3707L82.372 62.3515C82.38 62.294 82.3768 62.2385 82.3624 62.185C82.3481 62.1315 82.3217 62.0876 82.2834 62.0532C82.2458 62.0181 82.1951 61.9997 82.1312 61.9981C82.065 61.9957 82.0075 62.0093 81.9588 62.0389C81.91 62.0676 81.8693 62.1067 81.8366 62.1563C81.8038 62.205 81.7779 62.2585 81.7587 62.3168C81.7403 62.3743 81.7276 62.4306 81.7204 62.4857L81.7156 62.536C81.7108 62.5871 81.7124 62.6386 81.7204 62.6905C81.7284 62.7424 81.7435 62.7899 81.7659 62.8331C81.7891 62.8754 81.821 62.9101 81.8617 62.9373C81.9025 62.9636 81.9528 62.9776 82.0127 62.9792C82.0853 62.9808 82.1504 62.9652 82.2079 62.9325C82.2662 62.8989 82.3193 62.8566 82.3672 62.8055L82.4906 62.9109C82.4531 62.966 82.4084 63.0123 82.3564 63.0499C82.3045 63.0874 82.2478 63.1153 82.1864 63.1337C82.1249 63.1521 82.061 63.1609 81.9947 63.1601ZM83.1015 62.1107L82.9242 63.1361H82.7062L82.9314 61.84H83.1374L83.1015 62.1107ZM83.0045 62.439L82.9063 62.4366C82.9174 62.3559 82.9374 62.278 82.9662 62.203C82.9949 62.1279 83.0332 62.0608 83.0811 62.0017C83.1299 61.9426 83.1886 61.8963 83.2572 61.8628C83.3259 61.8292 83.4054 61.8137 83.4956 61.8161C83.5627 61.8177 83.6194 61.8308 83.6657 61.8556C83.712 61.8796 83.7492 61.9127 83.7771 61.955C83.8059 61.9965 83.825 62.0445 83.8346 62.0988C83.845 62.1531 83.8474 62.211 83.8418 62.2725L83.6968 63.1361H83.48L83.6238 62.282C83.6302 62.2277 83.627 62.1798 83.6142 62.1383C83.6022 62.0968 83.5795 62.064 83.5459 62.0401C83.5124 62.0153 83.4669 62.0021 83.4094 62.0005C83.3447 61.9989 83.2884 62.0101 83.2405 62.0341C83.1933 62.058 83.1538 62.0912 83.1219 62.1335C83.0907 62.175 83.0656 62.2225 83.0464 62.276C83.0272 62.3288 83.0133 62.3831 83.0045 62.439ZM83.8418 62.3168L83.6861 62.3623C83.6956 62.288 83.7156 62.2178 83.746 62.1515C83.7771 62.0852 83.8174 62.0265 83.8669 61.9754C83.9165 61.9243 83.974 61.8843 84.0394 61.8556C84.1049 61.8269 84.1772 61.8133 84.2562 61.8149C84.3265 61.8165 84.386 61.8296 84.4347 61.8544C84.4834 61.8784 84.5222 61.9115 84.5509 61.9538C84.5805 61.9961 84.6 62.0457 84.6096 62.1024C84.62 62.1583 84.6216 62.2189 84.6144 62.2844L84.4719 63.1361H84.2539L84.3976 62.2808C84.404 62.2257 84.4012 62.1774 84.3892 62.1359C84.378 62.0944 84.3557 62.062 84.3221 62.0389C84.2886 62.0149 84.2423 62.0025 84.1832 62.0017C84.1361 62.0001 84.0929 62.0073 84.0538 62.0233C84.0147 62.0393 83.9807 62.062 83.952 62.0916C83.9232 62.1203 83.8993 62.1539 83.8801 62.1922C83.8618 62.2305 83.849 62.2721 83.8418 62.3168ZM85.3439 63.1601C85.2553 63.1585 85.1782 63.1409 85.1127 63.1074C85.048 63.073 84.9949 63.0271 84.9534 62.9696C84.9127 62.9113 84.8835 62.845 84.866 62.7708C84.8484 62.6965 84.8432 62.6186 84.8504 62.5372L84.8552 62.4857C84.8632 62.4026 84.8835 62.3212 84.9163 62.2413C84.949 62.1607 84.9925 62.088 85.0468 62.0233C85.1019 61.9586 85.1666 61.9075 85.2409 61.87C85.316 61.8316 85.399 61.8137 85.49 61.8161C85.5803 61.8177 85.6553 61.8368 85.7152 61.8736C85.7751 61.9103 85.8218 61.959 85.8554 62.0197C85.8897 62.0796 85.9121 62.1471 85.9225 62.2221C85.9328 62.2964 85.9336 62.3727 85.9249 62.4509L85.9117 62.5504H84.9714L85.0001 62.3695L85.7176 62.3707L85.7212 62.3515C85.7292 62.294 85.726 62.2385 85.7116 62.185C85.6973 62.1315 85.6709 62.0876 85.6326 62.0532C85.5951 62.0181 85.5443 61.9997 85.4805 61.9981C85.4142 61.9957 85.3567 62.0093 85.308 62.0389C85.2593 62.0676 85.2185 62.1067 85.1858 62.1563C85.153 62.205 85.1271 62.2585 85.1079 62.3168C85.0896 62.3743 85.0768 62.4306 85.0696 62.4857L85.0648 62.536C85.06 62.5871 85.0616 62.6386 85.0696 62.6905C85.0776 62.7424 85.0927 62.7899 85.1151 62.8331C85.1383 62.8754 85.1702 62.9101 85.2109 62.9373C85.2517 62.9636 85.302 62.9776 85.3619 62.9792C85.4345 62.9808 85.4996 62.9652 85.5571 62.9325C85.6154 62.8989 85.6685 62.8566 85.7164 62.8055L85.8398 62.9109C85.8023 62.966 85.7576 63.0123 85.7057 63.0499C85.6537 63.0874 85.597 63.1153 85.5356 63.1337C85.4741 63.1521 85.4102 63.1609 85.3439 63.1601ZM86.4495 62.1299L86.2746 63.1361H86.0578L86.283 61.84H86.4879L86.4495 62.1299ZM86.3489 62.439L86.2603 62.4366C86.2714 62.3591 86.2918 62.2832 86.3214 62.209C86.3517 62.1339 86.3912 62.0664 86.4399 62.0065C86.4895 61.9466 86.5481 61.8995 86.616 61.8652C86.6847 61.83 86.763 61.8137 86.8508 61.8161C86.9203 61.8177 86.9782 61.8312 87.0245 61.8568C87.0716 61.8816 87.1083 61.9155 87.1347 61.9586C87.1611 62.0017 87.1786 62.0516 87.1874 62.1083C87.1962 62.1642 87.197 62.2237 87.1898 62.2868L87.0485 63.1361H86.8304L86.9742 62.2832C86.9798 62.2313 86.9778 62.1846 86.9682 62.1431C86.9594 62.1008 86.9394 62.0672 86.9083 62.0425C86.878 62.0169 86.834 62.0033 86.7765 62.0017C86.7158 62.0001 86.6611 62.0117 86.6124 62.0365C86.5637 62.0612 86.521 62.0952 86.4843 62.1383C86.4483 62.1806 86.4188 62.2281 86.3956 62.2808C86.3733 62.3327 86.3577 62.3855 86.3489 62.439ZM88.1265 61.84L88.0966 62.0101H87.415L87.4449 61.84H88.1265ZM87.73 61.525H87.9456L87.7264 62.8175C87.724 62.8454 87.7248 62.8706 87.7288 62.8929C87.7328 62.9153 87.7424 62.9333 87.7576 62.9468C87.7728 62.9596 87.7959 62.9664 87.8271 62.9672C87.8446 62.9672 87.8618 62.966 87.8786 62.9636C87.8961 62.9604 87.9137 62.9576 87.9313 62.9552L87.9157 63.1373C87.8901 63.1445 87.8638 63.1497 87.8366 63.1529C87.8103 63.1569 87.7839 63.1585 87.7576 63.1577C87.6913 63.1569 87.6394 63.1401 87.6019 63.1074C87.5643 63.0746 87.5388 63.0323 87.5252 62.9804C87.5116 62.9285 87.5076 62.873 87.5132 62.8139L87.73 61.525Z" fill="#F4F7FE"/>
</g>
<defs>
<filter id="filter0_d_2789_6044" x="-4" y="0" width="998" height="230" filterUnits="userSpaceOnUse" color-interpolation-filters="sRGB">
<feFlood flood-opacity="0" result="BackgroundImageFix"/>
<feColorMatrix in="SourceAlpha" type="matrix" values="0 0 0 0 0 0 0 0 0 0 0 0 0 0 0 0 0 0 127 0" result="hardAlpha"/>
<feOffset dy="4"/>
<feGaussianBlur stdDeviation="2"/>
<feComposite in2="hardAlpha" operator="out"/>
<feColorMatrix type="matrix" values="0 0 0 0 0 0 0 0 0 0 0 0 0 0 0 0 0 0 0.25 0"/>
<feBlend mode="normal" in2="BackgroundImageFix" result="effect1_dropShadow_2789_6044"/>
<feBlend mode="normal" in="SourceGraphic" in2="effect1_dropShadow_2789_6044" result="shape"/>
</filter>
<linearGradient id="paint0_linear_2789_6044" x1="853.5" y1="54.5" x2="1081.5" y2="350" gradientUnits="userSpaceOnUse">
<stop stop-color="#6366F1"/>
<stop offset="1" stop-color="#6366F1" stop-opacity="0"/>
</linearGradient>
</defs>
</svg>
