<svg width="42" height="42" viewBox="0 0 42 42" fill="none" xmlns="http://www.w3.org/2000/svg">
<g filter="url(#filter0_d_2184_5791)">
<path fill-rule="evenodd" clip-rule="evenodd" d="M22.2669 7.50697C22.2669 10.6856 19.6901 13.2623 16.5115 13.2623C13.3329 13.2623 10.7562 10.6856 10.7562 7.50697C10.7562 4.32838 13.3329 1.75163 16.5115 1.75163C19.6901 1.75163 22.2669 4.32838 22.2669 7.50697ZM24.0185 7.50697C24.0185 11.653 20.6575 15.0139 16.5115 15.0139C12.3655 15.0139 9.00455 11.653 9.00455 7.50697C9.00455 3.36098 12.3655 0 16.5115 0C20.6575 0 24.0185 3.36098 24.0185 7.50697ZM11.507 19.268H21.5163C24.6949 19.268 27.2716 21.8448 27.2716 25.0233C27.2716 28.2019 24.6948 30.7787 21.5163 30.7787H11.507C8.32838 30.7787 5.75163 28.2019 5.75163 25.0233C5.75163 21.8448 8.32838 19.268 11.507 19.268ZM4 25.0233C4 20.8774 7.36099 17.5164 11.507 17.5164H21.5163C25.6623 17.5164 29.0232 20.8774 29.0232 25.0233C29.0232 29.1693 25.6622 32.5303 21.5163 32.5303H11.507C7.36098 32.5303 4 29.1693 4 25.0233Z" fill="#070A11"/>
<mask id="path-2-outside-1_2184_5791" maskUnits="userSpaceOnUse" x="18.5166" y="14.5166" width="20" height="20" fill="black">
<rect fill="white" x="18.5166" y="14.5166" width="20" height="20"/>
<path fill-rule="evenodd" clip-rule="evenodd" d="M29.3824 17.5166H27.4163V23.4151H21.5166V25.3812H27.4163V31.2794H29.3824V25.3812H35.2794V23.4151H29.3824V17.5166Z"/>
</mask>
<path fill-rule="evenodd" clip-rule="evenodd" d="M29.3824 17.5166H27.4163V23.4151H21.5166V25.3812H27.4163V31.2794H29.3824V25.3812H35.2794V23.4151H29.3824V17.5166Z" fill="#6366F1"/>
<path d="M27.4163 17.5166V15.0143H24.914V17.5166H27.4163ZM29.3824 17.5166H31.8848V15.0143H29.3824V17.5166ZM27.4163 23.4151V25.9174H29.9187V23.4151H27.4163ZM21.5166 23.4151V20.9128H19.0143V23.4151H21.5166ZM21.5166 25.3812H19.0143V27.8835H21.5166V25.3812ZM27.4163 25.3812H29.9187V22.8789H27.4163V25.3812ZM27.4163 31.2794H24.914V33.7817H27.4163V31.2794ZM29.3824 31.2794V33.7817H31.8848V31.2794H29.3824ZM29.3824 25.3812V22.8789H26.8801V25.3812H29.3824ZM35.2794 25.3812V27.8835H37.7817V25.3812H35.2794ZM35.2794 23.4151H37.7817V20.9128H35.2794V23.4151ZM29.3824 23.4151H26.8801V25.9174H29.3824V23.4151ZM27.4163 20.0189H29.3824V15.0143H27.4163V20.0189ZM29.9187 23.4151V17.5166H24.914V23.4151H29.9187ZM21.5166 25.9174H27.4163V20.9128H21.5166V25.9174ZM24.0189 25.3812V23.4151H19.0143V25.3812H24.0189ZM27.4163 22.8789H21.5166V27.8835H27.4163V22.8789ZM29.9187 31.2794V25.3812H24.914V31.2794H29.9187ZM29.3824 28.7771H27.4163V33.7817H29.3824V28.7771ZM26.8801 25.3812V31.2794H31.8848V25.3812H26.8801ZM35.2794 22.8789H29.3824V27.8835H35.2794V22.8789ZM32.7771 23.4151V25.3812H37.7817V23.4151H32.7771ZM29.3824 25.9174H35.2794V20.9128H29.3824V25.9174ZM26.8801 17.5166V23.4151H31.8848V17.5166H26.8801Z" fill="white" mask="url(#path-2-outside-1_2184_5791)"/>
</g>
<defs>
<filter id="filter0_d_2184_5791" x="0" y="0" width="41.7812" height="41.7817" filterUnits="userSpaceOnUse" color-interpolation-filters="sRGB">
<feFlood flood-opacity="0" result="BackgroundImageFix"/>
<feColorMatrix in="SourceAlpha" type="matrix" values="0 0 0 0 0 0 0 0 0 0 0 0 0 0 0 0 0 0 127 0" result="hardAlpha"/>
<feOffset dy="4"/>
<feGaussianBlur stdDeviation="2"/>
<feComposite in2="hardAlpha" operator="out"/>
<feColorMatrix type="matrix" values="0 0 0 0 0 0 0 0 0 0 0 0 0 0 0 0 0 0 0.25 0"/>
<feBlend mode="normal" in2="BackgroundImageFix" result="effect1_dropShadow_2184_5791"/>
<feBlend mode="normal" in="SourceGraphic" in2="effect1_dropShadow_2184_5791" result="shape"/>
</filter>
</defs>
</svg>
