<svg width="320" height="960" viewBox="0 0 320 960" fill="none" xmlns="http://www.w3.org/2000/svg">
<g clip-path="url(#clip0_2184_6755)">
<rect width="320" height="960" fill="url(#paint0_linear_2184_6755)"/>
<path d="M-75 722.5C89.4726 589.67 260.706 549.388 395.5 545" stroke="#F8F9FB" stroke-opacity="0.78" stroke-width="0.5"/>
<path d="M-75 755C89.4726 622.17 260.706 581.888 395.5 577.5" stroke="#F8F9FB" stroke-opacity="0.9" stroke-width="0.7"/>
<path d="M-75 787.5C89.4726 654.67 260.706 614.388 395.5 610" stroke="#F8F9FB" stroke-opacity="0.78" stroke-width="0.5"/>
<path d="M-75 820C89.4726 687.17 260.706 646.888 395.5 642.5" stroke="#F8F9FB"/>
<path d="M-75 852.5C89.4726 719.67 260.706 679.388 395.5 675" stroke="#F8F9FB" stroke-width="0.8"/>
<path d="M-75 885C89.4726 752.17 260.706 711.888 395.5 707.5" stroke="#F8F9FB"/>
<path d="M-75 917.5C89.4726 784.67 260.706 744.388 395.5 740" stroke="#F8F9FB" stroke-opacity="0.6" stroke-width="0.6"/>
<path d="M-75 950C89.4726 817.17 260.706 776.888 395.5 772.5" stroke="#F8F9FB"/>
<path d="M-75 982.499C89.4726 849.669 260.706 809.387 395.5 805" stroke="#F8F9FB"/>
<path d="M-75 1015C89.4726 882.169 260.706 841.887 395.5 837.5" stroke="#F8F9FB"/>
<path d="M-75 1047.5C89.4726 914.669 260.706 874.387 395.5 870" stroke="#F8F9FB"/>
<path d="M-75 1080C89.4726 947.169 260.706 906.887 395.5 902.5" stroke="#F8F9FB"/>
<path d="M-75 1112.5C89.4726 979.669 260.706 939.387 395.5 935" stroke="#F8F9FB"/>
<path d="M51.3797 64.6899H56.992L55.5436 67.4961H52.3754C41.5129 73.0179 46.039 88.7685 60.2507 83.4278V77.4534H55.2721L57.2635 74.6472H63.3284V85.4192C42.056 93.5661 36.8058 70.6643 51.3797 64.6899Z" fill="#F8F9FB" stroke="#F8F9FB" stroke-width="0.181042"/>
<path d="M80.6213 64.6899H75.009L76.4573 67.4961H79.6256C90.4881 73.0179 85.962 88.7685 71.7502 83.4278V77.4534H76.7289L74.7374 74.6472H68.6725V85.4192C89.9449 93.5661 95.1951 70.6643 80.6213 64.6899Z" fill="#F8F9FB" stroke="#F8F9FB" stroke-width="0.181042"/>
<path d="M67.5853 56H64.3266L53.8262 73.0179H64.4171V77.9966H67.7664V73.0179H72.4735L70.8441 70.3928H67.5853V56Z" fill="#A5B4FC" stroke="#A5B4FC" stroke-width="0.181042"/>
<path d="M64.5077 70.3929V60.1641L57.9902 70.3929H64.5077Z" fill="#6366F1" stroke="#6366F1" stroke-width="0.181042"/>
<path d="M69.124 62.4268V58.1724L78.7192 73.2893H74.1932L72.5638 70.3022H74.1027L69.124 62.4268Z" fill="#F8F9FB" stroke="#F8F9FB" stroke-width="0.181042"/>
<path d="M42.1951 95.043H45.8566C46.0185 95.0488 46.1516 95.1095 46.2557 95.2252C46.3656 95.3409 46.4205 95.4797 46.4205 95.6417C46.3916 95.9887 46.2036 96.1767 45.8566 96.2057H42.4901C42.2703 96.2172 42.0881 96.3011 41.9435 96.4573C41.7989 96.6134 41.6919 96.7928 41.6225 96.9952C41.5589 97.1919 41.527 97.3943 41.527 97.6026C41.527 97.8108 41.5589 98.0161 41.6225 98.2186C41.6919 98.4152 41.7989 98.5917 41.9435 98.7478C42.0881 98.904 42.2703 98.9879 42.4901 98.9995H45.1277C45.2319 98.9937 45.2868 98.9358 45.2926 98.8259V98.3227C45.2868 98.207 45.2319 98.1492 45.1277 98.1492H42.9066C42.7446 98.1492 42.6058 98.0942 42.4901 97.9843C42.3802 97.8686 42.3253 97.7298 42.3253 97.5679C42.3253 97.4059 42.3802 97.2671 42.4901 97.1514C42.6058 97.0415 42.7446 96.9865 42.9066 96.9865H45.8739C46.0359 96.9865 46.1747 97.0415 46.2904 97.1514C46.3945 97.2613 46.4494 97.3943 46.4552 97.5505V97.5679V99.5981C46.4494 99.7543 46.3945 99.8844 46.2904 99.9886C46.1805 100.098 46.0474 100.156 45.8913 100.162H42.1951C41.7902 100.139 41.4547 99.9857 41.1887 99.7022C40.9284 99.413 40.7404 99.0862 40.6247 98.7218C40.5148 98.3574 40.4598 97.9843 40.4598 97.6026C40.4598 97.2208 40.5177 96.8477 40.6334 96.4833C40.7491 96.1189 40.937 95.795 41.1973 95.5115C41.4576 95.2223 41.7902 95.0662 42.1951 95.043ZM52.679 95.043C52.974 95.0488 53.2372 95.1414 53.4685 95.3207C53.6999 95.5 53.885 95.714 54.0238 95.9627C54.1684 96.2114 54.2754 96.4746 54.3448 96.7523C54.4143 97.0299 54.449 97.3133 54.449 97.6026C54.449 97.9843 54.3882 98.3603 54.2668 98.7305C54.1511 99.0949 53.9573 99.4188 53.6854 99.7022C53.4194 99.9857 53.0839 100.139 52.679 100.162H49.6509C49.246 100.145 48.9076 99.9943 48.6358 99.7109C48.3639 99.4275 48.1702 99.1007 48.0545 98.7305C47.9446 98.3603 47.8896 97.9843 47.8896 97.6026C47.8896 97.2208 47.9475 96.8477 48.0631 96.4833C48.1788 96.1131 48.3697 95.7863 48.6358 95.5029C48.9076 95.2137 49.246 95.0604 49.6509 95.043H49.8158H52.5141H52.679ZM52.384 98.9995C52.6038 98.9879 52.786 98.9069 52.9306 98.7565C53.081 98.6003 53.188 98.421 53.2516 98.2186C53.3152 98.0161 53.3471 97.8108 53.3471 97.6026C53.3471 97.3943 53.3124 97.1919 53.2429 96.9952C53.1793 96.7928 53.0752 96.6134 52.9306 96.4573C52.786 96.3011 52.6038 96.2172 52.384 96.2057H49.9199C49.7001 96.2172 49.5179 96.3011 49.3733 96.4573C49.2287 96.6134 49.1217 96.7928 49.0522 96.9952C48.9886 97.1919 48.9568 97.3943 48.9568 97.6026C48.9568 97.8108 48.9886 98.0161 49.0522 98.2186C49.1159 98.421 49.22 98.6003 49.3646 98.7565C49.515 98.9069 49.7001 98.9879 49.9199 98.9995H52.384ZM60.1782 94.9042C60.3343 94.91 60.4674 94.9678 60.5773 95.0777C60.6872 95.1818 60.745 95.312 60.7508 95.4682V97.7153H61.2454C61.4073 97.7211 61.5403 97.7819 61.6445 97.8976C61.7544 98.0132 61.8093 98.1521 61.8093 98.314C61.8035 98.4702 61.7457 98.6032 61.6358 98.7131C61.5317 98.8173 61.4015 98.8722 61.2454 98.878H60.7508V99.7196C60.7161 100.067 60.5252 100.255 60.1782 100.284C60.0162 100.284 59.8745 100.232 59.753 100.127C59.6373 100.017 59.5795 99.8816 59.5795 99.7196V98.878H57.7401C57.3352 98.8548 56.9997 98.7189 56.7336 98.4702C56.4733 98.2157 56.2853 97.9062 56.1697 97.5418C56.0598 97.1774 56.0019 96.7899 55.9961 96.3792V95.4682C56.0019 95.312 56.0598 95.1818 56.1697 95.0777C56.2796 94.9678 56.4126 94.91 56.5688 94.9042C56.7307 94.9042 56.8696 94.9591 56.9852 95.0691C57.1009 95.1732 57.1617 95.3062 57.1674 95.4682V96.2751C57.1617 96.5122 57.1761 96.732 57.2108 96.9345C57.2513 97.1311 57.3439 97.3076 57.4885 97.4637C57.6331 97.6199 57.8153 97.7038 58.0351 97.7153H59.5795V95.4682C59.5853 95.3062 59.646 95.1732 59.7617 95.0691C59.8774 94.9591 60.0162 94.9042 60.1782 94.9042ZM64.9616 95.043H68.6231C68.785 95.0488 68.9181 95.1095 69.0222 95.2252C69.1321 95.3409 69.187 95.4797 69.187 95.6417C69.1581 95.9887 68.9701 96.1767 68.6231 96.2057H65.2566C65.0368 96.2172 64.8546 96.3011 64.71 96.4573C64.5654 96.6134 64.4584 96.7928 64.389 96.9952C64.3254 97.1919 64.2935 97.3943 64.2935 97.6026C64.2935 97.8108 64.3254 98.0161 64.389 98.2186C64.4584 98.4152 64.5654 98.5917 64.71 98.7478C64.8546 98.904 65.0368 98.9879 65.2566 98.9995H67.8942C67.9984 98.9937 68.0533 98.9358 68.0591 98.8259V98.3227C68.0533 98.207 67.9984 98.1492 67.8942 98.1492H65.6731C65.5111 98.1492 65.3723 98.0942 65.2566 97.9843C65.1467 97.8686 65.0918 97.7298 65.0918 97.5679C65.0918 97.4059 65.1467 97.2671 65.2566 97.1514C65.3723 97.0415 65.5111 96.9865 65.6731 96.9865H68.6404C68.8024 96.9865 68.9412 97.0415 69.0569 97.1514C69.161 97.2613 69.2159 97.3943 69.2217 97.5505V97.5679V99.5981C69.2159 99.7543 69.161 99.8844 69.0569 99.9886C68.947 100.098 68.8139 100.156 68.6578 100.162H64.9616C64.5567 100.139 64.2212 99.9857 63.9552 99.7022C63.6949 99.413 63.5069 99.0862 63.3912 98.7218C63.2813 98.3574 63.2263 97.9843 63.2263 97.6026C63.2263 97.2208 63.2842 96.8477 63.3999 96.4833C63.5156 96.1189 63.7035 95.795 63.9638 95.5115C64.2241 95.2223 64.5567 95.0662 64.9616 95.043ZM75.4455 95.043C75.7405 95.0488 76.0037 95.1414 76.235 95.3207C76.4664 95.5 76.6515 95.714 76.7903 95.9627C76.9349 96.2114 77.0419 96.4746 77.1113 96.7523C77.1808 97.0299 77.2155 97.3133 77.2155 97.6026C77.2155 97.9843 77.1547 98.3603 77.0333 98.7305C76.9176 99.0949 76.7238 99.4188 76.4519 99.7022C76.1859 99.9857 75.8504 100.139 75.4455 100.162H72.4174C72.0125 100.145 71.6741 99.9943 71.4023 99.7109C71.1304 99.4275 70.9366 99.1007 70.821 98.7305C70.7111 98.3603 70.6561 97.9843 70.6561 97.6026C70.6561 97.2208 70.714 96.8477 70.8296 96.4833C70.9453 96.1131 71.1362 95.7863 71.4023 95.5029C71.6741 95.2137 72.0125 95.0604 72.4174 95.043H72.5823H75.2806H75.4455ZM75.1505 98.9995C75.3703 98.9879 75.5525 98.9069 75.6971 98.7565C75.8475 98.6003 75.9545 98.421 76.0181 98.2186C76.0817 98.0161 76.1136 97.8108 76.1136 97.6026C76.1136 97.3943 76.0789 97.1919 76.0094 96.9952C75.9458 96.7928 75.8417 96.6134 75.6971 96.4573C75.5525 96.3011 75.3703 96.2172 75.1505 96.2057H72.6864C72.4666 96.2172 72.2844 96.3011 72.1398 96.4573C71.9952 96.6134 71.8882 96.7928 71.8187 96.9952C71.7551 97.1919 71.7233 97.3943 71.7233 97.6026C71.7233 97.8108 71.7551 98.0161 71.8187 98.2186C71.8824 98.421 71.9865 98.6003 72.1311 98.7565C72.2815 98.9069 72.4666 98.9879 72.6864 98.9995H75.1505ZM79.2312 94.9042C79.3931 94.9042 79.5319 94.9591 79.6476 95.0691C79.7633 95.1732 79.824 95.3062 79.8298 95.4682V97.5592C79.824 97.7963 79.8385 98.0161 79.8732 98.2186C79.9137 98.4152 80.0062 98.5917 80.1509 98.7478C80.2955 98.904 80.4777 98.9879 80.6975 98.9995H83.4739C83.6359 99.0052 83.7689 99.066 83.873 99.1817C83.9829 99.2973 84.0379 99.4362 84.0379 99.5981C84.0321 99.7543 83.9742 99.8873 83.8643 99.9972C83.7602 100.101 83.6301 100.156 83.4739 100.162H80.4025C79.9976 100.139 79.6621 100.003 79.396 99.7543C79.1357 99.4998 78.9477 99.1903 78.832 98.8259C78.7221 98.4615 78.6643 98.074 78.6585 97.6633V95.4682C78.6643 95.312 78.7221 95.1818 78.832 95.0777C78.9419 94.9678 79.075 94.91 79.2312 94.9042ZM89.1163 95.043C89.5212 95.0662 89.8538 95.2223 90.1141 95.5115C90.3744 95.795 90.5624 96.1189 90.6781 96.4833C90.7938 96.8477 90.8516 97.2208 90.8516 97.6026C90.8516 97.9843 90.7938 98.3574 90.6781 98.7218C90.5682 99.0862 90.3802 99.413 90.1141 99.7022C89.8538 99.9857 89.5212 100.139 89.1163 100.162H85.9234C85.7673 100.156 85.6342 100.101 85.5243 99.9972C85.4202 99.8873 85.3652 99.7543 85.3595 99.5981V97.4464C85.3652 97.2844 85.426 97.1514 85.5417 97.0473C85.6574 96.9374 85.7962 96.8824 85.9581 96.8824C86.1143 96.8882 86.2473 96.946 86.3572 97.0559C86.4672 97.1601 86.525 97.2902 86.5308 97.4464V98.7652C86.5308 98.9214 86.6118 98.9995 86.7737 98.9995H88.8213C89.0411 98.9879 89.2234 98.904 89.368 98.7478C89.5126 98.5917 89.6167 98.4152 89.6803 98.2186C89.7497 98.0161 89.7844 97.8108 89.7844 97.6026C89.7844 97.3943 89.7497 97.1919 89.6803 96.9952C89.6167 96.7928 89.5126 96.6134 89.368 96.4573C89.2234 96.3011 89.0411 96.2172 88.8213 96.2057H85.9234C85.5764 96.1767 85.3884 95.9887 85.3595 95.6417C85.3595 95.4797 85.4115 95.3409 85.5156 95.2252C85.6255 95.1095 85.7615 95.0488 85.9234 95.043H89.1163Z" fill="#F8F9FB"/>
<path d="M66.6562 101.509L66.3416 103.32H66.1066L66.4212 101.509H66.6562ZM67.2506 102.324L67.2158 102.52H66.4274L66.4622 102.324H67.2506ZM67.5105 101.509L67.4757 101.706H66.5692L66.604 101.509H67.5105ZM68.2093 103.09L68.3212 102.395C68.327 102.343 68.3221 102.298 68.3063 102.259C68.2914 102.22 68.2661 102.19 68.2305 102.168C68.1956 102.147 68.1517 102.135 68.0987 102.134C68.0522 102.133 68.0066 102.14 67.9619 102.156C67.9179 102.172 67.8798 102.195 67.8475 102.227C67.8151 102.258 67.794 102.298 67.784 102.346L67.5602 102.347C67.566 102.28 67.5872 102.222 67.6236 102.172C67.6601 102.122 67.7057 102.08 67.7604 102.046C67.8151 102.012 67.874 101.988 67.937 101.972C68 101.955 68.0613 101.947 68.121 101.948C68.2114 101.95 68.2897 101.969 68.3561 102.007C68.4232 102.043 68.4738 102.095 68.5078 102.161C68.5418 102.227 68.5542 102.307 68.5451 102.4L68.4419 103.026C68.4344 103.072 68.4298 103.118 68.4282 103.164C68.4274 103.21 68.4327 103.255 68.4443 103.299L68.4419 103.32L68.2143 103.321C68.2052 103.283 68.2006 103.244 68.2006 103.205C68.2014 103.166 68.2044 103.128 68.2093 103.09ZM68.3474 102.504L68.3212 102.666L68.1086 102.665C68.0638 102.665 68.0166 102.668 67.9668 102.674C67.9171 102.681 67.8698 102.694 67.8251 102.712C67.7803 102.73 67.7426 102.757 67.7119 102.791C67.6813 102.825 67.6626 102.87 67.656 102.924C67.651 102.969 67.6564 103.008 67.6721 103.041C67.6887 103.074 67.7136 103.099 67.7467 103.117C67.7799 103.135 67.8185 103.145 67.8624 103.146C67.9196 103.147 67.976 103.135 68.0315 103.112C68.087 103.089 68.1355 103.056 68.177 103.013C68.2184 102.97 68.247 102.92 68.2628 102.863L68.3449 102.974C68.3291 103.029 68.3034 103.079 68.2678 103.126C68.2321 103.171 68.1898 103.211 68.1409 103.244C68.0929 103.277 68.041 103.303 67.9855 103.321C67.93 103.339 67.8744 103.348 67.8189 103.347C67.7434 103.346 67.675 103.329 67.6137 103.296C67.5532 103.264 67.5051 103.219 67.4694 103.161C67.4346 103.102 67.4197 103.033 67.4247 102.955C67.4297 102.87 67.452 102.798 67.4918 102.74C67.5316 102.682 67.5826 102.636 67.6448 102.601C67.7078 102.566 67.7766 102.541 67.8512 102.526C67.9258 102.511 67.9996 102.503 68.0725 102.503L68.3474 102.504ZM69.3024 103.157C69.3571 103.158 69.4081 103.147 69.4553 103.126C69.5026 103.104 69.5428 103.074 69.5759 103.034C69.6091 102.994 69.6327 102.948 69.6468 102.896L69.8607 102.895C69.8474 102.985 69.8122 103.064 69.755 103.132C69.6986 103.2 69.6294 103.253 69.5473 103.291C69.4661 103.329 69.3811 103.346 69.2924 103.345C69.1979 103.343 69.1175 103.324 69.0512 103.286C68.9857 103.248 68.933 103.198 68.8932 103.135C68.8535 103.072 68.8261 103.001 68.8112 102.922C68.7963 102.842 68.7929 102.761 68.8012 102.677L68.8062 102.623C68.8162 102.533 68.8381 102.447 68.8721 102.366C68.9061 102.284 68.9513 102.211 69.0077 102.148C69.0649 102.085 69.1324 102.035 69.2103 101.999C69.2883 101.964 69.3757 101.947 69.4727 101.949C69.5672 101.951 69.6493 101.974 69.7189 102.017C69.7886 102.059 69.8425 102.117 69.8806 102.189C69.9187 102.262 69.9378 102.345 69.9378 102.438L69.7264 102.437C69.7256 102.384 69.7152 102.335 69.6953 102.29C69.6754 102.245 69.646 102.209 69.607 102.182C69.5681 102.155 69.52 102.14 69.4628 102.137C69.394 102.136 69.3339 102.148 69.2825 102.176C69.2319 102.203 69.1888 102.241 69.1531 102.289C69.1183 102.336 69.0906 102.389 69.0698 102.447C69.0499 102.505 69.0363 102.564 69.0288 102.623L69.0226 102.676C69.0176 102.729 69.0168 102.783 69.0201 102.839C69.0242 102.894 69.0358 102.946 69.0549 102.994C69.074 103.041 69.1034 103.08 69.1432 103.11C69.183 103.14 69.236 103.155 69.3024 103.157ZM70.5123 101.974L70.2785 103.32H70.0534L70.2872 101.974H70.5123ZM70.332 101.621C70.332 101.582 70.344 101.55 70.368 101.524C70.3929 101.498 70.4248 101.484 70.4638 101.483C70.5028 101.482 70.5347 101.494 70.5595 101.519C70.5852 101.544 70.5977 101.576 70.5968 101.614C70.5968 101.652 70.584 101.684 70.5583 101.709C70.5334 101.734 70.5019 101.747 70.4638 101.748C70.4257 101.749 70.3942 101.738 70.3693 101.714C70.3444 101.69 70.332 101.659 70.332 101.621ZM71.2124 101.41L70.8804 103.32H70.6553L70.9861 101.41H71.2124ZM71.716 101.974L71.4822 103.32H71.2571L71.4909 101.974H71.716ZM71.5357 101.621C71.5357 101.582 71.5477 101.55 71.5717 101.524C71.5966 101.498 71.6285 101.484 71.6675 101.483C71.7065 101.482 71.7384 101.494 71.7632 101.519C71.7889 101.544 71.8014 101.576 71.8005 101.614C71.8005 101.652 71.7877 101.684 71.762 101.709C71.7371 101.734 71.7056 101.747 71.6675 101.748C71.6294 101.749 71.5979 101.738 71.573 101.714C71.5481 101.69 71.5357 101.659 71.5357 101.621ZM72.6225 101.974L72.5914 102.151H71.8839L71.9149 101.974H72.6225ZM72.2109 101.647H72.4347L72.2072 102.989C72.2047 103.018 72.2055 103.044 72.2097 103.067C72.2138 103.091 72.2238 103.109 72.2395 103.123C72.2553 103.137 72.2793 103.144 72.3116 103.144C72.3299 103.144 72.3477 103.143 72.3651 103.141C72.3833 103.137 72.4016 103.135 72.4198 103.132L72.4036 103.321C72.3771 103.329 72.3498 103.334 72.3216 103.337C72.2942 103.341 72.2669 103.343 72.2395 103.342C72.1707 103.341 72.1168 103.324 72.0778 103.29C72.0389 103.256 72.0124 103.212 71.9983 103.158C71.9842 103.104 71.98 103.047 71.9858 102.985L72.2109 101.647ZM73.1261 101.974L72.8923 103.32H72.6673L72.901 101.974H73.1261ZM72.9458 101.621C72.9458 101.582 72.9578 101.55 72.9819 101.524C73.0067 101.498 73.0387 101.484 73.0776 101.483C73.1166 101.482 73.1485 101.494 73.1734 101.519C73.1991 101.544 73.2115 101.576 73.2107 101.614C73.2107 101.652 73.1978 101.684 73.1721 101.709C73.1473 101.734 73.1158 101.747 73.0776 101.748C73.0395 101.749 73.008 101.738 72.9831 101.714C72.9582 101.69 72.9458 101.659 72.9458 101.621ZM73.82 103.345C73.728 103.343 73.648 103.325 73.58 103.29C73.5128 103.254 73.4577 103.207 73.4146 103.147C73.3723 103.086 73.3421 103.018 73.3238 102.941C73.3056 102.863 73.3002 102.783 73.3077 102.698L73.3126 102.645C73.3209 102.558 73.3421 102.474 73.3761 102.391C73.41 102.307 73.4552 102.232 73.5116 102.165C73.5688 102.097 73.636 102.044 73.713 102.005C73.791 101.966 73.8772 101.947 73.9717 101.949C74.0654 101.951 74.1433 101.971 74.2055 102.009C74.2676 102.047 74.3161 102.098 74.351 102.161C74.3866 102.223 74.4098 102.293 74.4206 102.371C74.4314 102.448 74.4322 102.527 74.4231 102.609L74.4094 102.712H73.4333L73.4631 102.524L74.208 102.525L74.2117 102.505C74.22 102.446 74.2167 102.388 74.2017 102.332C74.1868 102.277 74.1595 102.231 74.1197 102.196C74.0807 102.159 74.0281 102.14 73.9617 102.139C73.8929 102.136 73.8333 102.15 73.7827 102.181C73.7321 102.211 73.6898 102.251 73.6558 102.303C73.6219 102.353 73.5949 102.409 73.575 102.469C73.556 102.529 73.5427 102.587 73.5352 102.645L73.5303 102.697C73.5253 102.75 73.5269 102.803 73.5352 102.857C73.5435 102.911 73.5593 102.96 73.5825 103.005C73.6065 103.049 73.6397 103.085 73.682 103.113C73.7242 103.141 73.7765 103.155 73.8386 103.157C73.9141 103.159 73.9816 103.142 74.0413 103.108C74.1018 103.074 74.157 103.03 74.2067 102.977L74.3348 103.086C74.2958 103.143 74.2494 103.191 74.1955 103.23C74.1416 103.269 74.0828 103.298 74.0189 103.317C73.9551 103.336 73.8888 103.346 73.82 103.345ZM75.3918 102.955C75.3992 102.904 75.3897 102.864 75.3632 102.835C75.3375 102.806 75.3035 102.784 75.2612 102.769C75.2198 102.753 75.1791 102.74 75.1393 102.73C75.0896 102.718 75.0394 102.703 74.9889 102.684C74.9383 102.666 74.8919 102.643 74.8496 102.615C74.8082 102.586 74.775 102.55 74.7501 102.508C74.7261 102.465 74.7153 102.412 74.7178 102.351C74.7211 102.285 74.7385 102.226 74.77 102.176C74.8024 102.125 74.8438 102.083 74.8944 102.049C74.9458 102.015 75.0017 101.99 75.0622 101.973C75.1228 101.957 75.1829 101.949 75.2426 101.949C75.3271 101.951 75.4038 101.969 75.4726 102.002C75.5422 102.035 75.5974 102.083 75.638 102.145C75.6786 102.207 75.6977 102.282 75.6952 102.371L75.4726 102.37C75.4743 102.323 75.4647 102.282 75.444 102.248C75.4233 102.214 75.3947 102.188 75.3582 102.17C75.3217 102.151 75.2803 102.141 75.2338 102.14C75.1899 102.139 75.1468 102.146 75.1045 102.161C75.0622 102.175 75.0262 102.197 74.9963 102.228C74.9665 102.258 74.9483 102.297 74.9416 102.345C74.9367 102.381 74.942 102.41 74.9578 102.433C74.9735 102.456 74.9951 102.474 75.0225 102.488C75.0506 102.501 75.0801 102.512 75.1107 102.521C75.1422 102.53 75.1708 102.537 75.1965 102.544C75.2645 102.563 75.3317 102.587 75.398 102.616C75.4643 102.645 75.5182 102.685 75.5596 102.737C75.6011 102.787 75.6197 102.854 75.6156 102.937C75.6123 103.007 75.5936 103.069 75.5596 103.121C75.5265 103.172 75.4834 103.215 75.4303 103.249C75.3781 103.282 75.3205 103.307 75.2575 103.322C75.1945 103.338 75.1315 103.346 75.0685 103.345C74.9814 103.343 74.9002 103.325 74.8247 103.291C74.7501 103.256 74.6904 103.207 74.6457 103.142C74.6009 103.077 74.5798 102.997 74.5823 102.903L74.8073 102.904C74.8073 102.958 74.8185 103.004 74.8409 103.041C74.8641 103.078 74.896 103.106 74.9367 103.125C74.9773 103.144 75.0237 103.154 75.0759 103.154C75.1199 103.155 75.1646 103.149 75.2102 103.137C75.2566 103.125 75.2964 103.104 75.3296 103.075C75.3636 103.045 75.3843 103.005 75.3918 102.955ZM76.8902 101.509H77.1066L77.4261 102.983L78.2555 101.509H78.4943L77.4659 103.32H77.2881L76.8902 101.509ZM76.8118 101.509H77.012L76.8529 102.621L76.731 103.32H76.4972L76.8118 101.509ZM78.36 101.509H78.5614L78.2468 103.32H78.0143L78.1387 102.601L78.36 101.509ZM79.4331 103.09L79.5451 102.395C79.5509 102.343 79.5459 102.298 79.5301 102.259C79.5152 102.22 79.4899 102.19 79.4543 102.168C79.4195 102.147 79.3755 102.135 79.3225 102.134C79.276 102.133 79.2304 102.14 79.1857 102.156C79.1417 102.172 79.1036 102.195 79.0713 102.227C79.039 102.258 79.0178 102.298 79.0079 102.346L78.784 102.347C78.7898 102.28 78.811 102.222 78.8475 102.172C78.8839 102.122 78.9295 102.08 78.9842 102.046C79.039 102.012 79.0978 101.988 79.1608 101.972C79.2238 101.955 79.2852 101.947 79.3449 101.948C79.4352 101.95 79.5136 101.969 79.5799 102.007C79.647 102.043 79.6976 102.095 79.7316 102.161C79.7656 102.227 79.778 102.307 79.7689 102.4L79.6657 103.026C79.6582 103.072 79.6537 103.118 79.652 103.164C79.6512 103.21 79.6566 103.255 79.6682 103.299L79.6657 103.32L79.4381 103.321C79.429 103.283 79.4244 103.244 79.4244 103.205C79.4253 103.166 79.4282 103.128 79.4331 103.09ZM79.5712 102.504L79.5451 102.666L79.3324 102.665C79.2877 102.665 79.2404 102.668 79.1907 102.674C79.1409 102.681 79.0937 102.694 79.0489 102.712C79.0041 102.73 78.9664 102.757 78.9357 102.791C78.9051 102.825 78.8864 102.87 78.8798 102.924C78.8748 102.969 78.8802 103.008 78.8959 103.041C78.9125 103.074 78.9374 103.099 78.9706 103.117C79.0037 103.135 79.0423 103.145 79.0862 103.146C79.1434 103.147 79.1998 103.135 79.2553 103.112C79.3109 103.089 79.3594 103.056 79.4008 103.013C79.4423 102.97 79.4709 102.92 79.4866 102.863L79.5687 102.974C79.5529 103.029 79.5272 103.079 79.4916 103.126C79.4559 103.171 79.4137 103.211 79.3647 103.244C79.3167 103.277 79.2649 103.303 79.2093 103.321C79.1538 103.339 79.0982 103.348 79.0427 103.347C78.9672 103.346 78.8989 103.329 78.8375 103.296C78.777 103.264 78.7289 103.219 78.6933 103.161C78.6584 103.102 78.6435 103.033 78.6485 102.955C78.6535 102.87 78.6758 102.798 78.7156 102.74C78.7554 102.682 78.8064 102.636 78.8686 102.601C78.9316 102.566 79.0004 102.541 79.075 102.526C79.1496 102.511 79.2234 102.503 79.2964 102.503L79.5712 102.504ZM80.372 102.275L80.1904 103.32H79.9654L80.1991 101.974H80.4118L80.372 102.275ZM80.2675 102.596L80.1755 102.594C80.1871 102.513 80.2083 102.434 80.2389 102.357C80.2704 102.279 80.3115 102.209 80.362 102.147C80.4134 102.085 80.4744 102.036 80.5448 102C80.6161 101.964 80.6974 101.947 80.7886 101.949C80.8607 101.951 80.9208 101.965 80.9689 101.992C81.0178 102.017 81.0559 102.053 81.0833 102.097C81.1106 102.142 81.1289 102.194 81.138 102.253C81.1471 102.311 81.1479 102.373 81.1405 102.438L80.9937 103.32H80.7674L80.9166 102.434C80.9224 102.381 80.9204 102.332 80.9104 102.289C80.9013 102.245 80.8806 102.21 80.8482 102.185C80.8167 102.158 80.7711 102.144 80.7115 102.142C80.6485 102.141 80.5917 102.153 80.5411 102.178C80.4905 102.204 80.4462 102.239 80.408 102.284C80.3707 102.328 80.3401 102.377 80.316 102.432C80.2928 102.486 80.2766 102.541 80.2675 102.596ZM82.144 103.09L82.2559 102.395C82.2617 102.343 82.2567 102.298 82.241 102.259C82.226 102.22 82.2008 102.19 82.1651 102.168C82.1303 102.147 82.0864 102.135 82.0333 102.134C81.9869 102.133 81.9413 102.14 81.8965 102.156C81.8526 102.172 81.8144 102.195 81.7821 102.227C81.7498 102.258 81.7286 102.298 81.7187 102.346L81.4949 102.347C81.5007 102.28 81.5218 102.222 81.5583 102.172C81.5948 102.122 81.6403 102.08 81.6951 102.046C81.7498 102.012 81.8086 101.988 81.8716 101.972C81.9346 101.955 81.996 101.947 82.0557 101.948C82.146 101.95 82.2244 101.969 82.2907 102.007C82.3578 102.043 82.4084 102.095 82.4424 102.161C82.4764 102.227 82.4888 102.307 82.4797 102.4L82.3765 103.026C82.369 103.072 82.3645 103.118 82.3628 103.164C82.362 103.21 82.3674 103.255 82.379 103.299L82.3765 103.32L82.1489 103.321C82.1398 103.283 82.1353 103.244 82.1353 103.205C82.1361 103.166 82.139 103.128 82.144 103.09ZM82.282 102.504L82.2559 102.666L82.0432 102.665C81.9985 102.665 81.9512 102.668 81.9015 102.674C81.8517 102.681 81.8045 102.694 81.7597 102.712C81.715 102.73 81.6772 102.757 81.6466 102.791C81.6159 102.825 81.5972 102.87 81.5906 102.924C81.5856 102.969 81.591 103.008 81.6068 103.041C81.6234 103.074 81.6482 103.099 81.6814 103.117C81.7145 103.135 81.7531 103.145 81.797 103.146C81.8542 103.147 81.9106 103.135 81.9661 103.112C82.0217 103.089 82.0702 103.056 82.1116 103.013C82.1531 102.97 82.1817 102.92 82.1974 102.863L82.2795 102.974C82.2638 103.029 82.2381 103.079 82.2024 103.126C82.1668 103.171 82.1245 103.211 82.0756 103.244C82.0275 103.277 81.9757 103.303 81.9201 103.321C81.8646 103.339 81.8091 103.348 81.7535 103.347C81.6781 103.346 81.6097 103.329 81.5483 103.296C81.4878 103.264 81.4397 103.219 81.4041 103.161C81.3693 103.102 81.3543 103.033 81.3593 102.955C81.3643 102.87 81.3867 102.798 81.4265 102.74C81.4663 102.682 81.5172 102.636 81.5794 102.601C81.6424 102.566 81.7112 102.541 81.7858 102.526C81.8604 102.511 81.9342 102.503 82.0072 102.503L82.282 102.504ZM83.7543 101.974H83.9607L83.7356 103.29C83.7199 103.402 83.6838 103.501 83.6275 103.586C83.5719 103.671 83.499 103.738 83.4086 103.785C83.3191 103.832 83.2167 103.855 83.1015 103.852C83.0409 103.85 82.9817 103.84 82.9236 103.821C82.8656 103.802 82.8121 103.775 82.7632 103.74C82.7143 103.705 82.6733 103.663 82.6401 103.612L82.7694 103.478C82.8084 103.533 82.8544 103.577 82.9075 103.61C82.9614 103.643 83.0227 103.661 83.0915 103.663C83.1669 103.665 83.2337 103.651 83.2917 103.621C83.3506 103.592 83.3982 103.55 83.4347 103.495C83.472 103.44 83.4965 103.376 83.5081 103.302L83.6847 102.259L83.7543 101.974ZM82.7384 102.672L82.7421 102.645C82.752 102.562 82.7715 102.479 82.8005 102.396C82.8304 102.313 82.8702 102.238 82.9199 102.17C82.9696 102.101 83.0306 102.046 83.1027 102.007C83.1748 101.966 83.259 101.947 83.3551 101.948C83.4422 101.951 83.5147 101.971 83.5727 102.009C83.6308 102.047 83.6764 102.098 83.7095 102.161C83.7435 102.223 83.7663 102.291 83.7779 102.366C83.7904 102.441 83.7941 102.516 83.7891 102.591L83.7754 102.706C83.7613 102.786 83.7381 102.865 83.7058 102.942C83.6735 103.019 83.6316 103.089 83.5802 103.151C83.5288 103.212 83.4675 103.261 83.3962 103.296C83.3257 103.332 83.2453 103.348 83.1549 103.346C83.0662 103.343 82.9929 103.32 82.9348 103.278C82.8776 103.235 82.8333 103.181 82.8018 103.115C82.7703 103.047 82.75 102.975 82.7408 102.898C82.7317 102.82 82.7309 102.745 82.7384 102.672ZM82.9684 102.643L82.9647 102.671C82.9589 102.72 82.9572 102.773 82.9597 102.827C82.9622 102.882 82.9717 102.934 82.9883 102.983C83.0049 103.031 83.0314 103.071 83.0679 103.102C83.1052 103.133 83.1558 103.149 83.2196 103.151C83.2876 103.153 83.3506 103.138 83.4086 103.106C83.4666 103.074 83.5164 103.031 83.5578 102.977C83.5993 102.923 83.6291 102.864 83.6474 102.801L83.6959 102.499C83.6983 102.454 83.6929 102.41 83.6797 102.367C83.6664 102.325 83.6465 102.287 83.62 102.254C83.5943 102.221 83.5628 102.194 83.5255 102.175C83.4882 102.155 83.4459 102.144 83.3987 102.143C83.329 102.141 83.2689 102.155 83.2183 102.185C83.1678 102.214 83.1251 102.253 83.0903 102.303C83.0563 102.352 83.0293 102.407 83.0094 102.467C82.9895 102.526 82.9759 102.585 82.9684 102.643ZM84.6334 103.345C84.5414 103.343 84.4614 103.325 84.3935 103.29C84.3263 103.254 84.2712 103.207 84.2281 103.147C84.1858 103.086 84.1555 103.018 84.1373 102.941C84.1191 102.863 84.1137 102.783 84.1211 102.698L84.1261 102.645C84.1344 102.558 84.1555 102.474 84.1895 102.391C84.2235 102.307 84.2687 102.232 84.3251 102.165C84.3823 102.097 84.4494 102.044 84.5265 102.005C84.6044 101.966 84.6907 101.947 84.7852 101.949C84.8788 101.951 84.9568 101.971 85.0189 102.009C85.0811 102.047 85.1296 102.098 85.1644 102.161C85.2001 102.223 85.2233 102.293 85.2341 102.371C85.2448 102.448 85.2457 102.527 85.2365 102.609L85.2229 102.712H84.2467L84.2766 102.524L85.0214 102.525L85.0252 102.505C85.0334 102.446 85.0301 102.388 85.0152 102.332C85.0003 102.277 84.9729 102.231 84.9331 102.196C84.8942 102.159 84.8415 102.14 84.7752 102.139C84.7064 102.136 84.6467 102.15 84.5961 102.181C84.5456 102.211 84.5033 102.251 84.4693 102.303C84.4353 102.353 84.4084 102.409 84.3885 102.469C84.3694 102.529 84.3561 102.587 84.3487 102.645L84.3437 102.697C84.3387 102.75 84.3404 102.803 84.3487 102.857C84.357 102.911 84.3727 102.96 84.3959 103.005C84.42 103.049 84.4531 103.085 84.4954 103.113C84.5377 103.141 84.5899 103.155 84.6521 103.157C84.7275 103.159 84.7951 103.142 84.8548 103.108C84.9153 103.074 84.9704 103.03 85.0202 102.977L85.1483 103.086C85.1093 103.143 85.0629 103.191 85.009 103.23C84.9551 103.269 84.8962 103.298 84.8324 103.317C84.7686 103.336 84.7023 103.346 84.6334 103.345ZM85.7824 102.255L85.5984 103.32H85.3721L85.6059 101.974H85.8197L85.7824 102.255ZM85.6817 102.596L85.5798 102.594C85.5914 102.51 85.6121 102.429 85.6419 102.351C85.6718 102.273 85.7116 102.204 85.7613 102.142C85.8119 102.081 85.8728 102.033 85.9441 101.998C86.0154 101.963 86.0979 101.947 86.1916 101.949C86.2612 101.951 86.32 101.965 86.3681 101.991C86.4162 102.015 86.4548 102.05 86.4838 102.094C86.5136 102.137 86.5335 102.187 86.5435 102.243C86.5542 102.299 86.5567 102.359 86.5509 102.423L86.4005 103.32H86.1754L86.3246 102.433C86.3312 102.377 86.3279 102.327 86.3147 102.284C86.3022 102.241 86.2786 102.207 86.2438 102.182C86.209 102.156 86.1617 102.143 86.102 102.141C86.0349 102.139 85.9764 102.151 85.9267 102.176C85.8778 102.201 85.8367 102.235 85.8036 102.279C85.7712 102.322 85.7451 102.371 85.7252 102.427C85.7053 102.482 85.6908 102.538 85.6817 102.596ZM86.5509 102.469L86.3893 102.517C86.3992 102.439 86.4199 102.366 86.4514 102.298C86.4838 102.229 86.5256 102.168 86.577 102.115C86.6284 102.062 86.6881 102.02 86.7561 101.991C86.8241 101.961 86.8991 101.947 86.9812 101.948C87.0541 101.95 87.1159 101.964 87.1665 101.989C87.217 102.014 87.2572 102.049 87.2871 102.092C87.3177 102.136 87.3381 102.188 87.348 102.247C87.3588 102.305 87.3604 102.368 87.353 102.436L87.205 103.32H86.9787L87.1279 102.432C87.1345 102.375 87.1316 102.325 87.1192 102.282C87.1076 102.238 87.0844 102.205 87.0496 102.181C87.0147 102.156 86.9667 102.143 86.9053 102.142C86.8564 102.141 86.8116 102.148 86.771 102.165C86.7304 102.181 86.6952 102.205 86.6653 102.235C86.6355 102.265 86.6106 102.3 86.5907 102.34C86.5716 102.38 86.5584 102.423 86.5509 102.469ZM88.1103 103.345C88.0183 103.343 87.9383 103.325 87.8703 103.29C87.8031 103.254 87.748 103.207 87.7049 103.147C87.6626 103.086 87.6324 103.018 87.6141 102.941C87.5959 102.863 87.5905 102.783 87.5979 102.698L87.6029 102.645C87.6112 102.558 87.6324 102.474 87.6663 102.391C87.7003 102.307 87.7455 102.232 87.8019 102.165C87.8591 102.097 87.9262 102.044 88.0033 102.005C88.0813 101.966 88.1675 101.947 88.262 101.949C88.3557 101.951 88.4336 101.971 88.4958 102.009C88.5579 102.047 88.6064 102.098 88.6412 102.161C88.6769 102.223 88.7001 102.293 88.7109 102.371C88.7217 102.448 88.7225 102.527 88.7134 102.609L88.6997 102.712H87.7235L87.7534 102.524L88.4982 102.525L88.502 102.505C88.5103 102.446 88.5069 102.388 88.492 102.332C88.4771 102.277 88.4497 102.231 88.41 102.196C88.371 102.159 88.3183 102.14 88.252 102.139C88.1832 102.136 88.1235 102.15 88.073 102.181C88.0224 102.211 87.9801 102.251 87.9461 102.303C87.9121 102.353 87.8852 102.409 87.8653 102.469C87.8462 102.529 87.833 102.587 87.8255 102.645L87.8205 102.697C87.8156 102.75 87.8172 102.803 87.8255 102.857C87.8338 102.911 87.8495 102.96 87.8728 103.005C87.8968 103.049 87.93 103.085 87.9722 103.113C88.0145 103.141 88.0667 103.155 88.1289 103.157C88.2044 103.159 88.2719 103.142 88.3316 103.108C88.3921 103.074 88.4473 103.03 88.497 102.977L88.6251 103.086C88.5861 103.143 88.5397 103.191 88.4858 103.23C88.4319 103.269 88.3731 103.298 88.3092 103.317C88.2454 103.336 88.1791 103.346 88.1103 103.345ZM89.258 102.275L89.0765 103.32H88.8514L89.0852 101.974H89.2978L89.258 102.275ZM89.1536 102.596L89.0615 102.594C89.0732 102.513 89.0943 102.434 89.125 102.357C89.1565 102.279 89.1975 102.209 89.2481 102.147C89.2995 102.085 89.3604 102.036 89.4309 102C89.5022 101.964 89.5834 101.947 89.6746 101.949C89.7467 101.951 89.8068 101.965 89.8549 101.992C89.9038 102.017 89.9419 102.053 89.9693 102.097C89.9967 102.142 90.0149 102.194 90.024 102.253C90.0331 102.311 90.034 102.373 90.0265 102.438L89.8798 103.32H89.6535L89.8027 102.434C89.8085 102.381 89.8064 102.332 89.7965 102.289C89.7873 102.245 89.7666 102.21 89.7343 102.185C89.7028 102.158 89.6572 102.144 89.5975 102.142C89.5345 102.141 89.4777 102.153 89.4271 102.178C89.3766 102.204 89.3322 102.239 89.2941 102.284C89.2568 102.328 89.2261 102.377 89.2021 102.432C89.1789 102.486 89.1627 102.541 89.1536 102.596ZM90.9989 101.974L90.9678 102.151H90.2603L90.2914 101.974H90.9989ZM90.5873 101.647H90.8111L90.5836 102.989C90.5811 103.018 90.5819 103.044 90.5861 103.067C90.5902 103.091 90.6002 103.109 90.6159 103.123C90.6317 103.137 90.6557 103.144 90.688 103.144C90.7063 103.144 90.7241 103.143 90.7415 103.141C90.7597 103.137 90.778 103.135 90.7962 103.132L90.7801 103.321C90.7535 103.329 90.7262 103.334 90.698 103.337C90.6706 103.341 90.6433 103.343 90.6159 103.342C90.5471 103.341 90.4932 103.324 90.4543 103.29C90.4153 103.256 90.3888 103.212 90.3747 103.158C90.3606 103.104 90.3564 103.047 90.3622 102.985L90.5873 101.647Z" fill="#F8F9FB"/>
</g>
<defs>
<linearGradient id="paint0_linear_2184_6755" x1="160" y1="0" x2="160" y2="960" gradientUnits="userSpaceOnUse">
<stop offset="0.49355" stop-color="#6366F1"/>
<stop offset="0.619207" stop-color="#6366F1" stop-opacity="0.751886"/>
<stop offset="1" stop-color="#6366F1" stop-opacity="0"/>
</linearGradient>
<clipPath id="clip0_2184_6755">
<rect width="320" height="960" fill="white"/>
</clipPath>
</defs>
</svg>
