<svg width="36" height="30" viewBox="0 0 36 30" fill="none" xmlns="http://www.w3.org/2000/svg">
<path d="M11.3213 18.6074V22.2502C11.3213 23.5915 12.4086 24.6788 13.7499 24.6788H24.0713L26.3944 28.7443C26.441 28.8259 26.5587 28.8259 26.6053 28.7443L28.9284 24.6788H32.5713C33.9126 24.6788 34.9999 23.5915 34.9999 22.2502V11.3216C34.9999 9.98038 33.9126 8.89307 32.5713 8.89307H27.107" stroke="#6366F1" stroke-width="1.21429" stroke-linecap="round"/>
<path d="M10.1071 1H3.42857C2.08731 1 1 2.08731 1 3.42857V14.3571C1 15.6984 2.08731 16.7857 3.42857 16.7857H4.64286L6.966 20.8512C7.01261 20.9328 7.13024 20.9328 7.17686 20.8512L9.5 16.7857H22.25C23.5913 16.7857 24.6786 15.6984 24.6786 14.3571V3.42857C24.6786 2.08731 23.5913 1 22.25 1H15.5714" stroke="black" stroke-width="1.21429" stroke-linecap="round"/>
<circle cx="5.55371" cy="9.19629" r="1.51786" stroke="black" stroke-width="1.21429"/>
<circle cx="12.8389" cy="9.19629" r="1.51786" stroke="black" stroke-width="1.21429"/>
<circle cx="20.125" cy="9.19629" r="1.51786" stroke="black" stroke-width="1.21429"/>
<path d="M13.1426 1L11.9283 1" stroke="black" stroke-width="1.21429" stroke-linecap="round"/>
</svg>
