<svg width="22" height="16" viewBox="0 0 22 16" fill="none" xmlns="http://www.w3.org/2000/svg">
<path d="M18.2188 0.337402C19.089 0.337402 19.9236 0.647906 20.5389 1.20061C21.1543 1.7533 21.5 2.50293 21.5 3.28456V12.7155C21.5 13.4971 21.1543 14.2467 20.5389 14.7994C19.9236 15.3521 19.089 15.6626 18.2188 15.6626H3.78125C2.91101 15.6626 2.07641 15.3521 1.46106 14.7994C0.845702 14.2467 0.5 13.4971 0.5 12.7155V3.28456C0.5 2.50293 0.845702 1.7533 1.46106 1.20061C2.07641 0.647906 2.91101 0.337402 3.78125 0.337402H18.2188ZM20.1875 5.00688L11.3334 9.68697C11.2497 9.73111 11.1561 9.75803 11.0594 9.76577C10.9627 9.77352 10.8653 9.76191 10.7743 9.73177L10.6666 9.68697L1.8125 5.00924V12.7155C1.8125 13.1845 2.01992 13.6342 2.38913 13.9658C2.75835 14.2975 3.2591 14.4838 3.78125 14.4838H18.2188C18.7409 14.4838 19.2417 14.2975 19.6109 13.9658C19.9801 13.6342 20.1875 13.1845 20.1875 12.7155V5.00688ZM18.2188 1.51627H3.78125C3.2591 1.51627 2.75835 1.70257 2.38913 2.03419C2.01992 2.36581 1.8125 2.81558 1.8125 3.28456V3.64058L11 8.49514L20.1875 3.63822V3.28456C20.1875 2.81558 19.9801 2.36581 19.6109 2.03419C19.2417 1.70257 18.7409 1.51627 18.2188 1.51627Z" fill="#8F8F8F"/>
</svg>
