<svg width="7" height="17" viewBox="0 0 7 17" fill="none" xmlns="http://www.w3.org/2000/svg">
<g clip-path="url(#clip0_2184_5708)">
<path d="M3.27873 0.39502C4.40753 0.39502 5.32262 1.31011 5.32262 2.43891C5.32262 3.56771 4.40753 4.4828 3.27873 4.4828C2.14993 4.4828 1.23484 3.56771 1.23484 2.43891C1.23484 1.31011 2.14993 0.39502 3.27873 0.39502ZM4.81165 4.99378H4.44886C3.72356 5.32728 2.86516 5.34168 2.1086 4.99378H1.74581C0.899191 4.99378 0.212891 5.68008 0.212891 6.5267V10.87C0.212891 11.2933 0.556041 11.6364 0.97935 11.6364H1.49032V15.9797C1.49032 16.403 1.83347 16.7462 2.25678 16.7462H4.30067C4.72398 16.7462 5.06713 16.403 5.06713 15.9797V11.6364H5.57811C6.00142 11.6364 6.34457 11.2933 6.34457 10.87V6.5267C6.34457 5.68008 5.65827 4.99378 4.81165 4.99378Z" fill="#16C098"/>
</g>
<defs>
<clipPath id="clip0_2184_5708">
<rect width="6.13168" height="16.3511" fill="white" transform="translate(0.212891 0.395508)"/>
</clipPath>
</defs>
</svg>
