<svg width="10" height="19" viewBox="0 0 10 19" fill="none" xmlns="http://www.w3.org/2000/svg">
<g clip-path="url(#clip0_2184_5704)">
<path d="M4.74898 0.854004C5.93685 0.854004 6.89982 1.81698 6.89982 3.00484C6.89982 4.19271 5.93685 5.15568 4.74898 5.15568C3.56112 5.15568 2.59815 4.19271 2.59815 3.00484C2.59815 1.81698 3.56112 0.854004 4.74898 0.854004ZM8.75771 12.7569L7.14458 6.30433C7.10096 6.12983 7.00025 5.97492 6.85847 5.86422C6.7167 5.75352 6.54199 5.6934 6.36211 5.69339H5.98034C5.21709 6.04435 4.31378 6.05951 3.51763 5.69339H3.13585C2.95598 5.6934 2.78127 5.75352 2.63949 5.86422C2.49772 5.97492 2.39701 6.12983 2.35339 6.30433L0.740257 12.7569C0.613156 13.2652 0.997887 13.759 1.52273 13.759H3.40471V17.2542C3.40471 17.6996 3.76582 18.0607 4.21127 18.0607H5.28669C5.73215 18.0607 6.09326 17.6996 6.09326 17.2542V13.759H7.97524C8.49921 13.759 8.88502 13.266 8.75771 12.7569Z" fill="#4218FC"/>
</g>
<defs>
<clipPath id="clip0_2184_5704">
<rect width="8.60336" height="17.2067" fill="white" transform="translate(0.447266 0.854004)"/>
</clipPath>
</defs>
</svg>
