<svg width="28" height="28" viewBox="0 0 28 28" fill="none" xmlns="http://www.w3.org/2000/svg">
<path d="M14.4067 13.3978C14.3728 13.3978 14.3502 13.3978 14.3164 13.3978C14.2599 13.3865 14.1809 13.3865 14.1131 13.3978C10.8383 13.2961 8.36523 10.7215 8.36523 7.54829C8.36523 4.31864 10.9964 1.6875 14.226 1.6875C17.4557 1.6875 20.0868 4.31864 20.0868 7.54829C20.0755 10.7215 17.5912 13.2961 14.4406 13.3978C14.4293 13.3978 14.418 13.3978 14.4067 13.3978ZM14.226 3.38137C11.9337 3.38137 10.0591 5.25592 10.0591 7.54829C10.0591 9.80678 11.8207 11.6249 14.0679 11.7039C14.1244 11.6926 14.2825 11.6926 14.4293 11.7039C16.6426 11.6023 18.3816 9.78419 18.3929 7.54829C18.3929 5.25592 16.5184 3.38137 14.226 3.38137Z" fill="white"/>
<path d="M14.4175 25.7403C12.2042 25.7403 9.9796 25.1757 8.29702 24.0464C6.72737 23.0075 5.86914 21.5847 5.86914 20.0376C5.86914 18.4905 6.72737 17.0564 8.29702 16.0062C11.6848 13.759 17.1729 13.759 20.538 16.0062C22.0964 17.0451 22.9659 18.468 22.9659 20.015C22.9659 21.5621 22.1077 22.9962 20.538 24.0464C18.8442 25.1757 16.6309 25.7403 14.4175 25.7403ZM9.23429 17.429C8.15022 18.1518 7.56301 19.0777 7.56301 20.0489C7.56301 21.0088 8.16151 21.9347 9.23429 22.6462C12.0461 24.532 16.7889 24.532 19.6008 22.6462C20.6848 21.9234 21.2721 20.9975 21.2721 20.0263C21.2721 19.0665 20.6736 18.1405 19.6008 17.429C16.7889 15.5545 12.0461 15.5545 9.23429 17.429Z" fill="white"/>
</svg>
