<svg width="41" height="40" viewBox="0 0 41 40" fill="none" xmlns="http://www.w3.org/2000/svg">
<path d="M8.86825 7.91382H13.3334L12.1811 10.1464H9.66045C1.01831 14.5395 4.6192 27.0706 15.926 22.8215V18.0683H11.965L13.5494 15.8358H18.3746V24.4059C1.45041 30.8875 -2.72662 12.667 8.86825 7.91382Z" fill="#F8F9FB" stroke="#F8F9FB" stroke-width="0.144036"/>
<path d="M32.1317 7.91382H27.6666L28.8189 10.1464H31.3396C39.9817 14.5395 36.3808 27.0706 25.074 22.8215V18.0683H29.035L27.4506 15.8358H22.6254V24.4059C39.5496 30.8875 43.7266 12.667 32.1317 7.91382Z" fill="#F8F9FB" stroke="#F8F9FB" stroke-width="0.144036"/>
<path d="M21.7612 1H19.1685L10.8145 14.5394H19.2405V18.5003H21.9052V14.5394H25.6501L24.3538 12.4508H21.7612V1Z" fill="#A5B4FC" stroke="#A5B4FC" stroke-width="0.144036"/>
<path d="M19.3122 12.4508V4.31274L14.127 12.4508H19.3122Z" fill="#6366F1" stroke="#6366F1" stroke-width="0.144036"/>
<path d="M22.9863 6.11335V2.72852L30.6202 14.7555H27.0193L25.723 12.3789H26.9473L22.9863 6.11335Z" fill="#F8F9FB" stroke="#F8F9FB" stroke-width="0.144036"/>
<path d="M1.74643 31.6977H4.65945C4.7883 31.7023 4.89415 31.7506 4.97698 31.8426C5.06442 31.9347 5.10813 32.0451 5.10813 32.174C5.08513 32.4501 4.93556 32.5996 4.65945 32.6227H1.98113C1.80625 32.6319 1.66129 32.6986 1.54625 32.8228C1.4312 32.9471 1.34606 33.0898 1.29084 33.2508C1.24022 33.4073 1.21491 33.5684 1.21491 33.734C1.21491 33.8997 1.24022 34.0631 1.29084 34.2241C1.34606 34.3806 1.4312 34.521 1.54625 34.6452C1.66129 34.7695 1.80625 34.8362 1.98113 34.8454H4.0796C4.16244 34.8408 4.20616 34.7948 4.21076 34.7073V34.307C4.20616 34.2149 4.16244 34.1689 4.0796 34.1689H2.31247C2.18361 34.1689 2.07317 34.1252 1.98113 34.0377C1.89369 33.9457 1.84997 33.8353 1.84997 33.7064C1.84997 33.5776 1.89369 33.4671 1.98113 33.3751C2.07317 33.2876 2.18361 33.2439 2.31247 33.2439H4.67325C4.80211 33.2439 4.91255 33.2876 5.00459 33.3751C5.08743 33.4625 5.13114 33.5684 5.13575 33.6926V33.7064V35.3217C5.13114 35.4459 5.08743 35.5495 5.00459 35.6323C4.91715 35.7198 4.81131 35.7658 4.68706 35.7704H1.74643C1.4243 35.752 1.15738 35.63 0.945695 35.4045C0.738609 35.1744 0.589046 34.9144 0.497008 34.6245C0.409571 34.3346 0.365853 34.0377 0.365853 33.734C0.365853 33.4303 0.411872 33.1335 0.503911 32.8436C0.595949 32.5536 0.745512 32.2959 0.952598 32.0704C1.15968 31.8403 1.4243 31.7161 1.74643 31.6977ZM10.0873 31.6977C10.322 31.7023 10.5314 31.7759 10.7155 31.9186C10.8996 32.0612 11.0468 32.2315 11.1573 32.4294C11.2723 32.6273 11.3575 32.8366 11.4127 33.0575C11.4679 33.2784 11.4955 33.5039 11.4955 33.734C11.4955 34.0377 11.4472 34.3369 11.3506 34.6314C11.2585 34.9213 11.1043 35.179 10.8881 35.4045C10.6764 35.63 10.4095 35.752 10.0873 35.7704H7.67822C7.35608 35.7566 7.08687 35.6369 6.87058 35.4114C6.65429 35.1859 6.50012 34.9259 6.40809 34.6314C6.32065 34.3369 6.27693 34.0377 6.27693 33.734C6.27693 33.4303 6.32295 33.1335 6.41499 32.8436C6.50703 32.549 6.65889 32.289 6.87058 32.0635C7.08687 31.8334 7.35608 31.7115 7.67822 31.6977H7.80937H9.95617H10.0873ZM9.85263 34.8454C10.0275 34.8362 10.1725 34.7718 10.2875 34.6521C10.4072 34.5279 10.4923 34.3852 10.5429 34.2241C10.5935 34.0631 10.6188 33.8997 10.6188 33.734C10.6188 33.5684 10.5912 33.4073 10.536 33.2508C10.4854 33.0898 10.4026 32.9471 10.2875 32.8228C10.1725 32.6986 10.0275 32.6319 9.85263 32.6227H7.89221C7.71733 32.6319 7.57237 32.6986 7.45732 32.8228C7.34228 32.9471 7.25714 33.0898 7.20192 33.2508C7.1513 33.4073 7.12599 33.5684 7.12599 33.734C7.12599 33.8997 7.1513 34.0631 7.20192 34.2241C7.25254 34.3852 7.33537 34.5279 7.45042 34.6521C7.57007 34.7718 7.71733 34.8362 7.89221 34.8454H9.85263ZM16.0536 31.5872C16.1779 31.5918 16.2837 31.6378 16.3712 31.7253C16.4586 31.8081 16.5046 31.9117 16.5092 32.0359V33.8238H16.9027C17.0315 33.8284 17.1374 33.8767 17.2202 33.9687C17.3076 34.0608 17.3514 34.1712 17.3514 34.3001C17.3468 34.4243 17.3007 34.5302 17.2133 34.6176C17.1305 34.7004 17.0269 34.7441 16.9027 34.7487H16.5092V35.4183C16.4816 35.6944 16.3297 35.844 16.0536 35.867C15.9248 35.867 15.812 35.8256 15.7154 35.7428C15.6233 35.6553 15.5773 35.5472 15.5773 35.4183V34.7487H14.1139C13.7918 34.7303 13.5249 34.6222 13.3132 34.4243C13.1061 34.2218 12.9565 33.9756 12.8645 33.6857C12.7771 33.3958 12.731 33.0875 12.7264 32.7607V32.0359C12.731 31.9117 12.7771 31.8081 12.8645 31.7253C12.9519 31.6378 13.0578 31.5918 13.182 31.5872C13.3109 31.5872 13.4213 31.6309 13.5134 31.7184C13.6054 31.8012 13.6537 31.9071 13.6583 32.0359V32.6779C13.6537 32.8666 13.6652 33.0414 13.6928 33.2025C13.7251 33.359 13.7987 33.4993 13.9137 33.6236C14.0288 33.7478 14.1737 33.8146 14.3486 33.8238H15.5773V32.0359C15.5819 31.9071 15.6302 31.8012 15.7223 31.7184C15.8143 31.6309 15.9248 31.5872 16.0536 31.5872ZM19.8593 31.6977H22.7723C22.9012 31.7023 23.007 31.7506 23.0899 31.8426C23.1773 31.9347 23.221 32.0451 23.221 32.174C23.198 32.4501 23.0485 32.5996 22.7723 32.6227H20.094C19.9191 32.6319 19.7742 32.6986 19.6591 32.8228C19.5441 32.9471 19.459 33.0898 19.4037 33.2508C19.3531 33.4073 19.3278 33.5684 19.3278 33.734C19.3278 33.8997 19.3531 34.0631 19.4037 34.2241C19.459 34.3806 19.5441 34.521 19.6591 34.6452C19.7742 34.7695 19.9191 34.8362 20.094 34.8454H22.1925C22.2753 34.8408 22.3191 34.7948 22.3237 34.7073V34.307C22.3191 34.2149 22.2753 34.1689 22.1925 34.1689H20.4254C20.2965 34.1689 20.1861 34.1252 20.094 34.0377C20.0066 33.9457 19.9629 33.8353 19.9629 33.7064C19.9629 33.5776 20.0066 33.4671 20.094 33.3751C20.1861 33.2876 20.2965 33.2439 20.4254 33.2439H22.7861C22.915 33.2439 23.0254 33.2876 23.1175 33.3751C23.2003 33.4625 23.244 33.5684 23.2486 33.6926V33.7064V35.3217C23.244 35.4459 23.2003 35.5495 23.1175 35.6323C23.03 35.7198 22.9242 35.7658 22.8 35.7704H19.8593C19.5372 35.752 19.2703 35.63 19.0586 35.4045C18.8515 35.1744 18.7019 34.9144 18.6099 34.6245C18.5225 34.3346 18.4787 34.0377 18.4787 33.734C18.4787 33.4303 18.5248 33.1335 18.6168 32.8436C18.7088 32.5536 18.8584 32.2959 19.0655 32.0704C19.2726 31.8403 19.5372 31.7161 19.8593 31.6977ZM28.2002 31.6977C28.4349 31.7023 28.6443 31.7759 28.8284 31.9186C29.0125 32.0612 29.1597 32.2315 29.2702 32.4294C29.3852 32.6273 29.4703 32.8366 29.5256 33.0575C29.5808 33.2784 29.6084 33.5039 29.6084 33.734C29.6084 34.0377 29.5601 34.3369 29.4634 34.6314C29.3714 34.9213 29.2172 35.179 29.001 35.4045C28.7893 35.63 28.5224 35.752 28.2002 35.7704H25.7911C25.469 35.7566 25.1998 35.6369 24.9835 35.4114C24.7672 35.1859 24.613 34.9259 24.521 34.6314C24.4335 34.3369 24.3898 34.0377 24.3898 33.734C24.3898 33.4303 24.4358 33.1335 24.5279 32.8436C24.6199 32.549 24.7718 32.289 24.9835 32.0635C25.1998 31.8334 25.469 31.7115 25.7911 31.6977H25.9223H28.0691H28.2002ZM27.9655 34.8454C28.1404 34.8362 28.2854 34.7718 28.4004 34.6521C28.5201 34.5279 28.6052 34.3852 28.6558 34.2241C28.7064 34.0631 28.7317 33.8997 28.7317 33.734C28.7317 33.5684 28.7041 33.4073 28.6489 33.2508C28.5983 33.0898 28.5154 32.9471 28.4004 32.8228C28.2854 32.6986 28.1404 32.6319 27.9655 32.6227H26.0051C25.8302 32.6319 25.6853 32.6986 25.5702 32.8228C25.4552 32.9471 25.37 33.0898 25.3148 33.2508C25.2642 33.4073 25.2389 33.5684 25.2389 33.734C25.2389 33.8997 25.2642 34.0631 25.3148 34.2241C25.3654 34.3852 25.4483 34.5279 25.5633 34.6521C25.683 34.7718 25.8302 34.8362 26.0051 34.8454H27.9655ZM31.2121 31.5872C31.3409 31.5872 31.4514 31.6309 31.5434 31.7184C31.6355 31.8012 31.6838 31.9071 31.6884 32.0359V33.6995C31.6838 33.8882 31.6953 34.0631 31.7229 34.2241C31.7551 34.3806 31.8287 34.521 31.9438 34.6452C32.0588 34.7695 32.2038 34.8362 32.3787 34.8454H34.5876C34.7164 34.85 34.8223 34.8983 34.9051 34.9903C34.9926 35.0824 35.0363 35.1928 35.0363 35.3217C35.0317 35.4459 34.9857 35.5518 34.8982 35.6392C34.8154 35.7221 34.7118 35.7658 34.5876 35.7704H32.144C31.8218 35.752 31.5549 35.6438 31.3432 35.4459C31.1362 35.2435 30.9866 34.9973 30.8946 34.7073C30.8071 34.4174 30.7611 34.1091 30.7565 33.7823V32.0359C30.7611 31.9117 30.8071 31.8081 30.8946 31.7253C30.982 31.6378 31.0878 31.5918 31.2121 31.5872ZM39.0767 31.6977C39.3988 31.7161 39.6634 31.8403 39.8705 32.0704C40.0776 32.2959 40.2272 32.5536 40.3192 32.8436C40.4112 33.1335 40.4573 33.4303 40.4573 33.734C40.4573 34.0377 40.4112 34.3346 40.3192 34.6245C40.2318 34.9144 40.0822 35.1744 39.8705 35.4045C39.6634 35.63 39.3988 35.752 39.0767 35.7704H36.5364C36.4122 35.7658 36.3063 35.7221 36.2189 35.6392C36.1361 35.5518 36.0923 35.4459 36.0877 35.3217V33.6098C36.0923 33.4809 36.1407 33.3751 36.2327 33.2922C36.3247 33.2048 36.4352 33.1611 36.564 33.1611C36.6883 33.1657 36.7941 33.2117 36.8816 33.2991C36.969 33.382 37.015 33.4855 37.0196 33.6098V34.659C37.0196 34.7833 37.084 34.8454 37.2129 34.8454H38.842C39.0169 34.8362 39.1618 34.7695 39.2769 34.6452C39.3919 34.521 39.4747 34.3806 39.5254 34.2241C39.5806 34.0631 39.6082 33.8997 39.6082 33.734C39.6082 33.5684 39.5806 33.4073 39.5254 33.2508C39.4747 33.0898 39.3919 32.9471 39.2769 32.8228C39.1618 32.6986 39.0169 32.6319 38.842 32.6227H36.5364C36.2603 32.5996 36.1107 32.4501 36.0877 32.174C36.0877 32.0451 36.1291 31.9347 36.212 31.8426C36.2994 31.7506 36.4076 31.7023 36.5364 31.6977H39.0767Z" fill="#F8F9FB"/>
<path d="M21.2066 37.6157L20.9563 39.0562H20.7693L21.0196 37.6157H21.2066ZM21.6795 38.2637L21.6518 38.42H21.0246L21.0523 38.2637H21.6795ZM21.8862 37.6157L21.8585 37.772H21.1373L21.165 37.6157H21.8862ZM22.4422 38.8731L22.5313 38.3201C22.5359 38.2792 22.5319 38.2433 22.5194 38.2123C22.5075 38.1813 22.4874 38.1572 22.4591 38.14C22.4314 38.1229 22.3964 38.1137 22.3542 38.1123C22.3173 38.1117 22.281 38.1176 22.2454 38.1301C22.2104 38.1427 22.1801 38.1615 22.1544 38.1865C22.1286 38.2116 22.1118 38.2433 22.1039 38.2815L21.9258 38.2825C21.9304 38.2291 21.9473 38.1826 21.9763 38.143C22.0053 38.1028 22.0416 38.0695 22.0851 38.0431C22.1286 38.016 22.1755 37.9963 22.2256 37.9837C22.2757 37.9705 22.3245 37.9643 22.372 37.9649C22.4439 37.9663 22.5062 37.9818 22.559 38.0114C22.6124 38.0405 22.6526 38.0813 22.6797 38.1341C22.7067 38.1869 22.7166 38.2502 22.7094 38.3241L22.6273 38.8227C22.6213 38.8589 22.6177 38.8956 22.6164 38.9325C22.6157 38.9688 22.62 39.0044 22.6292 39.0393L22.6273 39.0562L22.4462 39.0571C22.4389 39.0268 22.4353 38.9961 22.4353 38.9651C22.436 38.9341 22.4383 38.9035 22.4422 38.8731ZM22.5521 38.4072L22.5313 38.5358L22.3621 38.5348C22.3265 38.5348 22.2889 38.5374 22.2493 38.5427C22.2098 38.548 22.1722 38.5579 22.1365 38.5724C22.1009 38.5869 22.0709 38.608 22.0465 38.6357C22.0221 38.6627 22.0073 38.698 22.002 38.7415C21.998 38.7772 22.0023 38.8082 22.0149 38.8345C22.0281 38.8603 22.0478 38.8804 22.0742 38.8949C22.1006 38.9094 22.1313 38.917 22.1662 38.9176C22.2117 38.9183 22.2566 38.9094 22.3008 38.8909C22.345 38.8725 22.3835 38.8461 22.4165 38.8118C22.4495 38.7775 22.4723 38.7379 22.4848 38.6931L22.5501 38.7811C22.5376 38.8247 22.5171 38.8649 22.4887 38.9018C22.4604 38.9381 22.4267 38.9694 22.3878 38.9958C22.3496 39.0222 22.3084 39.0426 22.2642 39.0571C22.22 39.0717 22.1758 39.0786 22.1316 39.0779C22.0716 39.0766 22.0172 39.0631 21.9684 39.0374C21.9202 39.0116 21.882 38.9757 21.8536 38.9295C21.8259 38.8827 21.814 38.8283 21.818 38.7663C21.8219 38.6983 21.8398 38.6413 21.8714 38.5951C21.9031 38.549 21.9436 38.512 21.9931 38.4843C22.0432 38.4566 22.098 38.4368 22.1573 38.425C22.2167 38.4124 22.2754 38.4062 22.3334 38.4062L22.5521 38.4072ZM23.3119 38.9266C23.3554 38.9272 23.396 38.919 23.4335 38.9018C23.4711 38.8847 23.5031 38.8603 23.5295 38.8286C23.5559 38.797 23.5747 38.7603 23.5859 38.7188L23.7561 38.7178C23.7455 38.7897 23.7175 38.8527 23.672 38.9068C23.6271 38.9608 23.5721 39.0031 23.5068 39.0334C23.4421 39.0631 23.3745 39.0773 23.3039 39.0759C23.2288 39.0746 23.1648 39.0591 23.112 39.0294C23.0599 38.9991 23.018 38.9589 22.9864 38.9087C22.9547 38.8586 22.933 38.8022 22.9211 38.7396C22.9092 38.6763 22.9066 38.6113 22.9132 38.5447L22.9171 38.5021C22.925 38.4302 22.9425 38.362 22.9696 38.2973C22.9966 38.232 23.0325 38.1743 23.0774 38.1242C23.1229 38.0734 23.1767 38.0339 23.2387 38.0055C23.3006 37.9771 23.3702 37.9639 23.4474 37.9659C23.5226 37.9672 23.5879 37.985 23.6433 38.0193C23.6987 38.053 23.7416 38.0988 23.7719 38.1569C23.8022 38.2149 23.8174 38.2809 23.8174 38.3547L23.6492 38.3537C23.6486 38.3115 23.6403 38.2726 23.6245 38.237C23.6087 38.2014 23.5852 38.1727 23.5542 38.1509C23.5232 38.1292 23.485 38.1173 23.4395 38.1153C23.3847 38.114 23.3369 38.1242 23.296 38.146C23.2558 38.1677 23.2215 38.1978 23.1931 38.236C23.1654 38.2736 23.1433 38.3155 23.1269 38.3616C23.111 38.4078 23.1001 38.4546 23.0942 38.5021L23.0893 38.5437C23.0853 38.5859 23.0846 38.6291 23.0873 38.6733C23.0906 38.7175 23.0998 38.7587 23.115 38.797C23.1302 38.8345 23.1536 38.8652 23.1852 38.889C23.2169 38.9127 23.2591 38.9252 23.3119 38.9266ZM24.2745 37.9857L24.0885 39.0562H23.9094L24.0954 37.9857H24.2745ZM24.131 37.7047C24.131 37.6737 24.1406 37.648 24.1597 37.6276C24.1795 37.6065 24.2049 37.5956 24.2359 37.5949C24.2669 37.5943 24.2923 37.6038 24.3121 37.6236C24.3325 37.6434 24.3424 37.6685 24.3417 37.6988C24.3417 37.7291 24.3315 37.7545 24.3111 37.775C24.2913 37.7948 24.2662 37.805 24.2359 37.8057C24.2055 37.8063 24.1805 37.7974 24.1607 37.7789C24.1409 37.7598 24.131 37.7351 24.131 37.7047ZM24.8315 37.5366L24.5673 39.0562H24.3882L24.6514 37.5366H24.8315ZM25.2321 37.9857L25.0461 39.0562H24.8671L25.0531 37.9857H25.2321ZM25.0887 37.7047C25.0887 37.6737 25.0982 37.648 25.1174 37.6276C25.1372 37.6065 25.1625 37.5956 25.1935 37.5949C25.2245 37.5943 25.2499 37.6038 25.2697 37.6236C25.2902 37.6434 25.3001 37.6685 25.2994 37.6988C25.2994 37.7291 25.2892 37.7545 25.2687 37.775C25.2489 37.7948 25.2239 37.805 25.1935 37.8057C25.1632 37.8063 25.1381 37.7974 25.1184 37.7789C25.0986 37.7598 25.0887 37.7351 25.0887 37.7047ZM25.9533 37.9857L25.9286 38.1262H25.3657L25.3904 37.9857H25.9533ZM25.6259 37.7255H25.804L25.6229 38.793C25.6209 38.8161 25.6216 38.8369 25.6249 38.8553C25.6282 38.8738 25.6361 38.8886 25.6486 38.8998C25.6612 38.9104 25.6803 38.916 25.706 38.9167C25.7205 38.9167 25.7347 38.9157 25.7486 38.9137C25.7631 38.9111 25.7776 38.9087 25.7921 38.9068L25.7792 39.0571C25.7581 39.0631 25.7364 39.0674 25.7139 39.07C25.6922 39.0733 25.6704 39.0746 25.6486 39.074C25.5939 39.0733 25.551 39.0595 25.52 39.0324C25.489 39.0054 25.4679 38.9704 25.4567 38.9275C25.4455 38.8847 25.4422 38.8388 25.4468 38.79L25.6259 37.7255ZM26.354 37.9857L26.168 39.0562H25.989L26.175 37.9857H26.354ZM26.2106 37.7047C26.2106 37.6737 26.2201 37.648 26.2393 37.6276C26.259 37.6065 26.2844 37.5956 26.3154 37.5949C26.3464 37.5943 26.3718 37.6038 26.3916 37.6236C26.4121 37.6434 26.422 37.6685 26.4213 37.6988C26.4213 37.7291 26.4111 37.7545 26.3906 37.775C26.3708 37.7948 26.3458 37.805 26.3154 37.8057C26.2851 37.8063 26.26 37.7974 26.2402 37.7789C26.2205 37.7598 26.2106 37.7351 26.2106 37.7047ZM26.9061 39.0759C26.8328 39.0746 26.7692 39.0601 26.7151 39.0324C26.6617 39.004 26.6178 38.9661 26.5835 38.9186C26.5499 38.8705 26.5258 38.8157 26.5113 38.7544C26.4968 38.6931 26.4925 38.6288 26.4985 38.5615L26.5024 38.519C26.509 38.4504 26.5258 38.3831 26.5529 38.3171C26.5799 38.2505 26.6159 38.1905 26.6607 38.1371C26.7062 38.0837 26.7596 38.0414 26.821 38.0104C26.883 37.9788 26.9516 37.9639 27.0268 37.9659C27.1013 37.9672 27.1633 37.9831 27.2127 38.0134C27.2622 38.0437 27.3008 38.084 27.3285 38.1341C27.3569 38.1836 27.3753 38.2393 27.3839 38.3013C27.3925 38.3626 27.3931 38.4256 27.3859 38.4903L27.375 38.5724H26.5984L26.6221 38.423L27.2147 38.424L27.2177 38.4081C27.2243 38.3607 27.2217 38.3148 27.2098 38.2706C27.1979 38.2264 27.1761 38.1902 27.1445 38.1618C27.1135 38.1328 27.0716 38.1176 27.0188 38.1163C26.9641 38.1143 26.9166 38.1255 26.8764 38.1499C26.8361 38.1737 26.8025 38.206 26.7755 38.2469C26.7484 38.2871 26.727 38.3313 26.7112 38.3795C26.696 38.4269 26.6854 38.4734 26.6795 38.519L26.6755 38.5605C26.6716 38.6027 26.6729 38.6453 26.6795 38.6881C26.6861 38.731 26.6986 38.7702 26.7171 38.8059C26.7362 38.8408 26.7626 38.8695 26.7962 38.8919C26.8299 38.9137 26.8714 38.9252 26.9209 38.9266C26.9809 38.9279 27.0347 38.915 27.0822 38.888C27.1303 38.8603 27.1742 38.8253 27.2137 38.7831L27.3156 38.8702C27.2846 38.9157 27.2477 38.9539 27.2048 38.9849C27.162 39.0159 27.1151 39.039 27.0644 39.0542C27.0136 39.0693 26.9608 39.0766 26.9061 39.0759ZM28.1566 38.7663C28.1625 38.7254 28.1549 38.6934 28.1338 38.6703C28.1134 38.6472 28.0863 38.6298 28.0527 38.6179C28.0197 38.6054 27.9874 38.5951 27.9557 38.5872C27.9162 38.5773 27.8763 38.5651 27.836 38.5506C27.7958 38.5361 27.7589 38.5176 27.7252 38.4952C27.6922 38.4721 27.6659 38.4438 27.6461 38.4101C27.6269 38.3758 27.6184 38.3343 27.6203 38.2855C27.623 38.2327 27.6368 38.1862 27.6619 38.146C27.6876 38.1057 27.7206 38.0721 27.7608 38.0451C27.8017 38.018 27.8462 37.9979 27.8944 37.9847C27.9425 37.9715 27.9904 37.9653 28.0378 37.9659C28.1051 37.9672 28.1661 37.9811 28.2209 38.0075C28.2763 38.0339 28.3201 38.0718 28.3524 38.1212C28.3848 38.1707 28.3999 38.2307 28.398 38.3013L28.2209 38.3003C28.2222 38.2627 28.2146 38.2304 28.1981 38.2034C28.1816 38.1763 28.1589 38.1555 28.1298 38.141C28.1008 38.1259 28.0679 38.1179 28.0309 38.1173C27.996 38.1166 27.9617 38.1222 27.928 38.1341C27.8944 38.1453 27.8657 38.1631 27.842 38.1875C27.8182 38.2113 27.8037 38.2423 27.7984 38.2805C27.7945 38.3089 27.7988 38.3323 27.8113 38.3508C27.8238 38.3686 27.841 38.3831 27.8627 38.3943C27.8852 38.4049 27.9086 38.4138 27.933 38.421C27.958 38.4276 27.9808 38.4335 28.0012 38.4388C28.0553 38.454 28.1087 38.4731 28.1615 38.4962C28.2143 38.5193 28.2571 38.5513 28.2901 38.5922C28.3231 38.6324 28.3379 38.6855 28.3346 38.7514C28.332 38.8075 28.3172 38.8563 28.2901 38.8979C28.2637 38.9388 28.2294 38.9727 28.1872 38.9998C28.1457 39.0261 28.0998 39.0456 28.0497 39.0581C27.9996 39.0707 27.9495 39.0766 27.8993 39.0759C27.8301 39.0746 27.7654 39.0604 27.7054 39.0334C27.6461 39.0057 27.5986 38.9661 27.563 38.9147C27.5274 38.8626 27.5105 38.7993 27.5125 38.7247L27.6916 38.7257C27.6916 38.7686 27.7005 38.8049 27.7183 38.8345C27.7368 38.8636 27.7622 38.8857 27.7945 38.9008C27.8268 38.916 27.8637 38.9239 27.9053 38.9246C27.9402 38.9252 27.9758 38.9206 28.0121 38.9107C28.0491 38.9008 28.0807 38.8843 28.1071 38.8613C28.1341 38.8375 28.1506 38.8059 28.1566 38.7663ZM29.3487 37.6157H29.5208L29.7751 38.788L30.435 37.6157H30.6249L29.8067 39.0562H29.6653L29.3487 37.6157ZM29.2864 37.6157H29.4456L29.319 38.5002L29.2221 39.0562H29.0361L29.2864 37.6157ZM30.5181 37.6157H30.6783L30.428 39.0562H30.243L30.342 38.4843L30.5181 37.6157ZM31.3718 38.8731L31.4609 38.3201C31.4655 38.2792 31.4615 38.2433 31.449 38.2123C31.4371 38.1813 31.417 38.1572 31.3887 38.14C31.361 38.1229 31.326 38.1137 31.2838 38.1123C31.2469 38.1117 31.2106 38.1176 31.175 38.1301C31.14 38.1427 31.1097 38.1615 31.084 38.1865C31.0582 38.2116 31.0414 38.2433 31.0335 38.2815L30.8554 38.2825C30.86 38.2291 30.8769 38.1826 30.9059 38.143C30.9349 38.1028 30.9712 38.0695 31.0147 38.0431C31.0582 38.016 31.1051 37.9963 31.1552 37.9837C31.2053 37.9705 31.2541 37.9643 31.3016 37.9649C31.3735 37.9663 31.4358 37.9818 31.4886 38.0114C31.542 38.0405 31.5822 38.0813 31.6093 38.1341C31.6363 38.1869 31.6462 38.2502 31.639 38.3241L31.5569 38.8227C31.5509 38.8589 31.5473 38.8956 31.546 38.9325C31.5453 38.9688 31.5496 39.0044 31.5588 39.0393L31.5569 39.0562L31.3758 39.0571C31.3686 39.0268 31.3649 38.9961 31.3649 38.9651C31.3656 38.9341 31.3679 38.9035 31.3718 38.8731ZM31.4817 38.4072L31.4609 38.5358L31.2917 38.5348C31.2561 38.5348 31.2185 38.5374 31.1789 38.5427C31.1394 38.548 31.1018 38.5579 31.0661 38.5724C31.0305 38.5869 31.0005 38.608 30.9761 38.6357C30.9517 38.6627 30.9369 38.698 30.9316 38.7415C30.9276 38.7772 30.9319 38.8082 30.9445 38.8345C30.9577 38.8603 30.9774 38.8804 31.0038 38.8949C31.0302 38.9094 31.0609 38.917 31.0958 38.9176C31.1413 38.9183 31.1862 38.9094 31.2304 38.8909C31.2746 38.8725 31.3132 38.8461 31.3461 38.8118C31.3791 38.7775 31.4019 38.7379 31.4144 38.6931L31.4797 38.7811C31.4672 38.8247 31.4467 38.8649 31.4183 38.9018C31.39 38.9381 31.3564 38.9694 31.3174 38.9958C31.2792 39.0222 31.238 39.0426 31.1938 39.0571C31.1496 39.0717 31.1054 39.0786 31.0612 39.0779C31.0012 39.0766 30.9468 39.0631 30.898 39.0374C30.8498 39.0116 30.8116 38.9757 30.7832 38.9295C30.7555 38.8827 30.7436 38.8283 30.7476 38.7663C30.7515 38.6983 30.7694 38.6413 30.801 38.5951C30.8327 38.549 30.8732 38.512 30.9227 38.4843C30.9728 38.4566 31.0276 38.4368 31.0869 38.425C31.1463 38.4124 31.205 38.4062 31.263 38.4062L31.4817 38.4072ZM32.1188 38.2251L31.9743 39.0562H31.7953L31.9813 37.9857H32.1504L32.1188 38.2251ZM32.0357 38.4804L31.9625 38.4784C31.9717 38.4144 31.9885 38.3518 32.0129 38.2904C32.038 38.2284 32.0706 38.1727 32.1109 38.1232C32.1518 38.0738 32.2002 38.0348 32.2563 38.0065C32.313 37.9775 32.3777 37.9639 32.4502 37.9659C32.5076 37.9672 32.5554 37.9785 32.5937 37.9996C32.6326 38.02 32.6629 38.048 32.6847 38.0837C32.7064 38.1193 32.721 38.1605 32.7282 38.2073C32.7355 38.2535 32.7361 38.3026 32.7302 38.3547L32.6134 39.0562H32.4334L32.5521 38.3518C32.5567 38.3089 32.5551 38.2703 32.5472 38.236C32.5399 38.2011 32.5234 38.1733 32.4977 38.1529C32.4726 38.1318 32.4364 38.1206 32.3889 38.1193C32.3387 38.1179 32.2936 38.1275 32.2533 38.148C32.2131 38.1684 32.1778 38.1964 32.1475 38.232C32.1178 38.267 32.0934 38.3062 32.0743 38.3498C32.0558 38.3926 32.0429 38.4362 32.0357 38.4804ZM33.5286 38.8731L33.6176 38.3201C33.6222 38.2792 33.6183 38.2433 33.6057 38.2123C33.5939 38.1813 33.5737 38.1572 33.5454 38.14C33.5177 38.1229 33.4827 38.1137 33.4405 38.1123C33.4036 38.1117 33.3673 38.1176 33.3317 38.1301C33.2967 38.1427 33.2664 38.1615 33.2407 38.1865C33.215 38.2116 33.1981 38.2433 33.1902 38.2815L33.0121 38.2825C33.0168 38.2291 33.0336 38.1826 33.0626 38.143C33.0916 38.1028 33.1279 38.0695 33.1714 38.0431C33.215 38.016 33.2618 37.9963 33.3119 37.9837C33.362 37.9705 33.4108 37.9643 33.4583 37.9649C33.5302 37.9663 33.5925 37.9818 33.6453 38.0114C33.6987 38.0405 33.739 38.0813 33.766 38.1341C33.793 38.1869 33.8029 38.2502 33.7957 38.3241L33.7136 38.8227C33.7076 38.8589 33.704 38.8956 33.7027 38.9325C33.702 38.9688 33.7063 39.0044 33.7155 39.0393L33.7136 39.0562L33.5325 39.0571C33.5253 39.0268 33.5216 38.9961 33.5216 38.9651C33.5223 38.9341 33.5246 38.9035 33.5286 38.8731ZM33.6384 38.4072L33.6176 38.5358L33.4484 38.5348C33.4128 38.5348 33.3752 38.5374 33.3356 38.5427C33.2961 38.548 33.2585 38.5579 33.2229 38.5724C33.1873 38.5869 33.1572 38.608 33.1328 38.6357C33.1084 38.6627 33.0936 38.698 33.0883 38.7415C33.0844 38.7772 33.0886 38.8082 33.1012 38.8345C33.1144 38.8603 33.1342 38.8804 33.1605 38.8949C33.1869 38.9094 33.2176 38.917 33.2525 38.9176C33.2981 38.9183 33.3429 38.9094 33.3871 38.8909C33.4313 38.8725 33.4699 38.8461 33.5028 38.8118C33.5358 38.7775 33.5586 38.7379 33.5711 38.6931L33.6364 38.7811C33.6239 38.8247 33.6034 38.8649 33.5751 38.9018C33.5467 38.9381 33.5131 38.9694 33.4742 38.9958C33.4359 39.0222 33.3947 39.0426 33.3505 39.0571C33.3063 39.0717 33.2621 39.0786 33.2179 39.0779C33.1579 39.0766 33.1035 39.0631 33.0547 39.0374C33.0065 39.0116 32.9683 38.9757 32.9399 38.9295C32.9122 38.8827 32.9003 38.8283 32.9043 38.7663C32.9083 38.6983 32.9261 38.6413 32.9577 38.5951C32.9894 38.549 33.0299 38.512 33.0794 38.4843C33.1295 38.4566 33.1843 38.4368 33.2436 38.425C33.303 38.4124 33.3617 38.4062 33.4197 38.4062L33.6384 38.4072ZM34.8097 37.9857H34.974L34.7949 39.0324C34.7824 39.1214 34.7537 39.1999 34.7088 39.2679C34.6646 39.3358 34.6066 39.3886 34.5347 39.4262C34.4635 39.4638 34.382 39.4816 34.2903 39.4796C34.2422 39.4783 34.195 39.47 34.1489 39.4548C34.1027 39.4397 34.0602 39.4182 34.0212 39.3905C33.9823 39.3628 33.9497 39.3289 33.9233 39.2886L34.0262 39.1818C34.0572 39.226 34.0938 39.2609 34.136 39.2867C34.1789 39.313 34.2277 39.3272 34.2824 39.3292C34.3424 39.3305 34.3955 39.3193 34.4417 39.2956C34.4885 39.2725 34.5265 39.2392 34.5555 39.1956C34.5852 39.1521 34.6046 39.101 34.6139 39.0423L34.7543 38.2123L34.8097 37.9857ZM34.0015 38.5407L34.0044 38.519C34.0123 38.453 34.0278 38.387 34.0509 38.3211C34.0747 38.2551 34.1063 38.1951 34.1459 38.141C34.1855 38.0863 34.234 38.0431 34.2913 38.0114C34.3487 37.9791 34.4157 37.9636 34.4922 37.9649C34.5614 37.9669 34.6191 37.9831 34.6653 38.0134C34.7115 38.0437 34.7477 38.084 34.7741 38.1341C34.8012 38.1836 34.8193 38.238 34.8285 38.2973C34.8384 38.3567 34.8414 38.4164 34.8374 38.4764L34.8266 38.5674C34.8153 38.6314 34.7969 38.6941 34.7712 38.7554C34.7454 38.8167 34.7121 38.8721 34.6712 38.9216C34.6303 38.9704 34.5815 39.009 34.5248 39.0374C34.4688 39.0657 34.4048 39.0789 34.3329 39.0769C34.2623 39.0743 34.2039 39.0562 34.1578 39.0225C34.1123 38.9889 34.077 38.9457 34.0519 38.8929C34.0269 38.8395 34.0107 38.7821 34.0034 38.7208C33.9962 38.6588 33.9955 38.5988 34.0015 38.5407ZM34.1845 38.518L34.1815 38.5397C34.1769 38.5793 34.1756 38.6209 34.1776 38.6644C34.1795 38.7079 34.1871 38.7491 34.2003 38.788C34.2135 38.8263 34.2346 38.858 34.2636 38.883C34.2933 38.9074 34.3335 38.9203 34.3843 38.9216C34.4384 38.9236 34.4885 38.9117 34.5347 38.886C34.5809 38.8603 34.6204 38.826 34.6534 38.7831C34.6864 38.7402 34.7101 38.6937 34.7247 38.6436L34.7632 38.4032C34.7652 38.3669 34.7609 38.332 34.7504 38.2983C34.7398 38.2647 34.724 38.2347 34.7029 38.2083C34.6824 38.1819 34.6574 38.1608 34.6277 38.145C34.598 38.1292 34.5644 38.1209 34.5268 38.1203C34.4714 38.1183 34.4236 38.1292 34.3833 38.1529C34.3431 38.176 34.3091 38.2073 34.2814 38.2469C34.2544 38.2865 34.233 38.33 34.2171 38.3775C34.2013 38.425 34.1904 38.4718 34.1845 38.518ZM35.5092 39.0759C35.436 39.0746 35.3723 39.0601 35.3182 39.0324C35.2648 39.004 35.221 38.9661 35.1867 38.9186C35.153 38.8705 35.129 38.8157 35.1144 38.7544C35.0999 38.6931 35.0956 38.6288 35.1016 38.5615L35.1055 38.519C35.1121 38.4504 35.129 38.3831 35.156 38.3171C35.183 38.2505 35.219 38.1905 35.2638 38.1371C35.3093 38.0837 35.3628 38.0414 35.4241 38.0104C35.4861 37.9788 35.5547 37.9639 35.6299 37.9659C35.7044 37.9672 35.7664 37.9831 35.8159 38.0134C35.8653 38.0437 35.9039 38.084 35.9316 38.1341C35.96 38.1836 35.9785 38.2393 35.987 38.3013C35.9956 38.3626 35.9963 38.4256 35.989 38.4903L35.9781 38.5724H35.2015L35.2253 38.423L35.8179 38.424L35.8208 38.4081C35.8274 38.3607 35.8248 38.3148 35.8129 38.2706C35.801 38.2264 35.7793 38.1902 35.7476 38.1618C35.7166 38.1328 35.6747 38.1176 35.622 38.1163C35.5672 38.1143 35.5197 38.1255 35.4795 38.1499C35.4393 38.1737 35.4056 38.206 35.3786 38.2469C35.3516 38.2871 35.3301 38.3313 35.3143 38.3795C35.2991 38.4269 35.2886 38.4734 35.2826 38.519L35.2787 38.5605C35.2747 38.6027 35.276 38.6453 35.2826 38.6881C35.2892 38.731 35.3018 38.7702 35.3202 38.8059C35.3394 38.8408 35.3657 38.8695 35.3994 38.8919C35.433 38.9137 35.4746 38.9252 35.524 38.9266C35.584 38.9279 35.6378 38.915 35.6853 38.888C35.7334 38.8603 35.7773 38.8253 35.8169 38.7831L35.9188 38.8702C35.8878 38.9157 35.8508 38.9539 35.808 38.9849C35.7651 39.0159 35.7183 39.039 35.6675 39.0542C35.6167 39.0693 35.5639 39.0766 35.5092 39.0759ZM36.4233 38.2093L36.2769 39.0562H36.0968L36.2828 37.9857H36.453L36.4233 38.2093ZM36.3432 38.4804L36.2621 38.4784C36.2713 38.4118 36.2878 38.3475 36.3115 38.2855C36.3353 38.2235 36.3669 38.1681 36.4065 38.1193C36.4467 38.0705 36.4952 38.0322 36.5519 38.0045C36.6087 37.9768 36.6743 37.9639 36.7488 37.9659C36.8042 37.9672 36.851 37.9781 36.8893 37.9986C36.9275 38.0184 36.9582 38.0457 36.9813 38.0807C37.005 38.115 37.0209 38.1546 37.0288 38.1994C37.0374 38.2443 37.0393 38.2921 37.0347 38.3429L36.915 39.0562H36.7359L36.8547 38.3508C36.8599 38.3059 36.8573 38.2663 36.8467 38.232C36.8369 38.1978 36.8181 38.1707 36.7904 38.1509C36.7627 38.1305 36.7251 38.1196 36.6776 38.1183C36.6241 38.117 36.5777 38.1262 36.5381 38.146C36.4992 38.1658 36.4665 38.1931 36.4401 38.2281C36.4144 38.2624 36.3936 38.3016 36.3778 38.3458C36.362 38.3894 36.3504 38.4342 36.3432 38.4804ZM37.0347 38.3795L36.9061 38.4171C36.914 38.3557 36.9305 38.2977 36.9556 38.2429C36.9813 38.1882 37.0146 38.1397 37.0555 38.0975C37.0964 38.0553 37.1439 38.0223 37.198 37.9986C37.252 37.9748 37.3117 37.9636 37.377 37.9649C37.4351 37.9663 37.4842 37.9771 37.5244 37.9976C37.5647 38.0174 37.5967 38.0447 37.6204 38.0797C37.6448 38.1146 37.661 38.1555 37.6689 38.2024C37.6774 38.2485 37.6788 38.2987 37.6728 38.3527L37.5551 39.0562H37.375L37.4938 38.3498C37.499 38.3043 37.4967 38.2644 37.4868 38.2301C37.4776 38.1958 37.4591 38.1691 37.4314 38.1499C37.4037 38.1301 37.3655 38.1199 37.3167 38.1193C37.2778 38.1179 37.2421 38.1239 37.2098 38.1371C37.1775 38.1503 37.1495 38.1691 37.1257 38.1935C37.102 38.2172 37.0822 38.2449 37.0664 38.2766C37.0512 38.3082 37.0407 38.3425 37.0347 38.3795ZM38.2753 39.0759C38.2021 39.0746 38.1385 39.0601 38.0844 39.0324C38.031 39.004 37.9871 38.9661 37.9528 38.9186C37.9192 38.8705 37.8951 38.8157 37.8806 38.7544C37.8661 38.6931 37.8618 38.6288 37.8677 38.5615L37.8717 38.519C37.8783 38.4504 37.8951 38.3831 37.9221 38.3171C37.9492 38.2505 37.9851 38.1905 38.03 38.1371C38.0755 38.0837 38.1289 38.0414 38.1902 38.0104C38.2522 37.9788 38.3208 37.9639 38.396 37.9659C38.4706 37.9672 38.5325 37.9831 38.582 38.0134C38.6315 38.0437 38.6701 38.084 38.6978 38.1341C38.7261 38.1836 38.7446 38.2393 38.7532 38.3013C38.7617 38.3626 38.7624 38.4256 38.7551 38.4903L38.7443 38.5724H37.9676L37.9914 38.423L38.584 38.424L38.587 38.4081C38.5936 38.3607 38.5909 38.3148 38.579 38.2706C38.5672 38.2264 38.5454 38.1902 38.5138 38.1618C38.4828 38.1328 38.4409 38.1176 38.3881 38.1163C38.3334 38.1143 38.2859 38.1255 38.2456 38.1499C38.2054 38.1737 38.1718 38.206 38.1447 38.2469C38.1177 38.2871 38.0963 38.3313 38.0804 38.3795C38.0653 38.4269 38.0547 38.4734 38.0488 38.519L38.0448 38.5605C38.0409 38.6027 38.0422 38.6453 38.0488 38.6881C38.0554 38.731 38.0679 38.7702 38.0864 38.8059C38.1055 38.8408 38.1319 38.8695 38.1655 38.8919C38.1991 38.9137 38.2407 38.9252 38.2902 38.9266C38.3502 38.9279 38.4039 38.915 38.4514 38.888C38.4996 38.8603 38.5434 38.8253 38.583 38.7831L38.6849 38.8702C38.6539 38.9157 38.617 38.9539 38.5741 38.9849C38.5312 39.0159 38.4844 39.039 38.4336 39.0542C38.3828 39.0693 38.3301 39.0766 38.2753 39.0759ZM39.1885 38.2251L39.044 39.0562H38.865L39.051 37.9857H39.2201L39.1885 38.2251ZM39.1054 38.4804L39.0322 38.4784C39.0414 38.4144 39.0582 38.3518 39.0826 38.2904C39.1077 38.2284 39.1403 38.1727 39.1806 38.1232C39.2214 38.0738 39.2699 38.0348 39.326 38.0065C39.3827 37.9775 39.4473 37.9639 39.5199 37.9659C39.5773 37.9672 39.6251 37.9785 39.6633 37.9996C39.7023 38.02 39.7326 38.048 39.7544 38.0837C39.7761 38.1193 39.7906 38.1605 39.7979 38.2073C39.8051 38.2535 39.8058 38.3026 39.7999 38.3547L39.6831 39.0562H39.5031L39.6218 38.3518C39.6264 38.3089 39.6248 38.2703 39.6168 38.236C39.6096 38.2011 39.5931 38.1733 39.5674 38.1529C39.5423 38.1318 39.506 38.1206 39.4586 38.1193C39.4084 38.1179 39.3632 38.1275 39.323 38.148C39.2828 38.1684 39.2475 38.1964 39.2172 38.232C39.1875 38.267 39.1631 38.3062 39.1439 38.3498C39.1255 38.3926 39.1126 38.4362 39.1054 38.4804ZM40.5735 37.9857L40.5488 38.1262H39.9859L40.0106 37.9857H40.5735ZM40.2461 37.7255H40.4241L40.2431 38.793C40.2411 38.8161 40.2418 38.8369 40.2451 38.8553C40.2484 38.8738 40.2563 38.8886 40.2688 38.8998C40.2813 38.9104 40.3005 38.916 40.3262 38.9167C40.3407 38.9167 40.3549 38.9157 40.3687 38.9137C40.3832 38.9111 40.3977 38.9087 40.4123 38.9068L40.3994 39.0571C40.3783 39.0631 40.3565 39.0674 40.3341 39.07C40.3123 39.0733 40.2906 39.0746 40.2688 39.074C40.2141 39.0733 40.1712 39.0595 40.1402 39.0324C40.1092 39.0054 40.0881 38.9704 40.0769 38.9275C40.0657 38.8847 40.0624 38.8388 40.067 38.79L40.2461 37.7255Z" fill="#F8F9FB"/>
</svg>
