<svg width="153" height="32" viewBox="0 0 153 32" fill="none" xmlns="http://www.w3.org/2000/svg">
<g filter="url(#filter0_d_2839_1308)">
<path d="M11.1648 6.73877H15.4301L14.3293 8.87139H11.9216C3.66625 13.0678 7.10596 25.038 17.9066 20.9792V16.4387H14.123L15.6364 14.3061H20.2457V22.4926C4.07901 28.6841 0.0889578 11.2792 11.1648 6.73877Z" fill="#6366F1" stroke="#6366F1" stroke-width="0.137588"/>
<path d="M33.3869 6.73877H29.1217L30.2224 8.87139H32.6302C40.8855 13.0678 37.4458 25.038 26.6451 20.9792V16.4387H30.4288L28.9153 14.3061H24.3061V22.4926C40.4727 28.6841 44.4628 11.2792 33.3869 6.73877Z" fill="#6366F1" stroke="#6366F1" stroke-width="0.137588"/>
<path d="M23.4811 0.134766H21.0045L13.0244 13.0681H21.0733V16.8517H23.6187V13.0681H27.196L25.9577 11.073H23.4811V0.134766Z" fill="#A5B4FC" stroke="#A5B4FC" stroke-width="0.137588"/>
<path d="M21.1417 11.0726V3.29883L16.1885 11.0726H21.1417Z" fill="white" stroke="white" stroke-width="0.137588"/>
<path d="M24.6504 5.01897V1.78564L31.9426 13.2743H28.5029L27.2646 11.0041H28.4341L24.6504 5.01897Z" fill="#6366F1" stroke="#6366F1" stroke-width="0.137588"/>
<path d="M57.0947 5.17789H63.9247C64.2268 5.18868 64.475 5.30197 64.6692 5.51777C64.8742 5.73356 64.9767 5.99252 64.9767 6.29464C64.9228 6.94203 64.5721 7.2927 63.9247 7.34665H57.645C57.235 7.36823 56.8951 7.52468 56.6254 7.81601C56.3556 8.10733 56.156 8.44182 56.0266 8.81946C55.9079 9.18632 55.8485 9.56396 55.8485 9.9524C55.8485 10.3408 55.9079 10.7239 56.0266 11.1015C56.156 11.4684 56.3556 11.7975 56.6254 12.0888C56.8951 12.3801 57.235 12.5366 57.645 12.5581H62.5652C62.7594 12.5474 62.8619 12.4395 62.8727 12.2345V11.2957C62.8619 11.0799 62.7594 10.972 62.5652 10.972H58.4219C58.1198 10.972 57.8608 10.8695 57.645 10.6645C57.44 10.4487 57.3375 10.1898 57.3375 9.88766C57.3375 9.58554 57.44 9.32659 57.645 9.11079C57.8608 8.90578 58.1198 8.80328 58.4219 8.80328H63.9571C64.2592 8.80328 64.5182 8.90578 64.734 9.11079C64.9282 9.3158 65.0307 9.56396 65.0415 9.85529V9.88766V13.6749C65.0307 13.9662 64.9282 14.209 64.734 14.4032C64.529 14.6082 64.2808 14.7161 63.9895 14.7269H57.0947C56.3395 14.6837 55.7136 14.3978 55.2173 13.8691C54.7318 13.3296 54.3811 12.72 54.1653 12.0402C53.9603 11.3605 53.8578 10.6645 53.8578 9.9524C53.8578 9.24027 53.9657 8.54432 54.1815 7.86456C54.3973 7.1848 54.748 6.58057 55.2335 6.05187C55.719 5.51237 56.3395 5.22105 57.0947 5.17789ZM76.6511 5.17789C77.2014 5.18868 77.6924 5.36131 78.124 5.6958C78.5556 6.03029 78.9008 6.42951 79.1598 6.89347C79.4295 7.35744 79.6291 7.84838 79.7586 8.36629C79.8881 8.8842 79.9528 9.4129 79.9528 9.9524C79.9528 10.6645 79.8395 11.3659 79.613 12.0564C79.3972 12.7362 79.0357 13.3404 78.5286 13.8691C78.0322 14.3978 77.4064 14.6837 76.6511 14.7269H71.0027C70.2474 14.6945 69.6162 14.414 69.109 13.8853C68.6019 13.3566 68.2405 12.747 68.0247 12.0564C67.8196 11.3659 67.7171 10.6645 67.7171 9.9524C67.7171 9.24027 67.825 8.54432 68.0408 7.86456C68.2566 7.17401 68.6127 6.56438 69.109 6.03568C69.6162 5.49619 70.2474 5.21026 71.0027 5.17789H71.3102H76.3436H76.6511ZM76.1009 12.5581C76.5109 12.5366 76.8508 12.3855 77.1205 12.105C77.401 11.8136 77.6007 11.4792 77.7193 11.1015C77.838 10.7239 77.8974 10.3408 77.8974 9.9524C77.8974 9.56396 77.8326 9.18632 77.7032 8.81946C77.5845 8.44182 77.3902 8.10733 77.1205 7.81601C76.8508 7.52468 76.5109 7.36823 76.1009 7.34665H71.5044C71.0944 7.36823 70.7545 7.52468 70.4847 7.81601C70.215 8.10733 70.0154 8.44182 69.8859 8.81946C69.7672 9.18632 69.7079 9.56396 69.7079 9.9524C69.7079 10.3408 69.7672 10.7239 69.8859 11.1015C70.0046 11.4792 70.1988 11.8136 70.4686 12.105C70.7491 12.3855 71.0944 12.5366 71.5044 12.5581H76.1009ZM90.64 4.91893C90.9313 4.92972 91.1795 5.03762 91.3845 5.24263C91.5895 5.43684 91.6974 5.67962 91.7082 5.97094V10.1628H92.6307C92.9328 10.1736 93.181 10.2869 93.3752 10.5027C93.5802 10.7185 93.6827 10.9774 93.6827 11.2795C93.6719 11.5709 93.564 11.819 93.359 12.024C93.1648 12.2183 92.922 12.3208 92.6307 12.3316H91.7082V13.9015C91.6434 14.5489 91.2874 14.8995 90.64 14.9535C90.3379 14.9535 90.0735 14.8564 89.8469 14.6622C89.6311 14.4572 89.5232 14.2036 89.5232 13.9015V12.3316H86.0921C85.3368 12.2884 84.7109 12.0348 84.2146 11.5709C83.7291 11.0961 83.3784 10.5189 83.1626 9.8391C82.9576 9.15934 82.8497 8.43642 82.8389 7.67034V5.97094C82.8497 5.67962 82.9576 5.43684 83.1626 5.24263C83.3676 5.03762 83.6158 4.92972 83.9071 4.91893C84.2092 4.91893 84.4682 5.02143 84.684 5.22644C84.8998 5.42066 85.0131 5.66883 85.0239 5.97094V7.47613C85.0131 7.91851 85.04 8.32852 85.1048 8.70617C85.1803 9.07302 85.3529 9.40211 85.6227 9.69344C85.8924 9.98477 86.2323 10.1412 86.6423 10.1628H89.5232V5.97094C89.534 5.66883 89.6473 5.42066 89.8631 5.22644C90.0789 5.02143 90.3379 4.91893 90.64 4.91893ZM99.563 5.17789H106.393C106.695 5.18868 106.943 5.30197 107.137 5.51777C107.342 5.73356 107.445 5.99252 107.445 6.29464C107.391 6.94203 107.04 7.2927 106.393 7.34665H100.113C99.7032 7.36823 99.3634 7.52468 99.0936 7.81601C98.8239 8.10733 98.6242 8.44182 98.4948 8.81946C98.3761 9.18632 98.3167 9.56396 98.3167 9.9524C98.3167 10.3408 98.3761 10.7239 98.4948 11.1015C98.6242 11.4684 98.8239 11.7975 99.0936 12.0888C99.3634 12.3801 99.7032 12.5366 100.113 12.5581H105.033C105.228 12.5474 105.33 12.4395 105.341 12.2345V11.2957C105.33 11.0799 105.228 10.972 105.033 10.972H100.89C100.588 10.972 100.329 10.8695 100.113 10.6645C99.9082 10.4487 99.8057 10.1898 99.8057 9.88766C99.8057 9.58554 99.9082 9.32659 100.113 9.11079C100.329 8.90578 100.588 8.80328 100.89 8.80328H106.425C106.727 8.80328 106.986 8.90578 107.202 9.11079C107.396 9.3158 107.499 9.56396 107.51 9.85529V9.88766V13.6749C107.499 13.9662 107.396 14.209 107.202 14.4032C106.997 14.6082 106.749 14.7161 106.458 14.7269H99.563C98.8077 14.6837 98.1819 14.3978 97.6855 13.8691C97.2 13.3296 96.8493 12.72 96.6335 12.0402C96.4285 11.3605 96.326 10.6645 96.326 9.9524C96.326 9.24027 96.4339 8.54432 96.6497 7.86456C96.8655 7.1848 97.2162 6.58057 97.7017 6.05187C98.1873 5.51237 98.8077 5.22105 99.563 5.17789ZM119.119 5.17789C119.67 5.18868 120.161 5.36131 120.592 5.6958C121.024 6.03029 121.369 6.42951 121.628 6.89347C121.898 7.35744 122.097 7.84838 122.227 8.36629C122.356 8.8842 122.421 9.4129 122.421 9.9524C122.421 10.6645 122.308 11.3659 122.081 12.0564C121.865 12.7362 121.504 13.3404 120.997 13.8691C120.5 14.3978 119.875 14.6837 119.119 14.7269H113.471C112.716 14.6945 112.084 14.414 111.577 13.8853C111.07 13.3566 110.709 12.747 110.493 12.0564C110.288 11.3659 110.185 10.6645 110.185 9.9524C110.185 9.24027 110.293 8.54432 110.509 7.86456C110.725 7.17401 111.081 6.56438 111.577 6.03568C112.084 5.49619 112.716 5.21026 113.471 5.17789H113.778H118.812H119.119ZM118.569 12.5581C118.979 12.5366 119.319 12.3855 119.589 12.105C119.869 11.8136 120.069 11.4792 120.188 11.1015C120.306 10.7239 120.366 10.3408 120.366 9.9524C120.366 9.56396 120.301 9.18632 120.171 8.81946C120.053 8.44182 119.858 8.10733 119.589 7.81601C119.319 7.52468 118.979 7.36823 118.569 7.34665H113.973C113.563 7.36823 113.223 7.52468 112.953 7.81601C112.683 8.10733 112.484 8.44182 112.354 8.81946C112.235 9.18632 112.176 9.56396 112.176 9.9524C112.176 10.3408 112.235 10.7239 112.354 11.1015C112.473 11.4792 112.667 11.8136 112.937 12.105C113.217 12.3855 113.563 12.5366 113.973 12.5581H118.569ZM126.181 4.91893C126.483 4.91893 126.742 5.02143 126.958 5.22644C127.174 5.42066 127.287 5.66883 127.298 5.97094V9.87147C127.287 10.3139 127.314 10.7239 127.379 11.1015C127.454 11.4684 127.627 11.7975 127.897 12.0888C128.166 12.3801 128.506 12.5366 128.916 12.5581H134.095C134.398 12.5689 134.646 12.6822 134.84 12.898C135.045 13.1138 135.147 13.3728 135.147 13.6749C135.137 13.9662 135.029 14.2144 134.824 14.4194C134.63 14.6136 134.387 14.7161 134.095 14.7269H128.366C127.611 14.6837 126.985 14.4302 126.489 13.9662C126.003 13.4915 125.652 12.9142 125.437 12.2345C125.232 11.5547 125.124 10.8318 125.113 10.0657V5.97094C125.124 5.67962 125.232 5.43684 125.437 5.24263C125.642 5.03762 125.89 4.92972 126.181 4.91893ZM144.621 5.17789C145.376 5.22105 145.996 5.51237 146.482 6.05187C146.968 6.58057 147.318 7.1848 147.534 7.86456C147.75 8.54432 147.858 9.24027 147.858 9.9524C147.858 10.6645 147.75 11.3605 147.534 12.0402C147.329 12.72 146.978 13.3296 146.482 13.8691C145.996 14.3978 145.376 14.6837 144.621 14.7269H138.665C138.373 14.7161 138.125 14.6136 137.92 14.4194C137.726 14.2144 137.624 13.9662 137.613 13.6749V9.66107C137.624 9.35896 137.737 9.11079 137.953 8.91657C138.168 8.71156 138.427 8.60906 138.729 8.60906C139.021 8.61985 139.269 8.72775 139.474 8.93276C139.679 9.12697 139.787 9.36975 139.798 9.66107V12.1212C139.798 12.4125 139.949 12.5581 140.251 12.5581H144.07C144.48 12.5366 144.82 12.3801 145.09 12.0888C145.36 11.7975 145.554 11.4684 145.673 11.1015C145.802 10.7239 145.867 10.3408 145.867 9.9524C145.867 9.56396 145.802 9.18632 145.673 8.81946C145.554 8.44182 145.36 8.10733 145.09 7.81601C144.82 7.52468 144.48 7.36823 144.07 7.34665H138.665C138.017 7.2927 137.667 6.94203 137.613 6.29464C137.613 5.99252 137.71 5.73356 137.904 5.51777C138.109 5.30197 138.363 5.18868 138.665 5.17789H144.621Z" fill="#030B20"/>
<path d="M102.723 19.4322L102.136 22.8096H101.697L102.284 19.4322H102.723ZM103.831 20.9516L103.766 21.3181H102.296L102.361 20.9516H103.831ZM104.316 19.4322L104.251 19.7987H102.56L102.625 19.4322H104.316ZM105.62 22.3804L105.829 21.0838C105.839 20.9879 105.83 20.9036 105.801 20.831C105.773 20.7583 105.726 20.7018 105.659 20.6616C105.594 20.6214 105.512 20.5998 105.413 20.5967C105.327 20.5951 105.242 20.609 105.158 20.6384C105.076 20.6678 105.005 20.7119 104.945 20.7706C104.885 20.8294 104.845 20.9036 104.827 20.9933L104.409 20.9956C104.42 20.8704 104.459 20.7614 104.527 20.6686C104.595 20.5742 104.68 20.4962 104.782 20.4343C104.885 20.3709 104.994 20.3245 105.112 20.2951C105.229 20.2642 105.344 20.2495 105.455 20.2511C105.624 20.2541 105.77 20.2905 105.894 20.3601C106.019 20.4281 106.113 20.524 106.177 20.6477C106.24 20.7714 106.263 20.9199 106.246 21.0931L106.054 22.2621C106.04 22.3472 106.031 22.433 106.028 22.5196C106.027 22.6047 106.037 22.6882 106.058 22.7701L106.054 22.8096L105.629 22.8119C105.612 22.7408 105.604 22.6688 105.604 22.5962C105.605 22.5235 105.611 22.4516 105.62 22.3804ZM105.877 21.2879L105.829 21.5895L105.432 21.5871C105.348 21.5871 105.26 21.5933 105.168 21.6057C105.075 21.6181 104.987 21.6413 104.903 21.6753C104.82 21.7093 104.749 21.7588 104.692 21.8237C104.635 21.8871 104.6 21.9699 104.588 22.0719C104.578 22.1554 104.588 22.2281 104.618 22.29C104.649 22.3503 104.695 22.3975 104.757 22.4315C104.819 22.4655 104.891 22.4833 104.973 22.4848C105.079 22.4864 105.185 22.4655 105.288 22.4222C105.392 22.3789 105.482 22.317 105.56 22.2366C105.637 22.1562 105.69 22.0634 105.72 21.9583L105.873 22.1647C105.843 22.2668 105.795 22.3611 105.729 22.4477C105.662 22.5328 105.584 22.6062 105.492 22.6681C105.403 22.7299 105.306 22.7779 105.202 22.8119C105.099 22.8459 104.995 22.8621 104.891 22.8606C104.751 22.8575 104.623 22.8258 104.509 22.7655C104.396 22.7052 104.306 22.6209 104.24 22.5127C104.175 22.4029 104.147 22.2753 104.156 22.1299C104.165 21.9706 104.207 21.8369 104.281 21.7286C104.356 21.6204 104.451 21.5338 104.567 21.4688C104.684 21.4039 104.813 21.3575 104.952 21.3297C105.091 21.3003 105.229 21.2856 105.365 21.2856L105.877 21.2879ZM107.659 22.5057C107.761 22.5072 107.856 22.4879 107.944 22.4477C108.032 22.4075 108.107 22.3503 108.169 22.2761C108.231 22.2018 108.275 22.116 108.301 22.0186L108.7 22.0163C108.676 22.1848 108.61 22.3325 108.503 22.4593C108.398 22.5861 108.269 22.6851 108.116 22.7562C107.964 22.8258 107.806 22.8591 107.64 22.856C107.464 22.8529 107.314 22.8165 107.19 22.7469C107.068 22.6758 106.97 22.5815 106.896 22.4639C106.821 22.3464 106.77 22.2142 106.743 22.0673C106.715 21.9188 106.709 21.7665 106.724 21.6103L106.733 21.5106C106.752 21.342 106.793 21.182 106.856 21.0304C106.92 20.8773 107.004 20.742 107.109 20.6245C107.216 20.5054 107.342 20.4127 107.487 20.3462C107.632 20.2797 107.796 20.2487 107.977 20.2534C108.153 20.2565 108.306 20.2982 108.436 20.3786C108.566 20.4575 108.666 20.565 108.737 20.7011C108.809 20.8371 108.844 20.9918 108.844 21.165L108.45 21.1627C108.448 21.0637 108.429 20.9724 108.392 20.8889C108.355 20.8054 108.3 20.7382 108.227 20.6871C108.154 20.6361 108.065 20.6083 107.958 20.6036C107.83 20.6005 107.718 20.6245 107.622 20.6755C107.527 20.7266 107.447 20.7969 107.38 20.8866C107.315 20.9748 107.264 21.073 107.225 21.1812C107.188 21.2895 107.162 21.3993 107.148 21.5106L107.137 21.608C107.128 21.707 107.126 21.8083 107.132 21.9119C107.14 22.0155 107.162 22.1121 107.197 22.2018C107.233 22.29 107.288 22.3619 107.362 22.4176C107.436 22.4732 107.535 22.5026 107.659 22.5057ZM109.916 20.2998L109.48 22.8096H109.06L109.496 20.2998H109.916ZM109.579 19.641C109.579 19.5683 109.602 19.508 109.647 19.4601C109.693 19.4106 109.753 19.3851 109.825 19.3835C109.898 19.382 109.957 19.4044 110.004 19.4508C110.052 19.4972 110.075 19.5559 110.073 19.6271C110.073 19.6982 110.05 19.7578 110.002 19.8057C109.955 19.8521 109.896 19.876 109.825 19.8776C109.754 19.8791 109.695 19.8583 109.649 19.815C109.603 19.7701 109.579 19.7121 109.579 19.641ZM111.222 19.2467L110.602 22.8096H110.182L110.8 19.2467H111.222ZM112.161 20.2998L111.725 22.8096H111.305L111.741 20.2998H112.161ZM111.825 19.641C111.825 19.5683 111.847 19.508 111.892 19.4601C111.938 19.4106 111.998 19.3851 112.071 19.3835C112.143 19.382 112.203 19.4044 112.249 19.4508C112.297 19.4972 112.32 19.5559 112.319 19.6271C112.319 19.6982 112.295 19.7578 112.247 19.8057C112.201 19.8521 112.142 19.876 112.071 19.8776C112 19.8791 111.941 19.8583 111.894 19.815C111.848 19.7701 111.825 19.7121 111.825 19.641ZM113.852 20.2998L113.794 20.6291H112.474L112.532 20.2998H113.852ZM113.084 19.6897H113.502L113.077 22.1926C113.073 22.2467 113.074 22.2954 113.082 22.3387C113.09 22.382 113.108 22.4168 113.138 22.4431C113.167 22.4678 113.212 22.481 113.272 22.4825C113.306 22.4825 113.339 22.4802 113.372 22.4755C113.406 22.4694 113.44 22.4639 113.474 22.4593L113.444 22.8119C113.394 22.8258 113.343 22.8359 113.291 22.842C113.24 22.8498 113.189 22.8529 113.138 22.8513C113.009 22.8498 112.909 22.8173 112.836 22.7539C112.763 22.6905 112.714 22.6085 112.688 22.508C112.661 22.4075 112.654 22.3 112.664 22.1856L113.084 19.6897ZM114.792 20.2998L114.355 22.8096H113.936L114.372 20.2998H114.792ZM114.455 19.641C114.455 19.5683 114.478 19.508 114.522 19.4601C114.569 19.4106 114.628 19.3851 114.701 19.3835C114.774 19.382 114.833 19.4044 114.88 19.4508C114.928 19.4972 114.951 19.5559 114.949 19.6271C114.949 19.6982 114.925 19.7578 114.877 19.8057C114.831 19.8521 114.772 19.876 114.701 19.8776C114.63 19.8791 114.571 19.8583 114.525 19.815C114.478 19.7701 114.455 19.7121 114.455 19.641ZM116.086 22.856C115.914 22.8529 115.765 22.8188 115.638 22.7539C115.513 22.6874 115.41 22.5985 115.33 22.4871C115.251 22.3743 115.194 22.2459 115.16 22.1021C115.126 21.9583 115.116 21.8075 115.13 21.6498L115.139 21.55C115.155 21.3892 115.194 21.2315 115.258 21.0768C115.321 20.9206 115.405 20.7799 115.511 20.6547C115.617 20.5294 115.743 20.4304 115.886 20.3578C116.032 20.2835 116.193 20.2487 116.369 20.2534C116.544 20.2565 116.689 20.2936 116.805 20.3647C116.921 20.4358 117.011 20.5302 117.076 20.6477C117.143 20.7637 117.186 20.8944 117.206 21.0397C117.226 21.1835 117.228 21.3312 117.211 21.4828L117.185 21.6753H115.364L115.42 21.325L116.81 21.3273L116.817 21.2902C116.832 21.1789 116.826 21.0714 116.798 20.9678C116.77 20.8642 116.719 20.7791 116.645 20.7127C116.572 20.6446 116.474 20.609 116.35 20.606C116.222 20.6013 116.111 20.6276 116.016 20.6848C115.922 20.7405 115.843 20.8163 115.78 20.9121C115.716 21.0065 115.666 21.1101 115.629 21.223C115.593 21.3343 115.569 21.4433 115.555 21.55L115.545 21.6475C115.536 21.7464 115.539 21.8462 115.555 21.9467C115.57 22.0472 115.6 22.1392 115.643 22.2227C115.688 22.3047 115.75 22.3719 115.828 22.4245C115.907 22.4755 116.005 22.5026 116.121 22.5057C116.261 22.5088 116.387 22.4786 116.499 22.4152C116.612 22.3503 116.714 22.2683 116.807 22.1694L117.046 22.3735C116.974 22.4802 116.887 22.5699 116.786 22.6426C116.686 22.7152 116.576 22.7694 116.457 22.8049C116.338 22.8405 116.214 22.8575 116.086 22.856ZM119.018 22.1299C119.032 22.0341 119.014 21.9591 118.965 21.9049C118.917 21.8508 118.853 21.8098 118.774 21.782C118.697 21.7526 118.621 21.7286 118.547 21.7101C118.454 21.6869 118.361 21.6583 118.266 21.6243C118.172 21.5902 118.085 21.5469 118.007 21.4944C117.929 21.4402 117.867 21.3737 117.821 21.2949C117.776 21.2145 117.756 21.117 117.761 21.0026C117.767 20.8789 117.799 20.7699 117.858 20.6755C117.918 20.5812 117.996 20.5023 118.09 20.4389C118.186 20.3755 118.29 20.3284 118.403 20.2974C118.516 20.2665 118.628 20.2518 118.74 20.2534C118.897 20.2565 119.04 20.2889 119.169 20.3508C119.299 20.4127 119.401 20.5016 119.477 20.6175C119.553 20.7335 119.588 20.8743 119.584 21.0397L119.169 21.0374C119.172 20.9493 119.154 20.8735 119.115 20.8101C119.077 20.7467 119.023 20.698 118.955 20.6639C118.887 20.6284 118.81 20.6098 118.723 20.6083C118.641 20.6067 118.561 20.6199 118.482 20.6477C118.403 20.674 118.336 20.7157 118.28 20.773C118.225 20.8286 118.191 20.9013 118.178 20.991C118.169 21.0575 118.179 21.1124 118.208 21.1557C118.238 21.1974 118.278 21.2315 118.329 21.2578C118.382 21.2825 118.436 21.3034 118.494 21.3204C118.552 21.3359 118.606 21.3498 118.654 21.3621C118.78 21.3977 118.906 21.4426 119.029 21.4967C119.153 21.5508 119.254 21.6258 119.331 21.7217C119.408 21.816 119.443 21.9405 119.435 22.0951C119.429 22.2266 119.394 22.341 119.331 22.4384C119.269 22.5343 119.189 22.614 119.09 22.6774C118.992 22.7392 118.885 22.7848 118.767 22.8142C118.65 22.8436 118.532 22.8575 118.415 22.856C118.252 22.8529 118.101 22.8196 117.96 22.7562C117.821 22.6913 117.71 22.5985 117.626 22.4779C117.543 22.3557 117.503 22.2072 117.508 22.0325L117.928 22.0348C117.928 22.1353 117.949 22.2204 117.99 22.29C118.034 22.358 118.093 22.4098 118.169 22.4454C118.245 22.481 118.331 22.4995 118.429 22.5011C118.511 22.5026 118.594 22.4918 118.679 22.4686C118.766 22.4454 118.84 22.4067 118.902 22.3526C118.965 22.2969 119.004 22.2227 119.018 22.1299ZM121.813 19.4322H122.217L122.813 22.181L124.36 19.4322H124.805L122.887 22.8096H122.555L121.813 19.4322ZM121.667 19.4322H122.04L121.743 21.506L121.516 22.8096H121.08L121.667 19.4322ZM124.555 19.4322H124.931L124.344 22.8096H123.91L124.142 21.4688L124.555 19.4322ZM126.557 22.3804L126.765 21.0838C126.776 20.9879 126.767 20.9036 126.737 20.831C126.71 20.7583 126.662 20.7018 126.596 20.6616C126.531 20.6214 126.449 20.5998 126.35 20.5967C126.264 20.5951 126.178 20.609 126.095 20.6384C126.013 20.6678 125.942 20.7119 125.882 20.7706C125.821 20.8294 125.782 20.9036 125.763 20.9933L125.346 20.9956C125.357 20.8704 125.396 20.7614 125.464 20.6686C125.532 20.5742 125.617 20.4962 125.719 20.4343C125.821 20.3709 125.931 20.3245 126.049 20.2951C126.166 20.2642 126.281 20.2495 126.392 20.2511C126.56 20.2541 126.707 20.2905 126.83 20.3601C126.956 20.4281 127.05 20.524 127.113 20.6477C127.177 20.7714 127.2 20.9199 127.183 21.0931L126.99 22.2621C126.976 22.3472 126.968 22.433 126.965 22.5196C126.963 22.6047 126.973 22.6882 126.995 22.7701L126.99 22.8096L126.566 22.8119C126.549 22.7408 126.54 22.6688 126.54 22.5962C126.542 22.5235 126.547 22.4516 126.557 22.3804ZM126.814 21.2879L126.765 21.5895L126.369 21.5871C126.285 21.5871 126.197 21.5933 126.104 21.6057C126.011 21.6181 125.923 21.6413 125.84 21.6753C125.756 21.7093 125.686 21.7588 125.629 21.8237C125.571 21.8871 125.537 21.9699 125.524 22.0719C125.515 22.1554 125.525 22.2281 125.554 22.29C125.585 22.3503 125.632 22.3975 125.694 22.4315C125.756 22.4655 125.827 22.4833 125.909 22.4848C126.016 22.4864 126.121 22.4655 126.225 22.4222C126.328 22.3789 126.419 22.317 126.496 22.2366C126.574 22.1562 126.627 22.0634 126.656 21.9583L126.809 22.1647C126.78 22.2668 126.732 22.3611 126.666 22.4477C126.599 22.5328 126.52 22.6062 126.429 22.6681C126.339 22.7299 126.243 22.7779 126.139 22.8119C126.035 22.8459 125.932 22.8621 125.828 22.8606C125.687 22.8575 125.56 22.8258 125.445 22.7655C125.333 22.7052 125.243 22.6209 125.176 22.5127C125.111 22.4029 125.084 22.2753 125.093 22.1299C125.102 21.9706 125.144 21.8369 125.218 21.7286C125.292 21.6204 125.387 21.5338 125.503 21.4688C125.621 21.4039 125.749 21.3575 125.889 21.3297C126.028 21.3003 126.165 21.2856 126.301 21.2856L126.814 21.2879ZM128.308 20.8611L127.969 22.8096H127.549L127.985 20.2998H128.382L128.308 20.8611ZM128.113 21.4596L127.941 21.4549C127.963 21.3049 128.002 21.158 128.06 21.0142C128.118 20.8688 128.195 20.7382 128.289 20.6222C128.385 20.5062 128.499 20.415 128.63 20.3485C128.763 20.2804 128.915 20.2487 129.085 20.2534C129.219 20.2565 129.332 20.2828 129.421 20.3322C129.512 20.3802 129.584 20.4459 129.635 20.5294C129.686 20.6129 129.72 20.7096 129.737 20.8194C129.754 20.9276 129.755 21.0428 129.741 21.165L129.468 22.8096H129.045L129.324 21.158C129.335 21.0575 129.331 20.967 129.312 20.8866C129.295 20.8047 129.257 20.7397 129.196 20.6918C129.137 20.6423 129.052 20.616 128.941 20.6129C128.824 20.6098 128.718 20.6322 128.623 20.6802C128.529 20.7281 128.446 20.7938 128.375 20.8773C128.306 20.9593 128.248 21.0513 128.203 21.1534C128.16 21.2539 128.13 21.356 128.113 21.4596ZM131.613 22.3804L131.822 21.0838C131.833 20.9879 131.824 20.9036 131.794 20.831C131.766 20.7583 131.719 20.7018 131.653 20.6616C131.588 20.6214 131.506 20.5998 131.407 20.5967C131.32 20.5951 131.235 20.609 131.152 20.6384C131.07 20.6678 130.999 20.7119 130.938 20.7706C130.878 20.8294 130.839 20.9036 130.82 20.9933L130.402 20.9956C130.413 20.8704 130.453 20.7614 130.521 20.6686C130.589 20.5742 130.674 20.4962 130.776 20.4343C130.878 20.3709 130.988 20.3245 131.105 20.2951C131.223 20.2642 131.337 20.2495 131.449 20.2511C131.617 20.2541 131.763 20.2905 131.887 20.3601C132.012 20.4281 132.107 20.524 132.17 20.6477C132.233 20.7714 132.257 20.9199 132.24 21.0931L132.047 22.2621C132.033 22.3472 132.025 22.433 132.022 22.5196C132.02 22.6047 132.03 22.6882 132.052 22.7701L132.047 22.8096L131.623 22.8119C131.606 22.7408 131.597 22.6688 131.597 22.5962C131.599 22.5235 131.604 22.4516 131.613 22.3804ZM131.871 21.2879L131.822 21.5895L131.425 21.5871C131.342 21.5871 131.254 21.5933 131.161 21.6057C131.068 21.6181 130.98 21.6413 130.897 21.6753C130.813 21.7093 130.743 21.7588 130.685 21.8237C130.628 21.8871 130.593 21.9699 130.581 22.0719C130.572 22.1554 130.582 22.2281 130.611 22.29C130.642 22.3503 130.689 22.3975 130.75 22.4315C130.812 22.4655 130.884 22.4833 130.966 22.4848C131.073 22.4864 131.178 22.4655 131.282 22.4222C131.385 22.3789 131.476 22.317 131.553 22.2366C131.63 22.1562 131.684 22.0634 131.713 21.9583L131.866 22.1647C131.837 22.2668 131.789 22.3611 131.722 22.4477C131.656 22.5328 131.577 22.6062 131.486 22.6681C131.396 22.7299 131.299 22.7779 131.196 22.8119C131.092 22.8459 130.989 22.8621 130.885 22.8606C130.744 22.8575 130.617 22.8258 130.502 22.7655C130.389 22.7052 130.3 22.6209 130.233 22.5127C130.168 22.4029 130.14 22.2753 130.15 22.1299C130.159 21.9706 130.201 21.8369 130.275 21.7286C130.349 21.6204 130.444 21.5338 130.56 21.4688C130.678 21.4039 130.806 21.3575 130.945 21.3297C131.084 21.3003 131.222 21.2856 131.358 21.2856L131.871 21.2879ZM134.617 20.2998H135.002L134.582 22.7539C134.553 22.9627 134.486 23.1467 134.381 23.306C134.277 23.4652 134.141 23.589 133.972 23.6771C133.805 23.7652 133.614 23.807 133.399 23.8024C133.286 23.7993 133.176 23.7799 133.068 23.7444C132.959 23.7088 132.86 23.6585 132.768 23.5936C132.677 23.5286 132.601 23.449 132.539 23.3547L132.78 23.1042C132.853 23.2078 132.939 23.2897 133.038 23.35C133.138 23.4119 133.252 23.4451 133.381 23.4498C133.522 23.4529 133.646 23.4266 133.754 23.3709C133.864 23.3168 133.953 23.2387 134.021 23.1366C134.091 23.0346 134.136 22.9147 134.158 22.7771L134.487 20.831L134.617 20.2998ZM132.722 21.6011L132.729 21.55C132.748 21.3954 132.784 21.2407 132.838 21.0861C132.894 20.9315 132.968 20.7907 133.061 20.6639C133.153 20.5356 133.267 20.4343 133.402 20.3601C133.536 20.2843 133.693 20.248 133.873 20.2511C134.035 20.2557 134.17 20.2936 134.278 20.3647C134.387 20.4358 134.472 20.5302 134.534 20.6477C134.597 20.7637 134.64 20.8913 134.661 21.0304C134.684 21.1696 134.691 21.3096 134.682 21.4503L134.657 21.6637C134.63 21.8137 134.587 21.9606 134.527 22.1044C134.466 22.2482 134.388 22.3781 134.292 22.4941C134.197 22.6085 134.082 22.699 133.949 22.7655C133.818 22.832 133.668 22.8629 133.499 22.8583C133.334 22.8521 133.197 22.8096 133.089 22.7307C132.982 22.6518 132.899 22.5505 132.84 22.4268C132.782 22.3016 132.744 22.167 132.727 22.0232C132.71 21.8779 132.708 21.7371 132.722 21.6011ZM133.151 21.5477L133.144 21.5987C133.133 21.6915 133.13 21.7889 133.135 21.891C133.14 21.9931 133.157 22.0897 133.188 22.181C133.219 22.2706 133.269 22.3449 133.337 22.4036C133.406 22.4609 133.501 22.491 133.62 22.4941C133.747 22.4987 133.864 22.4709 133.972 22.4106C134.081 22.3503 134.173 22.2699 134.251 22.1694C134.328 22.0688 134.384 21.9598 134.418 21.8423L134.508 21.2786C134.513 21.1936 134.503 21.1116 134.478 21.0328C134.453 20.9539 134.416 20.8835 134.367 20.8217C134.319 20.7598 134.26 20.7103 134.19 20.6732C134.121 20.6361 134.042 20.6168 133.954 20.6152C133.824 20.6106 133.712 20.6361 133.617 20.6918C133.523 20.7459 133.443 20.8194 133.378 20.9121C133.315 21.0049 133.265 21.107 133.228 21.2183C133.191 21.3297 133.165 21.4395 133.151 21.5477ZM136.257 22.856C136.085 22.8529 135.936 22.8188 135.809 22.7539C135.684 22.6874 135.581 22.5985 135.501 22.4871C135.422 22.3743 135.366 22.2459 135.332 22.1021C135.298 21.9583 135.288 21.8075 135.301 21.6498L135.311 21.55C135.326 21.3892 135.366 21.2315 135.429 21.0768C135.492 20.9206 135.577 20.7799 135.682 20.6547C135.789 20.5294 135.914 20.4304 136.058 20.3578C136.203 20.2835 136.364 20.2487 136.54 20.2534C136.715 20.2565 136.86 20.2936 136.976 20.3647C137.092 20.4358 137.183 20.5302 137.248 20.6477C137.314 20.7637 137.357 20.8944 137.377 21.0397C137.398 21.1835 137.399 21.3312 137.382 21.4828L137.357 21.6753H135.536L135.591 21.325L136.981 21.3273L136.988 21.2902C137.003 21.1789 136.997 21.0714 136.969 20.9678C136.941 20.8642 136.89 20.7791 136.816 20.7127C136.743 20.6446 136.645 20.609 136.522 20.606C136.393 20.6013 136.282 20.6276 136.188 20.6848C136.093 20.7405 136.014 20.8163 135.951 20.9121C135.888 21.0065 135.837 21.1101 135.8 21.223C135.765 21.3343 135.74 21.4433 135.726 21.55L135.717 21.6475C135.707 21.7464 135.71 21.8462 135.726 21.9467C135.741 22.0472 135.771 22.1392 135.814 22.2227C135.859 22.3047 135.921 22.3719 136 22.4245C136.079 22.4755 136.176 22.5026 136.292 22.5057C136.433 22.5088 136.559 22.4786 136.67 22.4152C136.783 22.3503 136.886 22.2683 136.979 22.1694L137.217 22.3735C137.145 22.4802 137.058 22.5699 136.958 22.6426C136.857 22.7152 136.747 22.7694 136.628 22.8049C136.509 22.8405 136.385 22.8575 136.257 22.856ZM138.4 20.824L138.057 22.8096H137.635L138.071 20.2998H138.47L138.4 20.824ZM138.213 21.4596L138.022 21.4549C138.044 21.2987 138.083 21.148 138.138 21.0026C138.194 20.8572 138.268 20.7273 138.361 20.6129C138.455 20.4985 138.569 20.4088 138.702 20.3438C138.835 20.2789 138.989 20.2487 139.164 20.2534C139.293 20.2565 139.403 20.282 139.493 20.3299C139.583 20.3763 139.655 20.4405 139.709 20.5224C139.764 20.6029 139.801 20.6956 139.82 20.8008C139.84 20.906 139.845 21.0181 139.834 21.1371L139.553 22.8096H139.133L139.412 21.1557C139.424 21.0505 139.418 20.9578 139.393 20.8773C139.37 20.7969 139.326 20.7335 139.261 20.6871C139.196 20.6392 139.108 20.6137 138.997 20.6106C138.871 20.6075 138.762 20.6291 138.67 20.6755C138.578 20.7219 138.502 20.7861 138.44 20.8681C138.38 20.9485 138.331 21.0405 138.294 21.1441C138.257 21.2462 138.23 21.3513 138.213 21.4596ZM139.834 21.223L139.532 21.3111C139.551 21.1673 139.59 21.0312 139.648 20.9029C139.709 20.7745 139.787 20.6608 139.883 20.5619C139.979 20.4629 140.09 20.3856 140.217 20.3299C140.343 20.2742 140.483 20.248 140.637 20.2511C140.773 20.2541 140.888 20.2797 140.982 20.3276C141.076 20.374 141.151 20.4382 141.207 20.5201C141.264 20.6021 141.302 20.698 141.321 20.8078C141.341 20.916 141.344 21.0335 141.33 21.1603L141.054 22.8096H140.632L140.91 21.1534C140.923 21.0467 140.917 20.9531 140.894 20.8727C140.872 20.7923 140.829 20.7297 140.764 20.6848C140.699 20.6384 140.609 20.6145 140.495 20.6129C140.404 20.6098 140.32 20.6237 140.245 20.6547C140.169 20.6856 140.103 20.7297 140.047 20.7869C139.992 20.8425 139.945 20.9075 139.908 20.9817C139.873 21.056 139.848 21.1364 139.834 21.223ZM142.743 22.856C142.571 22.8529 142.422 22.8188 142.295 22.7539C142.17 22.6874 142.067 22.5985 141.987 22.4871C141.908 22.3743 141.851 22.2459 141.817 22.1021C141.783 21.9583 141.773 21.8075 141.787 21.6498L141.796 21.55C141.812 21.3892 141.851 21.2315 141.915 21.0768C141.978 20.9206 142.062 20.7799 142.167 20.6547C142.274 20.5294 142.399 20.4304 142.543 20.3578C142.689 20.2835 142.849 20.2487 143.026 20.2534C143.2 20.2565 143.346 20.2936 143.462 20.3647C143.578 20.4358 143.668 20.5302 143.733 20.6477C143.8 20.7637 143.843 20.8944 143.863 21.0397C143.883 21.1835 143.885 21.3312 143.868 21.4828L143.842 21.6753H142.021L142.077 21.325L143.466 21.3273L143.473 21.2902C143.489 21.1789 143.483 21.0714 143.455 20.9678C143.427 20.8642 143.376 20.7791 143.302 20.7127C143.229 20.6446 143.131 20.609 143.007 20.606C142.879 20.6013 142.767 20.6276 142.673 20.6848C142.579 20.7405 142.5 20.8163 142.437 20.9121C142.373 21.0065 142.323 21.1101 142.286 21.223C142.25 21.3343 142.225 21.4433 142.212 21.55L142.202 21.6475C142.193 21.7464 142.196 21.8462 142.212 21.9467C142.227 22.0472 142.256 22.1392 142.3 22.2227C142.345 22.3047 142.406 22.3719 142.485 22.4245C142.564 22.4755 142.662 22.5026 142.778 22.5057C142.918 22.5088 143.044 22.4786 143.156 22.4152C143.268 22.3503 143.371 22.2683 143.464 22.1694L143.703 22.3735C143.63 22.4802 143.544 22.5699 143.443 22.6426C143.343 22.7152 143.233 22.7694 143.114 22.8049C142.995 22.8405 142.871 22.8575 142.743 22.856ZM144.884 20.8611L144.545 22.8096H144.125L144.561 20.2998H144.958L144.884 20.8611ZM144.689 21.4596L144.517 21.4549C144.539 21.3049 144.578 21.158 144.636 21.0142C144.694 20.8688 144.771 20.7382 144.865 20.6222C144.961 20.5062 145.075 20.415 145.206 20.3485C145.339 20.2804 145.491 20.2487 145.661 20.2534C145.795 20.2565 145.907 20.2828 145.997 20.3322C146.088 20.3802 146.159 20.4459 146.211 20.5294C146.262 20.6129 146.296 20.7096 146.313 20.8194C146.33 20.9276 146.331 21.0428 146.317 21.165L146.044 22.8096H145.621L145.9 21.158C145.911 21.0575 145.907 20.967 145.888 20.8866C145.871 20.8047 145.832 20.7397 145.772 20.6918C145.713 20.6423 145.628 20.616 145.517 20.6129C145.399 20.6098 145.294 20.6322 145.199 20.6802C145.105 20.7281 145.022 20.7938 144.951 20.8773C144.881 20.9593 144.824 21.0513 144.779 21.1534C144.736 21.2539 144.706 21.356 144.689 21.4596ZM148.131 20.2998L148.073 20.6291H146.753L146.811 20.2998H148.131ZM147.363 19.6897H147.781L147.356 22.1926C147.352 22.2467 147.353 22.2954 147.361 22.3387C147.369 22.382 147.387 22.4168 147.417 22.4431C147.446 22.4678 147.491 22.481 147.551 22.4825C147.585 22.4825 147.619 22.4802 147.651 22.4755C147.685 22.4694 147.719 22.4639 147.753 22.4593L147.723 22.8119C147.673 22.8258 147.622 22.8359 147.57 22.842C147.519 22.8498 147.468 22.8529 147.417 22.8513C147.288 22.8498 147.188 22.8173 147.115 22.7539C147.042 22.6905 146.993 22.6085 146.967 22.508C146.94 22.4075 146.933 22.3 146.944 22.1856L147.363 19.6897Z" fill="#030B20"/>
</g>
<defs>
<filter id="filter0_d_2839_1308" x="0.837891" y="0.065918" width="152.162" height="31.812" filterUnits="userSpaceOnUse" color-interpolation-filters="sRGB">
<feFlood flood-opacity="0" result="BackgroundImageFix"/>
<feColorMatrix in="SourceAlpha" type="matrix" values="0 0 0 0 0 0 0 0 0 0 0 0 0 0 0 0 0 0 127 0" result="hardAlpha"/>
<feOffset dy="4"/>
<feGaussianBlur stdDeviation="2"/>
<feComposite in2="hardAlpha" operator="out"/>
<feColorMatrix type="matrix" values="0 0 0 0 0 0 0 0 0 0 0 0 0 0 0 0 0 0 0.25 0"/>
<feBlend mode="normal" in2="BackgroundImageFix" result="effect1_dropShadow_2839_1308"/>
<feBlend mode="normal" in="SourceGraphic" in2="effect1_dropShadow_2839_1308" result="shape"/>
</filter>
</defs>
</svg>
