<svg width="32" height="32" viewBox="0 0 32 32" fill="none" xmlns="http://www.w3.org/2000/svg">
<path fill-rule="evenodd" clip-rule="evenodd" d="M17.1111 6.88027C17.1111 9.79466 14.7486 12.1572 11.8343 12.1572C8.91996 12.1572 6.55741 9.79466 6.55741 6.88027C6.55741 3.96589 8.91996 1.60334 11.8343 1.60334C14.7486 1.60334 17.1111 3.96589 17.1111 6.88027ZM18.7145 6.88027C18.7145 10.6801 15.6341 13.7605 11.8343 13.7605C8.03444 13.7605 4.95407 10.6801 4.95407 6.88027C4.95407 3.0804 8.03444 0 11.8343 0C15.6341 0 18.7145 3.0804 18.7145 6.88027ZM7.23865 17.6572H16.4297C19.3366 17.6572 21.6979 20.022 21.6979 22.9342C21.6979 25.8463 19.3366 28.2111 16.4297 28.2111H7.23865C4.33182 28.2111 1.97053 25.8463 1.97053 22.9342C1.97053 20.022 4.33182 17.6572 7.23865 17.6572ZM0.367188 22.9342C0.367188 19.1392 3.44365 16.0539 7.23865 16.0539H16.4297C20.2247 16.0539 23.3012 19.1392 23.3012 22.9342C23.3012 26.7292 20.2247 29.8144 16.4297 29.8144H7.23865C3.44364 29.8144 0.367188 26.7292 0.367188 22.9342Z" fill="#070A11"/>
<mask id="path-2-outside-1_2184_5755" maskUnits="userSpaceOnUse" x="9.56695" y="9.63285" width="25.4557" height="25.456" fill="black">
<rect fill="white" x="9.56695" y="9.63285" width="25.4557" height="25.456"/>
<path fill-rule="evenodd" clip-rule="evenodd" d="M18.9066 17.2638L17.6324 18.538L21.4553 22.3608L17.6324 26.1837L18.9066 27.4579L22.7294 23.635L26.5517 27.4573L27.8258 26.1831L24.0036 22.3608L27.8258 18.5386L26.5517 17.2644L22.7294 21.0866L18.9066 17.2638Z"/>
</mask>
<path fill-rule="evenodd" clip-rule="evenodd" d="M18.9066 17.2638L17.6324 18.538L21.4553 22.3608L17.6324 26.1837L18.9066 27.4579L22.7294 23.635L26.5517 27.4573L27.8258 26.1831L24.0036 22.3608L27.8258 18.5386L26.5517 17.2644L22.7294 21.0866L18.9066 17.2638Z" fill="#6366F1"/>
<path d="M17.6324 18.538L16.0128 16.9183L14.3932 18.538L16.0128 20.1576L17.6324 18.538ZM18.9066 17.2638L20.5262 15.6441L18.9066 14.0245L17.287 15.6441L18.9066 17.2638ZM21.4553 22.3608L23.0749 23.9805L24.6945 22.3608L23.0749 20.7412L21.4553 22.3608ZM17.6324 26.1837L16.0128 24.5641L14.3932 26.1837L16.0128 27.8034L17.6324 26.1837ZM18.9066 27.4579L17.287 29.0775L18.9066 30.6972L20.5262 29.0775L18.9066 27.4579ZM22.7294 23.635L24.3491 22.0154L22.7294 20.3958L21.1098 22.0154L22.7294 23.635ZM26.5517 27.4573L24.932 29.0769L26.5517 30.6965L28.1713 29.0769L26.5517 27.4573ZM27.8258 26.1831L29.4454 27.8027L31.0651 26.1831L29.4454 24.5635L27.8258 26.1831ZM24.0036 22.3608L22.384 20.7412L20.7644 22.3608L22.384 23.9805L24.0036 22.3608ZM27.8258 18.5386L29.4454 20.1582L31.0651 18.5386L29.4454 16.919L27.8258 18.5386ZM26.5517 17.2644L28.1713 15.6448L26.5517 14.0251L24.932 15.6448L26.5517 17.2644ZM22.7294 21.0866L21.1098 22.7063L22.7294 24.3259L24.3491 22.7063L22.7294 21.0866ZM19.252 20.1576L20.5262 18.8834L17.287 15.6441L16.0128 16.9183L19.252 20.1576ZM23.0749 20.7412L19.252 16.9183L16.0128 20.1576L19.8357 23.9805L23.0749 20.7412ZM19.252 27.8034L23.0749 23.9805L19.8357 20.7412L16.0128 24.5641L19.252 27.8034ZM20.5262 25.8383L19.252 24.5641L16.0128 27.8034L17.287 29.0775L20.5262 25.8383ZM21.1098 22.0154L17.287 25.8383L20.5262 29.0775L24.3491 25.2547L21.1098 22.0154ZM28.1713 25.8377L24.3491 22.0154L21.1098 25.2547L24.932 29.0769L28.1713 25.8377ZM26.2062 24.5635L24.932 25.8377L28.1713 29.0769L29.4454 27.8027L26.2062 24.5635ZM22.384 23.9805L26.2062 27.8027L29.4454 24.5635L25.6232 20.7412L22.384 23.9805ZM26.2062 16.919L22.384 20.7412L25.6232 23.9805L29.4454 20.1582L26.2062 16.919ZM24.932 18.884L26.2062 20.1582L29.4454 16.919L28.1713 15.6448L24.932 18.884ZM24.3491 22.7063L28.1713 18.884L24.932 15.6448L21.1098 19.467L24.3491 22.7063ZM17.287 18.8834L21.1098 22.7063L24.3491 19.467L20.5262 15.6441L17.287 18.8834Z" fill="#F8F9FB" mask="url(#path-2-outside-1_2184_5755)"/>
</svg>
