<svg width="20" height="20" viewBox="0 0 20 20" fill="none" xmlns="http://www.w3.org/2000/svg">
<path d="M19.3494 16.4425C19.3393 16.803 19.2568 17.1578 19.1069 17.4858C18.9569 17.8138 18.7426 18.1083 18.4766 18.3519C18.2107 18.5955 17.8985 18.7831 17.5586 18.9037C17.2187 19.0242 16.858 19.0752 16.498 19.0537C14.2492 19.0662 12.0005 19.0537 9.75173 19.0537C9.61322 19.0537 9.48039 18.9986 9.38245 18.9007C9.28451 18.8028 9.22949 18.6699 9.22949 18.5314C9.22949 18.3929 9.28451 18.2601 9.38245 18.1622C9.48039 18.0642 9.61322 18.0092 9.75173 18.0092C12.0496 18.0092 14.3474 18.0426 16.6453 18.0092C17.8015 17.9925 18.3049 17.1235 18.3049 16.0895V3.07218C18.313 2.74345 18.2205 2.42009 18.0398 2.14534C17.8591 1.8706 17.5989 1.65756 17.2939 1.53472C16.9333 1.43631 16.558 1.40271 16.1857 1.43549H9.75173C9.61322 1.43549 9.48039 1.38047 9.38245 1.28253C9.28451 1.1846 9.22949 1.05176 9.22949 0.913257C9.22949 0.774751 9.28451 0.641918 9.38245 0.54398C9.48039 0.446042 9.61322 0.39102 9.75173 0.39102C12.0746 0.39102 14.4153 0.30224 16.7361 0.39102C17.0915 0.400009 17.4416 0.47959 17.766 0.625132C18.0903 0.770675 18.3825 0.979273 18.6255 1.23879C18.8685 1.4983 19.0574 1.80355 19.1814 2.13678C19.3053 2.47 19.3617 2.82454 19.3473 3.17976L19.3494 16.4425Z" fill="#F8F9FB" stroke="white" stroke-width="0.6"/>
<path d="M0.766281 9.35579C0.678036 9.44135 0.626374 9.55778 0.622144 9.68062C0.622144 9.69629 0.622144 9.70987 0.615877 9.72554C0.60961 9.7412 0.615877 9.75374 0.622144 9.76836C0.626323 9.89152 0.677972 10.0083 0.766281 10.0942L4.59845 13.9264C4.69695 14.0215 4.82887 14.0742 4.9658 14.073C5.10272 14.0718 5.23371 14.0169 5.33053 13.92C5.42736 13.8232 5.48228 13.6922 5.48347 13.5553C5.48466 13.4184 5.43203 13.2865 5.3369 13.188L2.3967 10.2467H13.6164C13.7549 10.2467 13.8878 10.1917 13.9857 10.0938C14.0837 9.99583 14.1387 9.863 14.1387 9.72449C14.1387 9.58598 14.0837 9.45315 13.9857 9.35521C13.8878 9.25728 13.7549 9.20225 13.6164 9.20225H2.3967L5.3369 6.26102C5.43203 6.16252 5.48466 6.0306 5.48347 5.89367C5.48228 5.75675 5.42736 5.62576 5.33053 5.52894C5.23371 5.43211 5.10272 5.37719 4.9658 5.376C4.82887 5.37481 4.69695 5.42744 4.59845 5.52257L0.766281 9.35579Z" fill="#F8F9FB" stroke="white" stroke-width="0.6"/>
</svg>
