<svg width="23" height="23" viewBox="0 0 23 23" fill="none" xmlns="http://www.w3.org/2000/svg">
<path d="M8.07252 1H2.66559C1.6702 1 0.863281 1.80692 0.863281 2.80231V19.4737C0.863281 20.4691 1.6702 21.276 2.66559 21.276H8.07252C9.06791 21.276 9.87483 20.4691 9.87483 19.4737V2.80231C9.87483 1.80692 9.06791 1 8.07252 1Z" stroke="#FFF9F9" stroke-width="1.5"/>
<path d="M19.7875 1H14.8312C13.8358 1 13.0289 1.80692 13.0289 2.80231V10.0115C13.0289 11.0069 13.8358 11.8139 14.8312 11.8139H19.7875C20.7829 11.8139 21.5898 11.0069 21.5898 10.0116V2.80231C21.5898 1.80692 20.7829 1 19.7875 1Z" stroke="#FFF9F9" stroke-width="1.5"/>
<path d="M19.7875 14.9679H14.8312C13.8358 14.9679 13.0289 15.7748 13.0289 16.7702V19.4737C13.0289 20.4691 13.8358 21.276 14.8312 21.276H19.7875C20.7829 21.276 21.5898 20.4691 21.5898 19.4737V16.7702C21.5898 15.7748 20.7829 14.9679 19.7875 14.9679Z" stroke="#FFF9F9" stroke-width="1.5"/>
</svg>
