<svg width="22" height="16" viewBox="0 0 22 16" fill="none" xmlns="http://www.w3.org/2000/svg">
<path d="M20.6667 5.38462C18.9664 5.51848 16.5407 7.47661 15.3131 8.11912C14.3579 8.62012 13.534 9.05229 12.8152 9.05229C12.0733 9.05229 11.9617 8.43272 12.116 7.06739C12.1521 6.76143 12.5001 4.03841 10.7144 4.15697C9.89055 4.21433 6.95308 8.12964 3.5 12L5.71167 4.81987C6.70951 1.9171 5.2227 -0.362566 2.71167 1.49995L0.756544 3C0.513647 3.17975 0.421371 3.21316 0.575644 3.5L0.857408 4.36731C1.01168 4.65415 1.33664 4.73829 1.58282 4.55471L3.48661 3.06699C4.09057 2.61953 4.82254 3.34235 4.55995 4.10342L1.33664 13.4963C1.11343 14.1427 1.42526 15.1753 2.31151 15.1753C2.58395 15.1753 2.85311 15.0529 3.05333 14.8158C4.4385 13.2018 8.80736 7.99995 10.6619 6.27511C10.5897 7.36509 10.2549 9.04771 11 10C11.5022 10.6425 12.0744 11 13 11C14.1685 11 15.3741 10.089 16.5 9.5C17.5832 8.93398 19.4194 7.95849 20.7126 7.83611C20.9916 7.80934 21.2115 7.55692 21.2115 7.23184V6.00418C21.2181 5.65616 20.9654 5.36167 20.6667 5.38462Z" fill="#1D1D1D"/>
</svg>
