<svg width="29" height="28" viewBox="0 0 29 28" fill="none" xmlns="http://www.w3.org/2000/svg">
<path d="M14.6801 13.3988C14.6463 13.3988 14.6237 13.3988 14.5898 13.3988C14.5333 13.3875 14.4543 13.3875 14.3865 13.3988C11.1117 13.2971 8.63867 10.7224 8.63867 7.54926C8.63867 4.31962 11.2698 1.68848 14.4995 1.68848C17.7291 1.68848 20.3602 4.31962 20.3602 7.54926C20.349 10.7224 17.8646 13.2971 14.714 13.3988C14.7027 13.3988 14.6914 13.3988 14.6801 13.3988ZM14.4995 3.38235C12.2071 3.38235 10.3325 5.25689 10.3325 7.54926C10.3325 9.80776 12.0942 11.6258 14.3414 11.7049C14.3978 11.6936 14.5559 11.6936 14.7027 11.7049C16.916 11.6033 18.6551 9.78517 18.6664 7.54926C18.6664 5.25689 16.7918 3.38235 14.4995 3.38235Z" fill="white"/>
<path d="M14.6919 25.7408C12.4786 25.7408 10.254 25.1762 8.57143 24.0469C7.00178 23.008 6.14355 21.5852 6.14355 20.0381C6.14355 18.491 7.00178 17.0569 8.57143 16.0067C11.9592 13.7595 17.4473 13.7595 20.8125 16.0067C22.3708 17.0456 23.2403 18.4684 23.2403 20.0155C23.2403 21.5626 22.3821 22.9967 20.8125 24.0469C19.1186 25.1762 16.9053 25.7408 14.6919 25.7408ZM9.50871 17.4295C8.42463 18.1523 7.83742 19.0782 7.83742 20.0494C7.83742 21.0092 8.43592 21.9352 9.50871 22.6467C12.3205 24.5325 17.0634 24.5325 19.8752 22.6467C20.9593 21.9239 21.5465 20.998 21.5465 20.0268C21.5465 19.0669 20.948 18.141 19.8752 17.4295C17.0634 15.555 12.3205 15.555 9.50871 17.4295Z" fill="white"/>
</svg>
