<svg width="29" height="29" viewBox="0 0 29 29" fill="none" xmlns="http://www.w3.org/2000/svg">
<path d="M20.0605 24.7759H8.39388C3.72721 24.7759 2.56055 23.6092 2.56055 18.9425V9.60921C2.56055 4.94255 3.72721 3.77588 8.39388 3.77588H20.0605C24.7272 3.77588 25.8939 4.94255 25.8939 9.60921V18.9425C25.8939 23.6092 24.7272 24.7759 20.0605 24.7759Z" stroke="#F8F9FB" stroke-width="1.75" stroke-linecap="round" stroke-linejoin="round"/>
<path d="M16.5605 9.60913H22.3939" stroke="#F8F9FB" stroke-width="1.75" stroke-linecap="round" stroke-linejoin="round"/>
<path d="M17.7266 14.2759H22.3932" stroke="#F8F9FB" stroke-width="1.75" stroke-linecap="round" stroke-linejoin="round"/>
<path d="M20.0605 18.9426H22.3939" stroke="#F8F9FB" stroke-width="1.75" stroke-linecap="round" stroke-linejoin="round"/>
<path d="M10.1429 13.4475C11.3092 13.4475 12.2546 12.502 12.2546 11.3358C12.2546 10.1695 11.3092 9.22412 10.1429 9.22412C8.97668 9.22412 8.03125 10.1695 8.03125 11.3358C8.03125 12.502 8.97668 13.4475 10.1429 13.4475Z" stroke="#F8F9FB" stroke-width="1.75" stroke-linecap="round" stroke-linejoin="round"/>
<path d="M14.2272 19.3272C14.0639 17.6355 12.7222 16.3055 11.0305 16.1539C10.4472 16.0955 9.85221 16.0955 9.25721 16.1539C7.56555 16.3172 6.22388 17.6355 6.06055 19.3272" stroke="#F8F9FB" stroke-width="1.75" stroke-linecap="round" stroke-linejoin="round"/>
</svg>
