<svg width="20" height="23" viewBox="0 0 20 23" fill="none" xmlns="http://www.w3.org/2000/svg">
<mask id="path-1-inside-1_2184_6819" fill="white">
<path d="M2.43737 2.04694L3.95303 1.30782C4.64292 0.971007 5.43181 0.896765 6.17242 1.09895C6.91304 1.30114 7.55477 1.76594 7.97781 2.40659L9.32823 4.45157C9.69209 5.00246 9.87433 5.65345 9.84939 6.31319C9.82445 6.97293 9.59357 7.6083 9.18916 8.13014L7.71894 10.0277C7.70077 10.0511 7.68707 10.0777 7.67849 10.1062C7.55728 10.5062 7.99374 11.4513 9.10001 12.8067C10.3476 14.3343 11.2076 14.8784 11.5394 14.719L13.7007 13.6532C14.2926 13.3618 14.9609 13.2628 15.6119 13.3703C16.2629 13.4777 16.864 13.7862 17.3309 14.2525L19.0575 15.9751C19.5997 16.516 19.927 17.2354 19.9787 17.9994C20.0304 18.7635 19.803 19.5203 19.3387 20.1293L18.3127 21.4737C17.956 21.9417 17.4913 22.3164 16.9584 22.5659C16.4255 22.8154 15.8401 22.9322 15.2523 22.9065C11.7615 22.7526 8.29434 20.5256 4.83454 16.289C1.37331 12.0496 -0.116396 8.20228 0.435769 4.74922C0.528186 4.17112 0.758398 3.62377 1.10695 3.1534C1.45551 2.68303 1.9112 2.30362 2.43737 2.04694ZM3.07817 3.35785C2.76245 3.51182 2.48842 3.73951 2.27925 4.02171C2.07008 4.3039 1.93191 4.6323 1.87641 4.97915C1.40034 7.95471 2.74095 11.4183 5.9646 15.3662C9.18586 19.3114 12.3085 21.3166 15.3158 21.4485C15.6687 21.464 16.0201 21.3939 16.34 21.244C16.6599 21.0942 16.9387 20.8692 17.1527 20.5882L18.178 19.2449C18.4281 18.917 18.5507 18.5095 18.5229 18.098C18.4952 17.6866 18.319 17.2992 18.0271 17.0079L16.3003 15.2842C16.049 15.0332 15.7254 14.8671 15.3749 14.8093C15.0245 14.7514 14.6647 14.8046 14.3459 14.9614L12.1793 16.0301C10.9788 16.6106 9.62124 15.7522 7.96979 13.7286C6.57104 12.0166 5.97083 10.7129 6.28243 9.68372C6.34271 9.48472 6.43859 9.29865 6.56557 9.13413L8.0358 7.23663C8.25366 6.95562 8.37805 6.61344 8.39151 6.25813C8.40498 5.90282 8.30683 5.55221 8.11086 5.25553L6.7606 3.2115C6.53279 2.86644 6.18718 2.6161 5.7883 2.50722C5.38942 2.39834 4.96455 2.43838 4.59302 2.61984L3.07736 3.35897L3.07817 3.35785Z"/>
</mask>
<path d="M2.43737 2.04694L3.95303 1.30782C4.64292 0.971007 5.43181 0.896765 6.17242 1.09895C6.91304 1.30114 7.55477 1.76594 7.97781 2.40659L9.32823 4.45157C9.69209 5.00246 9.87433 5.65345 9.84939 6.31319C9.82445 6.97293 9.59357 7.6083 9.18916 8.13014L7.71894 10.0277C7.70077 10.0511 7.68707 10.0777 7.67849 10.1062C7.55728 10.5062 7.99374 11.4513 9.10001 12.8067C10.3476 14.3343 11.2076 14.8784 11.5394 14.719L13.7007 13.6532C14.2926 13.3618 14.9609 13.2628 15.6119 13.3703C16.2629 13.4777 16.864 13.7862 17.3309 14.2525L19.0575 15.9751C19.5997 16.516 19.927 17.2354 19.9787 17.9994C20.0304 18.7635 19.803 19.5203 19.3387 20.1293L18.3127 21.4737C17.956 21.9417 17.4913 22.3164 16.9584 22.5659C16.4255 22.8154 15.8401 22.9322 15.2523 22.9065C11.7615 22.7526 8.29434 20.5256 4.83454 16.289C1.37331 12.0496 -0.116396 8.20228 0.435769 4.74922C0.528186 4.17112 0.758398 3.62377 1.10695 3.1534C1.45551 2.68303 1.9112 2.30362 2.43737 2.04694ZM3.07817 3.35785C2.76245 3.51182 2.48842 3.73951 2.27925 4.02171C2.07008 4.3039 1.93191 4.6323 1.87641 4.97915C1.40034 7.95471 2.74095 11.4183 5.9646 15.3662C9.18586 19.3114 12.3085 21.3166 15.3158 21.4485C15.6687 21.464 16.0201 21.3939 16.34 21.244C16.6599 21.0942 16.9387 20.8692 17.1527 20.5882L18.178 19.2449C18.4281 18.917 18.5507 18.5095 18.5229 18.098C18.4952 17.6866 18.319 17.2992 18.0271 17.0079L16.3003 15.2842C16.049 15.0332 15.7254 14.8671 15.3749 14.8093C15.0245 14.7514 14.6647 14.8046 14.3459 14.9614L12.1793 16.0301C10.9788 16.6106 9.62124 15.7522 7.96979 13.7286C6.57104 12.0166 5.97083 10.7129 6.28243 9.68372C6.34271 9.48472 6.43859 9.29865 6.56557 9.13413L8.0358 7.23663C8.25366 6.95562 8.37805 6.61344 8.39151 6.25813C8.40498 5.90282 8.30683 5.55221 8.11086 5.25553L6.7606 3.2115C6.53279 2.86644 6.18718 2.6161 5.7883 2.50722C5.38942 2.39834 4.96455 2.43838 4.59302 2.61984L3.07736 3.35897L3.07817 3.35785Z" fill="#8F8F8F"/>
<path d="M2.43737 2.04694L-0.546979 -4.07281L-0.547794 -4.07241L2.43737 2.04694ZM3.95303 1.30782L6.93738 7.42758L6.94012 7.42624L3.95303 1.30782ZM7.97781 2.40659L2.29614 6.15843L2.29617 6.15848L7.97781 2.40659ZM9.32823 4.45157L3.64659 8.20347L3.64694 8.20399L9.32823 4.45157ZM9.18916 8.13014L3.8074 3.95949L3.80703 3.95996L9.18916 8.13014ZM7.71894 10.0277L2.3368 5.85747L2.33326 5.86205L7.71894 10.0277ZM7.67849 10.1062L14.1947 12.0802L14.1967 12.0734L7.67849 10.1062ZM9.10001 12.8067L3.82517 17.1118L3.82655 17.1135L9.10001 12.8067ZM11.5394 14.719L14.4875 20.8563L14.5193 20.8411L14.5508 20.8255L11.5394 14.719ZM13.7007 13.6532L10.693 7.54489L10.6893 7.54672L13.7007 13.6532ZM17.3309 14.2525L12.5196 19.0701L12.522 19.0725L17.3309 14.2525ZM19.0575 15.9751L23.8666 11.1554L23.8664 11.1551L19.0575 15.9751ZM19.3387 20.1293L24.7512 24.2601L24.7535 24.2571L19.3387 20.1293ZM18.3127 21.4737L12.9002 17.343L12.8979 17.346L18.3127 21.4737ZM15.2523 22.9065L14.9525 29.7085L14.9543 29.7086L15.2523 22.9065ZM4.83454 16.289L-0.439517 20.595L-0.439031 20.5956L4.83454 16.289ZM0.435769 4.74922L7.15901 5.82431L7.15905 5.82404L0.435769 4.74922ZM3.07817 3.35785L8.60184 7.33866L0.0938437 -2.76192L3.07817 3.35785ZM1.87641 4.97915L-4.84673 3.90342L-4.84674 3.9035L1.87641 4.97915ZM5.9646 15.3662L11.2386 11.06L11.2384 11.0598L5.9646 15.3662ZM15.3158 21.4485L15.6142 14.6464L15.6142 14.6464L15.3158 21.4485ZM17.1527 20.5882L11.7404 16.4573L11.7363 16.4627L17.1527 20.5882ZM18.178 19.2449L23.5903 23.3758L23.5914 23.3744L18.178 19.2449ZM18.0271 17.0079L22.8373 12.1891L22.8371 12.189L18.0271 17.0079ZM16.3003 15.2842L11.4892 20.102L11.4903 20.1031L16.3003 15.2842ZM14.3459 14.9614L11.3396 8.85244L11.3342 8.85512L14.3459 14.9614ZM12.1793 16.0301L15.1432 22.1598L15.1671 22.1482L15.191 22.1364L12.1793 16.0301ZM7.96979 13.7286L13.2448 9.42372L13.2423 9.42061L7.96979 13.7286ZM6.28243 9.68372L-0.233852 7.70994L-0.234103 7.71077L6.28243 9.68372ZM6.56557 9.13413L1.18343 4.96395L1.17568 4.97398L6.56557 9.13413ZM8.0358 7.23663L2.65488 3.06488L2.65367 3.06645L8.0358 7.23663ZM8.11086 5.25553L13.792 1.50287L13.7919 1.50271L8.11086 5.25553ZM6.7606 3.2115L1.07852 6.96274L1.07957 6.96432L6.7606 3.2115ZM4.59302 2.61984L7.57737 8.7396L7.58124 8.73771L4.59302 2.61984ZM3.07736 3.35897L-2.4463 -0.621845L6.06171 9.47872L3.07736 3.35897ZM5.42172 8.1667L6.93738 7.42758L0.96868 -4.81194L-0.546979 -4.07281L5.42172 8.1667ZM6.94012 7.42624C6.14409 7.81487 5.23384 7.90054 4.37928 7.66724L7.96556 -5.46933C5.62977 -6.10701 3.14175 -5.87286 0.96594 -4.8106L6.94012 7.42624ZM4.37928 7.66724C3.52473 7.43395 2.78427 6.89764 2.29614 6.15843L13.6595 -1.34526C12.3253 -3.36576 10.3014 -4.83167 7.96556 -5.46933L4.37928 7.66724ZM2.29617 6.15848L3.64659 8.20347L15.0099 0.699678L13.6595 -1.34531L2.29617 6.15848ZM3.64694 8.20399C3.2271 7.56835 3.01682 6.81721 3.0456 6.05598L16.6532 6.5704C16.7318 4.4897 16.1571 2.43658 15.0095 0.69915L3.64694 8.20399ZM3.0456 6.05598C3.07437 5.29474 3.34077 4.56162 3.8074 3.95949L14.5709 12.3008C15.8464 10.655 16.5745 8.65111 16.6532 6.5704L3.0456 6.05598ZM3.80703 3.95996L2.3368 5.85747L13.1011 14.1978L14.5713 12.3003L3.80703 3.95996ZM2.33326 5.86205C1.80654 6.54304 1.40897 7.31473 1.16023 8.13892L14.1967 12.0734C13.9652 12.8408 13.595 13.5592 13.1046 14.1933L2.33326 5.86205ZM1.16229 8.13209C0.624332 9.90784 0.907792 11.4286 1.08527 12.1445C1.29123 12.9754 1.60078 13.6759 1.8627 14.1898C2.39135 15.2271 3.09482 16.217 3.82517 17.1118L14.3748 8.50163C13.9989 8.04104 13.931 7.88063 13.9952 8.00652C14.0249 8.06473 14.1789 8.36929 14.3025 8.86809C14.3669 9.12773 14.4446 9.52555 14.4633 10.0272C14.4818 10.5226 14.4476 11.2455 14.1947 12.0802L1.16229 8.13209ZM3.82655 17.1135C4.63485 18.1032 5.56341 19.0872 6.5973 19.8569C7.09604 20.2282 7.88262 20.7493 8.9022 21.1137C9.75577 21.4188 12.003 22.0498 14.4875 20.8563L8.59133 8.58172C10.91 7.46793 12.9253 8.09068 13.4853 8.29084C14.2113 8.55033 14.6427 8.86985 14.729 8.93411C14.938 9.08972 14.8127 9.03781 14.3735 8.49994L3.82655 17.1135ZM14.5508 20.8255L16.7121 19.7597L10.6893 7.54672L8.52804 8.61252L14.5508 20.8255ZM16.7083 19.7615C16.0253 20.0979 15.2542 20.212 14.503 20.088L16.7208 6.65253C14.6677 6.31361 12.5599 6.62564 10.693 7.54489L16.7083 19.7615ZM14.503 20.088C13.7518 19.964 13.0583 19.6081 12.5196 19.0701L22.1421 9.43481C20.6697 7.96434 18.774 6.99145 16.7208 6.65253L14.503 20.088ZM12.522 19.0725L14.2487 20.7952L23.8664 11.1551L22.1397 9.43243L12.522 19.0725ZM14.2484 20.7949C13.6229 20.1708 13.2453 19.3408 13.1856 18.4592L26.7718 17.5396C26.6087 15.1299 25.5764 12.8613 23.8666 11.1554L14.2484 20.7949ZM13.1856 18.4592C13.1259 17.5776 13.3883 16.7043 13.924 16.0016L24.7535 24.2571C26.2177 22.3363 26.9349 19.9493 26.7718 17.5396L13.1856 18.4592ZM13.9263 15.9986L12.9002 17.343L23.7252 25.6045L24.7512 24.2601L13.9263 15.9986ZM12.8979 17.346C13.2071 16.9405 13.6098 16.6157 14.0716 16.3995L19.8452 28.7323C21.3729 28.0171 22.7048 26.9429 23.7275 25.6015L12.8979 17.346ZM14.0716 16.3995C14.5335 16.1833 15.0408 16.082 15.5503 16.1043L14.9543 29.7086C16.6395 29.7824 18.3175 29.4475 19.8452 28.7323L14.0716 16.3995ZM15.552 16.1044C14.8967 16.0755 13.056 15.5921 10.1081 11.9823L-0.439031 20.5956C3.53269 25.4591 8.62636 29.4297 14.9525 29.7085L15.552 16.1044ZM10.1086 11.9829C7.15907 8.37032 7.05587 6.46928 7.15901 5.82431L-6.28747 3.67413C-7.28867 9.93528 -4.41244 15.729 -0.439517 20.595L10.1086 11.9829ZM7.15905 5.82404C7.07896 6.32505 6.87944 6.79943 6.57736 7.20709L-4.36345 -0.900297C-5.36264 0.448097 -6.02258 2.01719 -6.28751 3.6744L7.15905 5.82404ZM6.57736 7.20709C6.27764 7.61155 5.88212 7.94211 5.42254 8.1663L-0.547794 -4.07241C-2.05971 -3.33487 -3.36663 -2.2455 -4.36345 -0.900297L6.57736 7.20709ZM0.0938437 -2.76192C-1.20413 -2.12895 -2.33068 -1.19286 -3.1906 -0.0327299L7.7491 8.07615C7.30752 8.67189 6.72902 9.15259 6.06249 9.47762L0.0938437 -2.76192ZM-3.1906 -0.0327299C-4.05053 1.1274 -4.61857 2.47748 -4.84673 3.90342L8.59955 6.05488C8.48238 6.78712 8.19069 7.4804 7.7491 8.07615L-3.1906 -0.0327299ZM-4.84674 3.9035C-5.78174 9.74752 -2.9823 15.1743 0.690813 19.6726L11.2384 11.0598C8.46419 7.66239 8.58242 6.1619 8.59956 6.0548L-4.84674 3.9035ZM0.690622 19.6723C4.36145 24.1682 9.11293 27.9916 15.0175 28.2506L15.6142 14.6464C15.5041 14.6416 14.0103 14.4547 11.2386 11.06L0.690622 19.6723ZM15.0174 28.2506C16.4682 28.3143 17.9128 28.0258 19.2278 27.4099L13.4521 15.0781C14.1274 14.7619 14.8693 14.6137 15.6142 14.6464L15.0174 28.2506ZM19.2278 27.4099C20.5429 26.794 21.6893 25.8689 22.5692 24.7137L11.7363 16.4627C12.1881 15.8695 12.7769 15.3944 13.4521 15.0781L19.2278 27.4099ZM22.5651 24.7191L23.5903 23.3758L12.7656 15.114L11.7404 16.4573L22.5651 24.7191ZM23.5914 23.3744C24.842 21.7349 25.4549 19.6973 25.3162 17.64L11.7297 18.5561C11.6465 17.3217 12.0142 16.0991 12.7645 15.1155L23.5914 23.3744ZM25.3162 17.64C25.1774 15.5827 24.2966 13.6458 22.8373 12.1891L13.217 21.8266C12.3414 20.9526 11.8129 19.7904 11.7297 18.5561L25.3162 17.64ZM22.8371 12.189L21.1103 10.4653L11.4903 20.1031L13.2172 21.8268L22.8371 12.189ZM21.1114 10.4665C19.8547 9.21145 18.2368 8.38106 16.4845 8.09162L14.2654 21.5269C13.214 21.3532 12.2432 20.855 11.4892 20.102L21.1114 10.4665ZM16.4845 8.09162C14.7321 7.80219 12.9332 8.06823 11.3396 8.85245L17.3523 21.0704C16.3962 21.5409 15.3168 21.7006 14.2654 21.5269L16.4845 8.09162ZM11.3342 8.85512L9.1675 9.92377L15.191 22.1364L17.3577 21.0677L11.3342 8.85512ZM9.21538 9.90039C10.0246 9.5091 10.9605 9.33372 11.8888 9.42156C12.7499 9.50305 13.3399 9.78432 13.6046 9.93457C13.8619 10.0806 13.9346 10.1716 13.8216 10.0652C13.7182 9.96791 13.5272 9.76968 13.2448 9.42372L2.69475 18.0334C3.69417 19.2581 5.08468 20.7566 6.88268 21.7772C8.94527 22.9479 11.9951 23.6819 15.1432 22.1598L9.21538 9.90039ZM13.2423 9.42061C13.0041 9.12903 12.8554 8.92213 12.769 8.79026C12.6796 8.65365 12.6936 8.65281 12.7448 8.77267C12.8365 8.98697 13.2638 10.1213 12.799 11.6567L-0.234103 7.71077C-1.01057 10.2754 -0.438938 12.5761 0.224615 14.1276C0.8721 15.6414 1.82168 16.9649 2.69729 18.0365L13.2423 9.42061ZM12.7987 11.6575C12.6193 12.2499 12.3334 12.8046 11.9555 13.2943L1.17568 4.97398C0.543789 5.79267 0.0661317 6.71957 -0.233852 7.70994L12.7987 11.6575ZM11.9477 13.3043L13.4179 11.4068L2.65367 3.06645L1.18344 4.96395L11.9477 13.3043ZM13.4167 11.4084C14.506 10.0033 15.128 8.29246 15.1953 6.5159L1.58774 6.00037C1.62812 4.93443 2.0013 3.9079 2.65488 3.06488L13.4167 11.4084ZM15.1953 6.5159C15.2626 4.73934 14.7719 2.9863 13.792 1.50287L2.42972 9.00818C1.84179 8.11812 1.54736 7.0663 1.58774 6.00037L15.1953 6.5159ZM13.7919 1.50271L12.4416 -0.54132L1.07957 6.96432L2.42983 9.00835L13.7919 1.50271ZM12.4427 -0.539743C11.3036 -2.26503 9.57558 -3.51675 7.58119 -4.06114L3.99541 9.07558C2.79877 8.74895 1.76194 7.99792 1.07852 6.96274L12.4427 -0.539743ZM7.58119 -4.06114C5.58679 -4.60552 3.46242 -4.40536 1.60481 -3.49802L7.58124 8.73771C6.46667 9.28211 5.19205 9.40221 3.99541 9.07558L7.58119 -4.06114ZM1.60867 -3.49991L0.0930152 -2.76079L6.06171 9.47872L7.57737 8.7396L1.60867 -3.49991ZM8.60103 7.33978L8.60184 7.33866L-2.4455 -0.622961L-2.4463 -0.621845L8.60103 7.33978Z" fill="#8F8F8F" mask="url(#path-1-inside-1_2184_6819)"/>
</svg>
