<?xml version="1.0" encoding="utf-8"?>
<svg width="82" height="82" viewBox="0 0 82 82" fill="white" xmlns="http://www.w3.org/2000/svg">
  <circle cx="41" cy="41" r="41" fill="white" fill-opacity="1.0"/>
  <circle cx="41" cy="41" r="41" fill-opacity="0.2" style=""/>
  <g clip-path="url(#clip0_198_1050)">
    <path d="M21.6665 65.166C21.6665 60.0385 23.7034 55.121 27.3291 51.4953C30.9548 47.8696 35.8723 45.8327 40.9998 45.8327C46.1274 45.8327 51.0449 47.8696 54.6706 51.4953C58.2963 55.121 60.3332 60.0385 60.3332 65.166H21.6665ZM40.9998 43.416C32.9886 43.416 26.4998 36.9273 26.4998 28.916C26.4998 20.9048 32.9886 14.416 40.9998 14.416C49.0111 14.416 55.4998 20.9048 55.4998 28.916C55.4998 36.9273 49.0111 43.416 40.9998 43.416Z" fill="#C4C4C4"/>
  </g>
  <defs>
    <clipPath id="clip0_198_1050">
      <rect width="58" height="58" fill="white" transform="translate(12 12)"/>
    </clipPath>
  </defs>
</svg>