<svg width="28" height="28" viewBox="0 0 28 28" fill="none" xmlns="http://www.w3.org/2000/svg">
<path d="M14.4067 13.3988C14.3728 13.3988 14.3502 13.3988 14.3164 13.3988C14.2599 13.3875 14.1809 13.3875 14.1131 13.3988C10.8383 13.2971 8.36523 10.7224 8.36523 7.54926C8.36523 4.31962 10.9964 1.68848 14.226 1.68848C17.4557 1.68848 20.0868 4.31962 20.0868 7.54926C20.0755 10.7224 17.5912 13.2971 14.4406 13.3988C14.4293 13.3988 14.418 13.3988 14.4067 13.3988ZM14.226 3.38235C11.9337 3.38235 10.0591 5.25689 10.0591 7.54926C10.0591 9.80776 11.8207 11.6258 14.0679 11.7049C14.1244 11.6936 14.2825 11.6936 14.4293 11.7049C16.6426 11.6033 18.3816 9.78517 18.3929 7.54926C18.3929 5.25689 16.5184 3.38235 14.226 3.38235Z" fill="white"/>
<path d="M14.4185 25.7408C12.2052 25.7408 9.98057 25.1762 8.298 24.0469C6.72834 23.008 5.87012 21.5852 5.87012 20.0381C5.87012 18.491 6.72834 17.0569 8.298 16.0067C11.6857 13.7595 17.1739 13.7595 20.539 16.0067C22.0974 17.0456 22.9669 18.4684 22.9669 20.0155C22.9669 21.5626 22.1087 22.9967 20.539 24.0469C18.8452 25.1762 16.6318 25.7408 14.4185 25.7408ZM9.23527 17.4295C8.15119 18.1523 7.56399 19.0782 7.56399 20.0494C7.56399 21.0092 8.16249 21.9352 9.23527 22.6467C12.0471 24.5325 16.7899 24.5325 19.6017 22.6467C20.6858 21.9239 21.273 20.998 21.273 20.0268C21.273 19.0669 20.6745 18.141 19.6017 17.4295C16.7899 15.555 12.0471 15.555 9.23527 17.4295Z" fill="white"/>
</svg>
