<svg width="25" height="27" viewBox="0 0 25 27" fill="none" xmlns="http://www.w3.org/2000/svg">
<path fill-rule="evenodd" clip-rule="evenodd" d="M16.0817 13.9997C15.8749 13.4147 15.4917 12.9083 14.9851 12.5501C14.4785 12.1919 13.8733 11.9995 13.2528 11.9995V11.2495H11.7528V11.9995C10.9572 11.9995 10.1942 12.3156 9.63159 12.8781C9.06899 13.4407 8.75293 14.2038 8.75293 14.9994C8.75293 15.795 9.06899 16.5581 9.63159 17.1207C10.1942 17.6833 10.9572 17.9993 11.7528 17.9993V20.9992C11.1004 20.9992 10.5446 20.583 10.3376 19.9995C10.3069 19.9041 10.2574 19.8157 10.1919 19.7397C10.1265 19.6638 10.0465 19.6017 9.95662 19.5572C9.86676 19.5127 9.76889 19.4866 9.66879 19.4806C9.56869 19.4745 9.4684 19.4887 9.37385 19.5221C9.2793 19.5555 9.19241 19.6075 9.11831 19.6751C9.04422 19.7426 8.98443 19.8244 8.94248 19.9155C8.90054 20.0066 8.87728 20.1051 8.87409 20.2054C8.8709 20.3056 8.88785 20.4054 8.92393 20.499C9.1308 21.084 9.51392 21.5904 10.0205 21.9486C10.5272 22.3068 11.1324 22.4992 11.7528 22.4992V23.2492H13.2528V22.4992C14.0484 22.4992 14.8115 22.1831 15.3741 21.6205C15.9367 21.058 16.2527 20.2949 16.2527 19.4993C16.2527 18.7037 15.9367 17.9406 15.3741 17.378C14.8115 16.8154 14.0484 16.4994 13.2528 16.4994V13.4994C13.563 13.4994 13.8656 13.5955 14.1189 13.7745C14.3722 13.9536 14.5638 14.2067 14.6673 14.4992C14.7335 14.6867 14.8715 14.8403 15.051 14.9261C15.1399 14.9686 15.2362 14.9932 15.3346 14.9984C15.4329 15.0036 15.5314 14.9895 15.6242 14.9567C15.7171 14.9239 15.8026 14.8731 15.8759 14.8073C15.9491 14.7414 16.0087 14.6618 16.0512 14.5729C16.0937 14.4841 16.1182 14.3877 16.1235 14.2893C16.1287 14.191 16.1145 14.0926 16.0817 13.9997ZM11.7528 13.4994C11.355 13.4994 10.9735 13.6575 10.6922 13.9388C10.4109 14.2201 10.2529 14.6016 10.2529 14.9994C10.2529 15.3972 10.4109 15.7787 10.6922 16.06C10.9735 16.3413 11.355 16.4994 11.7528 16.4994V13.4994ZM13.2528 20.9992C13.6506 20.9992 14.0321 20.8412 14.3134 20.5599C14.5947 20.2786 14.7528 19.8971 14.7528 19.4993C14.7528 19.1015 14.5947 18.7199 14.3134 18.4387C14.0321 18.1574 13.6506 17.9993 13.2528 17.9993V20.9992Z" fill="#6366F1"/>
<path fill-rule="evenodd" clip-rule="evenodd" d="M4.36852 1.9657C6.20897 1.06497 9.22839 0 12.5328 0C15.7682 0 18.7081 1.02072 20.5388 1.90945L20.6423 1.9597C21.1943 2.23269 21.6398 2.49068 21.9533 2.69993L19.1829 6.74981C25.5697 13.2791 30.503 26.997 12.5328 26.997C-5.43746 26.997 -0.636841 13.5281 5.80548 6.74981L3.05306 2.69993C3.2653 2.56118 3.53454 2.39993 3.85553 2.22894C4.01453 2.14344 4.18553 2.05494 4.36852 1.9657ZM17.4024 6.69656L19.6201 3.4544C17.5577 3.6029 15.1037 4.08739 12.7413 4.77137C11.0538 5.25885 9.17889 5.18461 7.44269 4.86437C7.00517 4.78325 6.57066 4.6867 6.13997 4.57487L7.57993 6.69506C10.6661 7.79378 14.3155 7.79378 17.4024 6.69656ZM6.71371 7.97228C10.3249 9.36724 14.665 9.36724 18.2761 7.97078C19.7835 9.55976 21.0444 11.3655 22.017 13.3279C23.031 15.3963 23.583 17.464 23.493 19.246C23.406 20.9657 22.7295 22.4349 21.1846 23.5268C19.5744 24.6646 16.8662 25.497 12.532 25.497C8.19341 25.497 5.47249 24.6788 3.84729 23.5538C2.29108 22.4761 1.60785 21.0264 1.5111 19.33C1.40985 17.5675 1.94984 15.5103 2.96006 13.4276C3.92378 11.4417 5.2685 9.52999 6.71371 7.97228ZM5.85123 2.93692C6.45121 3.11541 7.0782 3.27066 7.71418 3.38841C9.32663 3.6854 10.9436 3.7289 12.3236 3.32916C13.9317 2.86068 15.5673 2.49223 17.2209 2.22594C15.841 1.81045 14.227 1.49996 12.532 1.49996C9.94837 1.49996 7.53868 2.22069 5.85123 2.93692Z" fill="#070A11"/>
</svg>
