<svg width="22" height="24" viewBox="0 0 22 24" fill="none" xmlns="http://www.w3.org/2000/svg">
<path d="M11.2281 15.0112C12.9657 15.0112 14.3743 13.6027 14.3743 11.8651C14.3743 10.1276 12.9657 8.71899 11.2281 8.71899C9.49059 8.71899 8.08203 10.1276 8.08203 11.8651C8.08203 13.6027 9.49059 15.0112 11.2281 15.0112Z" stroke="#F8F9FB" stroke-width="1.57306"/>
<path d="M2.48208 10.4387C2.97811 10.7492 3.29692 11.2798 3.29692 11.865C3.29692 12.4502 2.97811 12.9808 2.48208 13.2912C2.14544 13.5041 1.92731 13.6729 1.77315 13.8743C1.60546 14.0929 1.48247 14.3424 1.41121 14.6085C1.33995 14.8746 1.32183 15.1522 1.35787 15.4253C1.4124 15.8385 1.65675 16.2622 2.14439 17.1085C2.63414 17.9548 2.87849 18.3774 3.20883 18.6323C3.42742 18.8 3.6769 18.923 3.94303 18.9942C4.20916 19.0655 4.48673 19.0836 4.75986 19.0476C5.01155 19.014 5.26639 18.9112 5.61875 18.7246C5.87092 18.5865 6.15404 18.5149 6.4415 18.5164C6.72896 18.5178 7.01132 18.5924 7.26207 18.7329C7.7686 19.0266 8.06958 19.5667 8.09055 20.1518C8.10523 20.5503 8.14299 20.823 8.24051 21.0569C8.34592 21.3115 8.50048 21.5429 8.69536 21.7378C8.89024 21.9326 9.12162 22.0872 9.37626 22.1926C9.76114 22.352 10.2498 22.352 11.2272 22.352C12.2046 22.352 12.6933 22.352 13.0782 22.1926C13.3328 22.0872 13.5642 21.9326 13.7591 21.7378C13.954 21.5429 14.1085 21.3115 14.2139 21.0569C14.3104 20.823 14.3492 20.5503 14.3639 20.1518C14.3849 19.5667 14.6859 19.0255 15.1924 18.7329C15.4431 18.5924 15.7255 18.5178 16.013 18.5164C16.3004 18.5149 16.5835 18.5865 16.8357 18.7246C17.1881 18.9112 17.4439 19.014 17.6956 19.0476C18.2469 19.12 18.8044 18.9707 19.2456 18.6323C19.576 18.3785 19.8203 17.9548 20.309 17.1085C20.5271 16.731 20.696 16.4384 20.8218 16.193M19.9724 13.2923C19.7268 13.143 19.5233 12.9339 19.3807 12.6844C19.2382 12.4349 19.1614 12.1533 19.1575 11.866C19.1575 11.2798 19.4763 10.7492 19.9724 10.4377C20.309 10.2258 20.5261 10.057 20.6813 9.85566C20.849 9.63707 20.972 9.38758 21.0432 9.12145C21.1145 8.85532 21.1326 8.57776 21.0966 8.30462C21.0421 7.89143 20.7977 7.46776 20.3101 6.62145C19.8203 5.77515 19.576 5.35252 19.2456 5.09768C19.027 4.92999 18.7775 4.807 18.5114 4.73574C18.2453 4.66449 17.9677 4.64636 17.6946 4.6824C17.4429 4.71596 17.1881 4.81873 16.8346 5.0054C16.5826 5.14321 16.2997 5.21474 16.0124 5.21328C15.7252 5.21181 15.443 5.13739 15.1924 4.99701C14.9454 4.85009 14.7397 4.6428 14.5948 4.3946C14.4499 4.1464 14.3704 3.86545 14.3639 3.57811C14.3492 3.1796 14.3115 2.90694 14.2139 2.67308C14.1085 2.41843 13.954 2.18706 13.7591 1.99218C13.5642 1.7973 13.3328 1.64274 13.0782 1.53733C12.6933 1.37793 12.2046 1.37793 11.2272 1.37793C10.2498 1.37793 9.76114 1.37793 9.37626 1.53733C9.12162 1.64274 8.89024 1.7973 8.69536 1.99218C8.50048 2.18706 8.34592 2.41843 8.24051 2.67308C8.14403 2.90694 8.10523 3.1796 8.09055 3.57811C8.08401 3.86545 8.00456 4.1464 7.85964 4.3946C7.71472 4.6428 7.50909 4.85009 7.26207 4.99701C7.01132 5.13758 6.72896 5.2121 6.4415 5.21357C6.15404 5.21503 5.87092 5.1434 5.61875 5.0054C5.26639 4.81873 5.0105 4.71596 4.75881 4.6824C4.20753 4.6099 3.65002 4.75927 3.20883 5.09768C2.87954 5.35252 2.63414 5.77515 2.14544 6.62145C1.92731 6.99899 1.75847 7.29157 1.63263 7.53697" stroke="#F8F9FB" stroke-width="1.57306" stroke-linecap="round"/>
</svg>
