<svg width="51" height="35" viewBox="0 0 51 35" fill="none" xmlns="http://www.w3.org/2000/svg">
<path fill-rule="evenodd" clip-rule="evenodd" d="M15.1461 12.1224C15.1461 14.5758 13.1572 16.5647 10.7037 16.5647C8.25027 16.5647 6.26136 14.5758 6.26136 12.1224C6.26136 9.66891 8.25027 7.68 10.7037 7.68C13.1572 7.68 15.1461 9.66891 15.1461 12.1224ZM16.8261 12.1224C16.8261 15.5036 14.085 18.2447 10.7037 18.2447C7.32243 18.2447 4.58136 15.5036 4.58136 12.1224C4.58136 8.74107 7.32243 6 10.7037 6C14.085 6 16.8261 8.74107 16.8261 12.1224ZM6.62235 21.9656H14.7855C17.2389 21.9656 19.2278 23.9545 19.2278 26.408C19.2278 28.8614 17.2389 30.8503 14.7855 30.8503H6.62235C4.16891 30.8503 2.18 28.8614 2.18 26.408C2.18 23.9545 4.16891 21.9656 6.62235 21.9656ZM0.5 26.408C0.5 23.0267 3.24107 20.2856 6.62235 20.2856H14.7855C18.1668 20.2856 20.9078 23.0267 20.9078 26.408C20.9078 29.7893 18.1668 32.5303 14.7855 32.5303H6.62235C3.24107 32.5303 0.5 29.7893 0.5 26.408Z" fill="#6366F1"/>
<path fill-rule="evenodd" clip-rule="evenodd" d="M44.5543 12.1224C44.5543 14.5758 42.5654 16.5647 40.1119 16.5647C37.6585 16.5647 35.6696 14.5758 35.6696 12.1224C35.6696 9.66891 37.6585 7.68 40.1119 7.68C42.5654 7.68 44.5543 9.66891 44.5543 12.1224ZM46.2343 12.1224C46.2343 15.5036 43.4932 18.2447 40.1119 18.2447C36.7306 18.2447 33.9896 15.5036 33.9896 12.1224C33.9896 8.74107 36.7306 6 40.1119 6C43.4932 6 46.2343 8.74107 46.2343 12.1224ZM36.0306 21.9656H44.1937C46.6471 21.9656 48.636 23.9545 48.636 26.408C48.636 28.8614 46.6471 30.8503 44.1937 30.8503H36.0306C33.5771 30.8503 31.5882 28.8614 31.5882 26.408C31.5882 23.9545 33.5771 21.9656 36.0306 21.9656ZM29.9082 26.408C29.9082 23.0267 32.6493 20.2856 36.0306 20.2856H44.1937C47.575 20.2856 50.316 23.0267 50.316 26.408C50.316 29.7893 47.575 32.5303 44.1937 32.5303H36.0306C32.6493 32.5303 29.9082 29.7893 29.9082 26.408Z" fill="#6366F1"/>
<rect x="11.6789" y="16.6408" width="26.7749" height="16.7656" rx="8.38278" stroke="#F4F9FE" stroke-width="1.75163"/>
<circle cx="25.0665" cy="7.50697" r="6.66697" stroke="#070A11" stroke-width="1.68"/>
<rect x="13.3947" y="18.3566" width="23.3432" height="13.3339" rx="6.66697" fill="white" stroke="#070A11" stroke-width="1.68"/>
</svg>
