<svg width="25" height="24" viewBox="0 0 25 24" fill="none" xmlns="http://www.w3.org/2000/svg">
<path d="M11.3679 2.73343C12.2362 1.84806 13.6622 1.84806 14.5306 2.73343L14.9894 3.2012C15.7101 3.93606 16.699 4.34569 17.7283 4.33571L18.3835 4.32935C19.6236 4.31732 20.6319 5.32567 20.6199 6.56573L20.6135 7.2209C20.6035 8.25017 21.0132 9.23912 21.748 9.95986L22.2158 10.4186C23.1012 11.287 23.1012 12.713 22.2158 13.5814L21.748 14.0401C21.0132 14.7609 20.6035 15.7498 20.6135 16.7791L20.6199 17.4343C20.6319 18.6743 19.6236 19.6827 18.3835 19.6706L17.7283 19.6643C16.699 19.6543 15.7101 20.0639 14.9894 20.7988L14.5306 21.2666C13.6622 22.1519 12.2362 22.1519 11.3679 21.2666L10.9091 20.7988C10.1883 20.0639 9.19939 19.6543 8.17012 19.6643L7.51496 19.6706C6.27489 19.6827 5.26654 18.6743 5.27857 17.4343L5.28493 16.7791C5.29491 15.7498 4.88528 14.7609 4.15042 14.0401L3.68265 13.5814C2.79728 12.713 2.79728 11.287 3.68265 10.4186L4.15042 9.95986C4.88528 9.23912 5.29491 8.25017 5.28493 7.22091L5.27857 6.56574C5.26654 5.32567 6.27489 4.31732 7.51495 4.32935L8.17012 4.33571C9.19939 4.34569 10.1883 3.93606 10.9091 3.2012L11.3679 2.73343Z" stroke="white" stroke-width="1.57"/>
<path d="M8.94922 11.4545L9.48368 12.985C10.1923 15.0143 12.9301 15.3302 14.0822 13.5156L16.9492 9" stroke="white" stroke-width="1.7" stroke-linecap="round"/>
<path d="M8.94922 11.4545L9.48368 12.985C10.1923 15.0143 12.9301 15.3302 14.0822 13.5156L16.9492 9" stroke="white" stroke-width="1.7" stroke-linecap="round"/>
</svg>
