<svg width="31" height="31" viewBox="0 0 31 31" fill="none" xmlns="http://www.w3.org/2000/svg">
<path d="M7 2.91152C7 2.41447 7.40294 2.01152 7.9 2.01152H8.9C9.23137 2.01152 9.5 1.74289 9.5 1.41152V1.41152C9.5 1.08015 9.76863 0.811523 10.1 0.811523H11.5H12.9C13.2314 0.811523 13.5 1.08015 13.5 1.41152V1.41152C13.5 1.74289 13.7686 2.01152 14.1 2.01152H15.1C15.5971 2.01152 16 2.41447 16 2.91152V2.91152C16 3.40858 15.5971 3.81152 15.1 3.81152H7.9C7.40294 3.81152 7 3.40858 7 2.91152V2.91152Z" stroke="#070A11" stroke-width="1.2"/>
<path d="M5 3.31152H3.8C2.52975 3.31152 1.5 4.34127 1.5 5.61152V14.3115M1.5 17.3115V26.0115C1.5 27.2818 2.52975 28.3115 3.8 28.3115H17.5M18 3.31152H19.2C20.4703 3.31152 21.5 4.34127 21.5 5.61152V14.3115" stroke="#070A11" stroke-width="1.2" stroke-linecap="round" stroke-linejoin="round"/>
<path d="M7.25886 6.81152H4.74219C4.46605 6.81152 4.24219 7.03538 4.24219 7.31152V9.8282C4.24219 10.1043 4.46604 10.3282 4.74219 10.3282H7.25886C7.535 10.3282 7.75886 10.1043 7.75886 9.8282V7.31152C7.75886 7.03538 7.535 6.81152 7.25886 6.81152Z" stroke="#070A11" stroke-width="1.2" stroke-linecap="round" stroke-linejoin="round"/>
<path d="M7.25886 13.8447H4.74219C4.46605 13.8447 4.24219 14.0686 4.24219 14.3447V16.8614C4.24219 17.1375 4.46604 17.3614 4.74219 17.3614H7.25886C7.535 17.3614 7.75886 17.1375 7.75886 16.8614V14.3447C7.75886 14.0686 7.535 13.8447 7.25886 13.8447Z" stroke="#070A11" stroke-width="1.2" stroke-linecap="round" stroke-linejoin="round"/>
<path d="M7.25886 20.8779H4.74219C4.46605 20.8779 4.24219 21.1018 4.24219 21.3779V23.8946C4.24219 24.1707 4.46604 24.3946 4.74219 24.3946H7.25886C7.535 24.3946 7.75886 24.1707 7.75886 23.8946V21.3779C7.75886 21.1018 7.535 20.8779 7.25886 20.8779Z" stroke="#070A11" stroke-width="1.2" stroke-linecap="round" stroke-linejoin="round"/>
<path d="M10.5 6.81152H18.5M10.5 9.81152H14.5M10.5 13.8115H14M10.5 16.3115H13.5M10.5 20.8115H13M10.5 23.8115H14" stroke="#070A11" stroke-width="1.2" stroke-linecap="round" stroke-linejoin="round"/>
<path d="M18.9118 15.8115C16.7516 15.8115 15 17.6727 15 19.9679C15 24.5615 22.4118 29.8115 22.4118 29.8115C22.4118 29.8115 29.8235 24.5615 29.8235 19.9679C29.8235 17.1242 28.0719 15.8115 25.9118 15.8115C24.38 15.8115 23.0541 16.7471 22.4118 18.1092C21.7694 16.7471 20.4435 15.8115 18.9118 15.8115Z" stroke="#6366F1" stroke-width="1.2" stroke-linecap="round" stroke-linejoin="round"/>
<path d="M18 22.3115H20L21 19.8115L23 25.3115L24 22.3115H26" stroke="#6366F1" stroke-width="1.2" stroke-linecap="round" stroke-linejoin="round"/>
</svg>
